<?xml version="1.0" encoding="UTF-8"?>
<!-- Generated by SVGo -->
<svg width="307.752mm" height="193.452mm" viewBox="0.000 0.000 307.752 193.452" xmlns="http://www.w3.org/2000/svg" xmlns:xlink="http://www.w3.org/1999/xlink">
<polygon points="300.752,5.001 300.908,5.007 301.064,5.025 301.218,5.056 301.370,5.098 301.517,5.153 301.659,5.218 301.796,5.295 301.927,5.382 302.050,5.480 302.166,5.586 302.272,5.702 302.370,5.825 302.457,5.956 302.534,6.093 302.599,6.235 302.654,6.382 302.696,6.534 302.727,6.688 302.745,6.844 302.752,7.001 302.752,186.452 302.745,186.608 302.727,186.764 302.696,186.918 302.654,187.070 302.599,187.217 302.534,187.359 302.457,187.496 302.370,187.627 302.272,187.750 302.166,187.866 302.050,187.972 301.927,188.070 301.796,188.157 301.659,188.234 301.517,188.299 301.370,188.354 301.218,188.396 301.064,188.427 300.908,188.445 300.752,188.452 7.001,188.452 6.844,188.445 6.688,188.427 6.534,188.396 6.382,188.354 6.235,188.299 6.093,188.234 5.956,188.157 5.825,188.070 5.702,187.972 5.586,187.866 5.480,187.750 5.382,187.627 5.295,187.496 5.218,187.359 5.153,187.217 5.098,187.070 5.056,186.918 5.025,186.764 5.007,186.608 5.000,186.452 5.001,7.001 5.007,6.844 5.025,6.688 5.056,6.534 5.098,6.382 5.153,6.235 5.218,6.093 5.295,5.956 5.382,5.825 5.480,5.702 5.586,5.586 5.702,5.480 5.825,5.382 5.956,5.295 6.093,5.218 6.235,5.153 6.382,5.098 6.534,5.056 6.688,5.025 6.844,5.007 7.001,5.000" style="fill:none;stroke-width:0.050000mm;stroke:black"/>
<polygon points="13.525,165.926 13.525,166.926 12.725,166.926 12.725,170.026 13.525,170.026 13.525,175.826 12.725,175.826 12.725,178.926 13.525,178.926 13.525,179.926 27.526,179.926 27.526,178.926 28.326,178.926 28.326,175.826 27.526,175.826 27.526,170.026 28.326,170.026 28.326,166.926 27.526,166.926 27.526,165.926" style="fill:none;stroke-width:0.050000mm;stroke:black"/>
<polygon points="32.576,165.926 32.576,166.926 31.776,166.926 31.776,170.026 32.576,170.026 32.576,175.826 31.776,175.826 31.776,178.926 32.576,178.926 32.576,179.926 46.576,179.926 46.576,178.926 47.376,178.926 47.376,175.826 46.576,175.826 46.576,170.026 47.376,170.026 47.376,166.926 46.576,166.926 46.576,165.926" style="fill:none;stroke-width:0.050000mm;stroke:black"/>
<polygon points="51.626,165.926 51.626,166.926 50.826,166.926 50.826,170.026 51.626,170.026 51.626,175.826 50.826,175.826 50.826,178.926 51.626,178.926 51.626,179.926 65.626,179.926 65.626,178.926 66.426,178.926 66.426,175.826 65.626,175.826 65.626,170.026 66.426,170.026 66.426,166.926 65.626,166.926 65.626,165.926" style="fill:none;stroke-width:0.050000mm;stroke:black"/>
<polygon points="70.676,165.926 70.676,166.926 69.876,166.926 69.876,170.026 70.676,170.026 70.676,175.826 69.876,175.826 69.876,178.926 70.676,178.926 70.676,179.926 84.676,179.926 84.676,178.926 85.476,178.926 85.476,175.826 84.676,175.826 84.676,170.026 85.476,170.026 85.476,166.926 84.676,166.926 84.676,165.926" style="fill:none;stroke-width:0.050000mm;stroke:black"/>
<polygon points="89.726,165.926 89.726,166.926 88.926,166.926 88.926,170.026 89.726,170.026 89.726,175.826 88.926,175.826 88.926,178.926 89.726,178.926 89.726,179.926 103.726,179.926 103.726,178.926 104.525,178.926 104.525,175.826 103.726,175.826 103.726,170.026 104.525,170.026 104.525,166.926 103.726,166.926 103.726,165.926" style="fill:none;stroke-width:0.050000mm;stroke:black"/>
<polygon points="108.775,165.926 108.775,166.926 107.976,166.926 107.976,170.026 108.775,170.026 108.775,175.826 107.976,175.826 107.976,178.926 108.775,178.926 108.775,179.926 122.775,179.926 122.775,178.926 123.575,178.926 123.575,175.826 122.775,175.826 122.775,170.026 123.575,170.026 123.575,166.926 122.775,166.926 122.775,165.926" style="fill:none;stroke-width:0.050000mm;stroke:black"/>
<polygon points="127.825,165.926 127.825,166.926 127.025,166.926 127.025,170.026 127.825,170.026 127.825,175.826 127.025,175.826 127.025,178.926 127.825,178.926 127.825,179.926 141.826,179.926 141.826,178.926 142.626,178.926 142.626,175.826 141.826,175.826 141.826,170.026 142.626,170.026 142.626,166.926 141.826,166.926 141.826,165.926" style="fill:none;stroke-width:0.050000mm;stroke:black"/>
<polygon points="146.876,165.926 146.876,166.926 146.076,166.926 146.076,170.026 146.876,170.026 146.876,175.826 146.076,175.826 146.076,178.926 146.876,178.926 146.876,179.926 160.876,179.926 160.876,178.926 161.676,178.926 161.676,175.826 160.876,175.826 160.876,170.026 161.676,170.026 161.676,166.926 160.876,166.926 160.876,165.926" style="fill:none;stroke-width:0.050000mm;stroke:black"/>
<polygon points="165.926,165.926 165.926,166.926 165.126,166.926 165.126,170.026 165.926,170.026 165.926,175.826 165.126,175.826 165.126,178.926 165.926,178.926 165.926,179.926 179.926,179.926 179.926,178.926 180.726,178.926 180.726,175.826 179.926,175.826 179.926,170.026 180.726,170.026 180.726,166.926 179.926,166.926 179.926,165.926" style="fill:none;stroke-width:0.050000mm;stroke:black"/>
<polygon points="184.976,165.926 184.976,166.926 184.176,166.926 184.176,170.026 184.976,170.026 184.976,175.826 184.176,175.826 184.176,178.926 184.976,178.926 184.976,179.926 198.976,179.926 198.976,178.926 199.776,178.926 199.776,175.826 198.976,175.826 198.976,170.026 199.776,170.026 199.776,166.926 198.976,166.926 198.976,165.926" style="fill:none;stroke-width:0.050000mm;stroke:black"/>
<polygon points="204.026,165.926 204.026,166.926 203.226,166.926 203.226,170.026 204.026,170.026 204.026,175.826 203.226,175.826 203.226,178.926 204.026,178.926 204.026,179.926 218.026,179.926 218.026,178.926 218.826,178.926 218.826,175.826 218.026,175.826 218.026,170.026 218.826,170.026 218.826,166.926 218.026,166.926 218.026,165.926" style="fill:none;stroke-width:0.050000mm;stroke:black"/>
<polygon points="223.076,165.926 223.076,166.926 222.276,166.926 222.276,170.026 223.076,170.026 223.076,175.826 222.276,175.826 222.276,178.926 223.076,178.926 223.076,179.926 237.076,179.926 237.076,178.926 237.876,178.926 237.876,175.826 237.076,175.826 237.076,170.026 237.876,170.026 237.876,166.926 237.076,166.926 237.076,165.926" style="fill:none;stroke-width:0.050000mm;stroke:black"/>
<polygon points="242.126,165.926 242.126,166.926 241.326,166.926 241.326,170.026 242.126,170.026 242.126,175.826 241.326,175.826 241.326,178.926 242.126,178.926 242.126,179.926 256.126,179.926 256.126,178.926 256.926,178.926 256.926,175.826 256.126,175.826 256.126,170.026 256.926,170.026 256.926,166.926 256.126,166.926 256.126,165.926" style="fill:none;stroke-width:0.050000mm;stroke:black"/>
<polygon points="261.176,165.926 261.176,166.926 260.376,166.926 260.376,170.026 261.176,170.026 261.176,175.826 260.376,175.826 260.376,178.926 261.176,178.926 261.176,179.926 275.176,179.926 275.176,178.926 275.976,178.926 275.976,175.826 275.176,175.826 275.176,170.026 275.976,170.026 275.976,166.926 275.176,166.926 275.176,165.926" style="fill:none;stroke-width:0.050000mm;stroke:black"/>
<polygon points="280.226,165.926 280.226,166.926 279.426,166.926 279.426,170.026 280.226,170.026 280.226,175.826 279.426,175.826 279.426,178.926 280.226,178.926 280.226,179.926 294.226,179.926 294.226,178.926 295.026,178.926 295.026,175.826 294.226,175.826 294.226,170.026 295.026,170.026 295.026,166.926 294.226,166.926 294.226,165.926" style="fill:none;stroke-width:0.050000mm;stroke:black"/>
<polygon points="13.525,146.876 13.525,147.876 12.725,147.876 12.725,150.976 13.525,150.976 13.525,156.776 12.725,156.776 12.725,159.876 13.525,159.876 13.525,160.876 27.526,160.876 27.526,159.876 28.326,159.876 28.326,156.776 27.526,156.776 27.526,150.976 28.326,150.976 28.326,147.876 27.526,147.876 27.526,146.876" style="fill:none;stroke-width:0.050000mm;stroke:black"/>
<polygon points="32.576,146.876 32.576,147.876 31.776,147.876 31.776,150.976 32.576,150.976 32.576,156.776 31.776,156.776 31.776,159.876 32.576,159.876 32.576,160.876 46.576,160.876 46.576,159.876 47.376,159.876 47.376,156.776 46.576,156.776 46.576,150.976 47.376,150.976 47.376,147.876 46.576,147.876 46.576,146.876" style="fill:none;stroke-width:0.050000mm;stroke:black"/>
<polygon points="51.626,146.876 51.626,147.876 50.826,147.876 50.826,150.976 51.626,150.976 51.626,156.776 50.826,156.776 50.826,159.876 51.626,159.876 51.626,160.876 65.626,160.876 65.626,159.876 66.426,159.876 66.426,156.776 65.626,156.776 65.626,150.976 66.426,150.976 66.426,147.876 65.626,147.876 65.626,146.876" style="fill:none;stroke-width:0.050000mm;stroke:black"/>
<polygon points="70.676,146.876 70.676,147.876 69.876,147.876 69.876,150.976 70.676,150.976 70.676,156.776 69.876,156.776 69.876,159.876 70.676,159.876 70.676,160.876 84.676,160.876 84.676,159.876 85.476,159.876 85.476,156.776 84.676,156.776 84.676,150.976 85.476,150.976 85.476,147.876 84.676,147.876 84.676,146.876" style="fill:none;stroke-width:0.050000mm;stroke:black"/>
<polygon points="89.726,146.876 89.726,147.876 88.926,147.876 88.926,150.976 89.726,150.976 89.726,156.776 88.926,156.776 88.926,159.876 89.726,159.876 89.726,160.876 103.726,160.876 103.726,159.876 104.525,159.876 104.525,156.776 103.726,156.776 103.726,150.976 104.525,150.976 104.525,147.876 103.726,147.876 103.726,146.876" style="fill:none;stroke-width:0.050000mm;stroke:black"/>
<polygon points="108.775,146.876 108.775,147.876 107.976,147.876 107.976,150.976 108.775,150.976 108.775,156.776 107.976,156.776 107.976,159.876 108.775,159.876 108.775,160.876 122.775,160.876 122.775,159.876 123.575,159.876 123.575,156.776 122.775,156.776 122.775,150.976 123.575,150.976 123.575,147.876 122.775,147.876 122.775,146.876" style="fill:none;stroke-width:0.050000mm;stroke:black"/>
<polygon points="127.825,146.876 127.825,147.876 127.025,147.876 127.025,150.976 127.825,150.976 127.825,156.776 127.025,156.776 127.025,159.876 127.825,159.876 127.825,160.876 141.826,160.876 141.826,159.876 142.626,159.876 142.626,156.776 141.826,156.776 141.826,150.976 142.626,150.976 142.626,147.876 141.826,147.876 141.826,146.876" style="fill:none;stroke-width:0.050000mm;stroke:black"/>
<polygon points="146.876,146.876 146.876,147.876 146.076,147.876 146.076,150.976 146.876,150.976 146.876,156.776 146.076,156.776 146.076,159.876 146.876,159.876 146.876,160.876 160.876,160.876 160.876,159.876 161.676,159.876 161.676,156.776 160.876,156.776 160.876,150.976 161.676,150.976 161.676,147.876 160.876,147.876 160.876,146.876" style="fill:none;stroke-width:0.050000mm;stroke:black"/>
<polygon points="165.926,146.876 165.926,147.876 165.126,147.876 165.126,150.976 165.926,150.976 165.926,156.776 165.126,156.776 165.126,159.876 165.926,159.876 165.926,160.876 179.926,160.876 179.926,159.876 180.726,159.876 180.726,156.776 179.926,156.776 179.926,150.976 180.726,150.976 180.726,147.876 179.926,147.876 179.926,146.876" style="fill:none;stroke-width:0.050000mm;stroke:black"/>
<polygon points="184.976,146.876 184.976,147.876 184.176,147.876 184.176,150.976 184.976,150.976 184.976,156.776 184.176,156.776 184.176,159.876 184.976,159.876 184.976,160.876 198.976,160.876 198.976,159.876 199.776,159.876 199.776,156.776 198.976,156.776 198.976,150.976 199.776,150.976 199.776,147.876 198.976,147.876 198.976,146.876" style="fill:none;stroke-width:0.050000mm;stroke:black"/>
<polygon points="204.026,146.876 204.026,147.876 203.226,147.876 203.226,150.976 204.026,150.976 204.026,156.776 203.226,156.776 203.226,159.876 204.026,159.876 204.026,160.876 218.026,160.876 218.026,159.876 218.826,159.876 218.826,156.776 218.026,156.776 218.026,150.976 218.826,150.976 218.826,147.876 218.026,147.876 218.026,146.876" style="fill:none;stroke-width:0.050000mm;stroke:black"/>
<polygon points="223.076,146.876 223.076,147.876 222.276,147.876 222.276,150.976 223.076,150.976 223.076,156.776 222.276,156.776 222.276,159.876 223.076,159.876 223.076,160.876 237.076,160.876 237.076,159.876 237.876,159.876 237.876,156.776 237.076,156.776 237.076,150.976 237.876,150.976 237.876,147.876 237.076,147.876 237.076,146.876" style="fill:none;stroke-width:0.050000mm;stroke:black"/>
<polygon points="242.126,146.876 242.126,147.876 241.326,147.876 241.326,150.976 242.126,150.976 242.126,156.776 241.326,156.776 241.326,159.876 242.126,159.876 242.126,160.876 256.126,160.876 256.126,159.876 256.926,159.876 256.926,156.776 256.126,156.776 256.126,150.976 256.926,150.976 256.926,147.876 256.126,147.876 256.126,146.876" style="fill:none;stroke-width:0.050000mm;stroke:black"/>
<polygon points="261.176,146.876 261.176,147.876 260.376,147.876 260.376,150.976 261.176,150.976 261.176,156.776 260.376,156.776 260.376,159.876 261.176,159.876 261.176,160.876 275.176,160.876 275.176,159.876 275.976,159.876 275.976,156.776 275.176,156.776 275.176,150.976 275.976,150.976 275.976,147.876 275.176,147.876 275.176,146.876" style="fill:none;stroke-width:0.050000mm;stroke:black"/>
<polygon points="280.226,146.876 280.226,147.876 279.426,147.876 279.426,150.976 280.226,150.976 280.226,156.776 279.426,156.776 279.426,159.876 280.226,159.876 280.226,160.876 294.226,160.876 294.226,159.876 295.026,159.876 295.026,156.776 294.226,156.776 294.226,150.976 295.026,150.976 295.026,147.876 294.226,147.876 294.226,146.876" style="fill:none;stroke-width:0.050000mm;stroke:black"/>
<polygon points="13.525,127.825 13.525,128.825 12.725,128.825 12.725,131.925 13.525,131.925 13.525,137.726 12.725,137.726 12.725,140.826 13.525,140.826 13.525,141.826 27.526,141.826 27.526,140.826 28.326,140.826 28.326,137.726 27.526,137.726 27.526,131.925 28.326,131.925 28.326,128.825 27.526,128.825 27.526,127.825" style="fill:none;stroke-width:0.050000mm;stroke:black"/>
<polygon points="32.576,127.825 32.576,128.825 31.776,128.825 31.776,131.925 32.576,131.925 32.576,137.726 31.776,137.726 31.776,140.826 32.576,140.826 32.576,141.826 46.576,141.826 46.576,140.826 47.376,140.826 47.376,137.726 46.576,137.726 46.576,131.925 47.376,131.925 47.376,128.825 46.576,128.825 46.576,127.825" style="fill:none;stroke-width:0.050000mm;stroke:black"/>
<polygon points="51.626,127.825 51.626,128.825 50.826,128.825 50.826,131.925 51.626,131.925 51.626,137.726 50.826,137.726 50.826,140.826 51.626,140.826 51.626,141.826 65.626,141.826 65.626,140.826 66.426,140.826 66.426,137.726 65.626,137.726 65.626,131.925 66.426,131.925 66.426,128.825 65.626,128.825 65.626,127.825" style="fill:none;stroke-width:0.050000mm;stroke:black"/>
<polygon points="70.676,127.825 70.676,128.825 69.876,128.825 69.876,131.925 70.676,131.925 70.676,137.726 69.876,137.726 69.876,140.826 70.676,140.826 70.676,141.826 84.676,141.826 84.676,140.826 85.476,140.826 85.476,137.726 84.676,137.726 84.676,131.925 85.476,131.925 85.476,128.825 84.676,128.825 84.676,127.825" style="fill:none;stroke-width:0.050000mm;stroke:black"/>
<polygon points="89.726,127.825 89.726,128.825 88.926,128.825 88.926,131.925 89.726,131.925 89.726,137.726 88.926,137.726 88.926,140.826 89.726,140.826 89.726,141.826 103.726,141.826 103.726,140.826 104.525,140.826 104.525,137.726 103.726,137.726 103.726,131.925 104.525,131.925 104.525,128.825 103.726,128.825 103.726,127.825" style="fill:none;stroke-width:0.050000mm;stroke:black"/>
<polygon points="108.775,127.825 108.775,128.825 107.976,128.825 107.976,131.925 108.775,131.925 108.775,137.726 107.976,137.726 107.976,140.826 108.775,140.826 108.775,141.826 122.775,141.826 122.775,140.826 123.575,140.826 123.575,137.726 122.775,137.726 122.775,131.925 123.575,131.925 123.575,128.825 122.775,128.825 122.775,127.825" style="fill:none;stroke-width:0.050000mm;stroke:black"/>
<polygon points="127.825,127.825 127.825,128.825 127.025,128.825 127.025,131.925 127.825,131.925 127.825,137.726 127.025,137.726 127.025,140.826 127.825,140.826 127.825,141.826 141.826,141.826 141.826,140.826 142.626,140.826 142.626,137.726 141.826,137.726 141.826,131.925 142.626,131.925 142.626,128.825 141.826,128.825 141.826,127.825" style="fill:none;stroke-width:0.050000mm;stroke:black"/>
<polygon points="146.876,127.825 146.876,128.825 146.076,128.825 146.076,131.925 146.876,131.925 146.876,137.726 146.076,137.726 146.076,140.826 146.876,140.826 146.876,141.826 160.876,141.826 160.876,140.826 161.676,140.826 161.676,137.726 160.876,137.726 160.876,131.925 161.676,131.925 161.676,128.825 160.876,128.825 160.876,127.825" style="fill:none;stroke-width:0.050000mm;stroke:black"/>
<polygon points="165.926,127.825 165.926,128.825 165.126,128.825 165.126,131.925 165.926,131.925 165.926,137.726 165.126,137.726 165.126,140.826 165.926,140.826 165.926,141.826 179.926,141.826 179.926,140.826 180.726,140.826 180.726,137.726 179.926,137.726 179.926,131.925 180.726,131.925 180.726,128.825 179.926,128.825 179.926,127.825" style="fill:none;stroke-width:0.050000mm;stroke:black"/>
<polygon points="184.976,127.825 184.976,128.825 184.176,128.825 184.176,131.925 184.976,131.925 184.976,137.726 184.176,137.726 184.176,140.826 184.976,140.826 184.976,141.826 198.976,141.826 198.976,140.826 199.776,140.826 199.776,137.726 198.976,137.726 198.976,131.925 199.776,131.925 199.776,128.825 198.976,128.825 198.976,127.825" style="fill:none;stroke-width:0.050000mm;stroke:black"/>
<polygon points="204.026,127.825 204.026,128.825 203.226,128.825 203.226,131.925 204.026,131.925 204.026,137.726 203.226,137.726 203.226,140.826 204.026,140.826 204.026,141.826 218.026,141.826 218.026,140.826 218.826,140.826 218.826,137.726 218.026,137.726 218.026,131.925 218.826,131.925 218.826,128.825 218.026,128.825 218.026,127.825" style="fill:none;stroke-width:0.050000mm;stroke:black"/>
<polygon points="223.076,127.825 223.076,128.825 222.276,128.825 222.276,131.925 223.076,131.925 223.076,137.726 222.276,137.726 222.276,140.826 223.076,140.826 223.076,141.826 237.076,141.826 237.076,140.826 237.876,140.826 237.876,137.726 237.076,137.726 237.076,131.925 237.876,131.925 237.876,128.825 237.076,128.825 237.076,127.825" style="fill:none;stroke-width:0.050000mm;stroke:black"/>
<polygon points="242.126,127.825 242.126,128.825 241.326,128.825 241.326,131.925 242.126,131.925 242.126,137.726 241.326,137.726 241.326,140.826 242.126,140.826 242.126,141.826 256.126,141.826 256.126,140.826 256.926,140.826 256.926,137.726 256.126,137.726 256.126,131.925 256.926,131.925 256.926,128.825 256.126,128.825 256.126,127.825" style="fill:none;stroke-width:0.050000mm;stroke:black"/>
<polygon points="261.176,127.825 261.176,128.825 260.376,128.825 260.376,131.925 261.176,131.925 261.176,137.726 260.376,137.726 260.376,140.826 261.176,140.826 261.176,141.826 275.176,141.826 275.176,140.826 275.976,140.826 275.976,137.726 275.176,137.726 275.176,131.925 275.976,131.925 275.976,128.825 275.176,128.825 275.176,127.825" style="fill:none;stroke-width:0.050000mm;stroke:black"/>
<polygon points="280.226,127.825 280.226,128.825 279.426,128.825 279.426,131.925 280.226,131.925 280.226,137.726 279.426,137.726 279.426,140.826 280.226,140.826 280.226,141.826 294.226,141.826 294.226,140.826 295.026,140.826 295.026,137.726 294.226,137.726 294.226,131.925 295.026,131.925 295.026,128.825 294.226,128.825 294.226,127.825" style="fill:none;stroke-width:0.050000mm;stroke:black"/>
<polygon points="13.525,108.775 13.525,109.775 12.725,109.775 12.725,112.875 13.525,112.875 13.525,118.676 12.725,118.676 12.725,121.775 13.525,121.775 13.525,122.775 27.526,122.775 27.526,121.775 28.326,121.775 28.326,118.676 27.526,118.676 27.526,112.875 28.326,112.875 28.326,109.775 27.526,109.775 27.526,108.775" style="fill:none;stroke-width:0.050000mm;stroke:black"/>
<polygon points="32.576,108.775 32.576,109.775 31.776,109.775 31.776,112.875 32.576,112.875 32.576,118.676 31.776,118.676 31.776,121.775 32.576,121.775 32.576,122.775 46.576,122.775 46.576,121.775 47.376,121.775 47.376,118.676 46.576,118.676 46.576,112.875 47.376,112.875 47.376,109.775 46.576,109.775 46.576,108.775" style="fill:none;stroke-width:0.050000mm;stroke:black"/>
<polygon points="51.626,108.775 51.626,109.775 50.826,109.775 50.826,112.875 51.626,112.875 51.626,118.676 50.826,118.676 50.826,121.775 51.626,121.775 51.626,122.775 65.626,122.775 65.626,121.775 66.426,121.775 66.426,118.676 65.626,118.676 65.626,112.875 66.426,112.875 66.426,109.775 65.626,109.775 65.626,108.775" style="fill:none;stroke-width:0.050000mm;stroke:black"/>
<polygon points="70.676,108.775 70.676,109.775 69.876,109.775 69.876,112.875 70.676,112.875 70.676,118.676 69.876,118.676 69.876,121.775 70.676,121.775 70.676,122.775 84.676,122.775 84.676,121.775 85.476,121.775 85.476,118.676 84.676,118.676 84.676,112.875 85.476,112.875 85.476,109.775 84.676,109.775 84.676,108.775" style="fill:none;stroke-width:0.050000mm;stroke:black"/>
<polygon points="89.726,108.775 89.726,109.775 88.926,109.775 88.926,112.875 89.726,112.875 89.726,118.676 88.926,118.676 88.926,121.775 89.726,121.775 89.726,122.775 103.726,122.775 103.726,121.775 104.525,121.775 104.525,118.676 103.726,118.676 103.726,112.875 104.525,112.875 104.525,109.775 103.726,109.775 103.726,108.775" style="fill:none;stroke-width:0.050000mm;stroke:black"/>
<polygon points="108.775,108.775 108.775,109.775 107.976,109.775 107.976,112.875 108.775,112.875 108.775,118.676 107.976,118.676 107.976,121.775 108.775,121.775 108.775,122.775 122.775,122.775 122.775,121.775 123.575,121.775 123.575,118.676 122.775,118.676 122.775,112.875 123.575,112.875 123.575,109.775 122.775,109.775 122.775,108.775" style="fill:none;stroke-width:0.050000mm;stroke:black"/>
<polygon points="127.825,108.775 127.825,109.775 127.025,109.775 127.025,112.875 127.825,112.875 127.825,118.676 127.025,118.676 127.025,121.775 127.825,121.775 127.825,122.775 141.826,122.775 141.826,121.775 142.626,121.775 142.626,118.676 141.826,118.676 141.826,112.875 142.626,112.875 142.626,109.775 141.826,109.775 141.826,108.775" style="fill:none;stroke-width:0.050000mm;stroke:black"/>
<polygon points="146.876,108.775 146.876,109.775 146.076,109.775 146.076,112.875 146.876,112.875 146.876,118.676 146.076,118.676 146.076,121.775 146.876,121.775 146.876,122.775 160.876,122.775 160.876,121.775 161.676,121.775 161.676,118.676 160.876,118.676 160.876,112.875 161.676,112.875 161.676,109.775 160.876,109.775 160.876,108.775" style="fill:none;stroke-width:0.050000mm;stroke:black"/>
<polygon points="165.926,108.775 165.926,109.775 165.126,109.775 165.126,112.875 165.926,112.875 165.926,118.676 165.126,118.676 165.126,121.775 165.926,121.775 165.926,122.775 179.926,122.775 179.926,121.775 180.726,121.775 180.726,118.676 179.926,118.676 179.926,112.875 180.726,112.875 180.726,109.775 179.926,109.775 179.926,108.775" style="fill:none;stroke-width:0.050000mm;stroke:black"/>
<polygon points="184.976,108.775 184.976,109.775 184.176,109.775 184.176,112.875 184.976,112.875 184.976,118.676 184.176,118.676 184.176,121.775 184.976,121.775 184.976,122.775 198.976,122.775 198.976,121.775 199.776,121.775 199.776,118.676 198.976,118.676 198.976,112.875 199.776,112.875 199.776,109.775 198.976,109.775 198.976,108.775" style="fill:none;stroke-width:0.050000mm;stroke:black"/>
<polygon points="204.026,108.775 204.026,109.775 203.226,109.775 203.226,112.875 204.026,112.875 204.026,118.676 203.226,118.676 203.226,121.775 204.026,121.775 204.026,122.775 218.026,122.775 218.026,121.775 218.826,121.775 218.826,118.676 218.026,118.676 218.026,112.875 218.826,112.875 218.826,109.775 218.026,109.775 218.026,108.775" style="fill:none;stroke-width:0.050000mm;stroke:black"/>
<polygon points="223.076,108.775 223.076,109.775 222.276,109.775 222.276,112.875 223.076,112.875 223.076,118.676 222.276,118.676 222.276,121.775 223.076,121.775 223.076,122.775 237.076,122.775 237.076,121.775 237.876,121.775 237.876,118.676 237.076,118.676 237.076,112.875 237.876,112.875 237.876,109.775 237.076,109.775 237.076,108.775" style="fill:none;stroke-width:0.050000mm;stroke:black"/>
<polygon points="242.126,108.775 242.126,109.775 241.326,109.775 241.326,112.875 242.126,112.875 242.126,118.676 241.326,118.676 241.326,121.775 242.126,121.775 242.126,122.775 256.126,122.775 256.126,121.775 256.926,121.775 256.926,118.676 256.126,118.676 256.126,112.875 256.926,112.875 256.926,109.775 256.126,109.775 256.126,108.775" style="fill:none;stroke-width:0.050000mm;stroke:black"/>
<polygon points="261.176,108.775 261.176,109.775 260.376,109.775 260.376,112.875 261.176,112.875 261.176,118.676 260.376,118.676 260.376,121.775 261.176,121.775 261.176,122.775 275.176,122.775 275.176,121.775 275.976,121.775 275.976,118.676 275.176,118.676 275.176,112.875 275.976,112.875 275.976,109.775 275.176,109.775 275.176,108.775" style="fill:none;stroke-width:0.050000mm;stroke:black"/>
<polygon points="280.226,108.775 280.226,109.775 279.426,109.775 279.426,112.875 280.226,112.875 280.226,118.676 279.426,118.676 279.426,121.775 280.226,121.775 280.226,122.775 294.226,122.775 294.226,121.775 295.026,121.775 295.026,118.676 294.226,118.676 294.226,112.875 295.026,112.875 295.026,109.775 294.226,109.775 294.226,108.775" style="fill:none;stroke-width:0.050000mm;stroke:black"/>
<polygon points="13.525,89.726 13.525,90.726 12.725,90.726 12.725,93.825 13.525,93.825 13.525,99.626 12.725,99.626 12.725,102.726 13.525,102.726 13.525,103.726 27.526,103.726 27.526,102.726 28.326,102.726 28.326,99.626 27.526,99.626 27.526,93.825 28.326,93.825 28.326,90.726 27.526,90.726 27.526,89.726" style="fill:none;stroke-width:0.050000mm;stroke:black"/>
<polygon points="32.576,89.726 32.576,90.726 31.776,90.726 31.776,93.825 32.576,93.825 32.576,99.626 31.776,99.626 31.776,102.726 32.576,102.726 32.576,103.726 46.576,103.726 46.576,102.726 47.376,102.726 47.376,99.626 46.576,99.626 46.576,93.825 47.376,93.825 47.376,90.726 46.576,90.726 46.576,89.726" style="fill:none;stroke-width:0.050000mm;stroke:black"/>
<polygon points="51.626,89.726 51.626,90.726 50.826,90.726 50.826,93.825 51.626,93.825 51.626,99.626 50.826,99.626 50.826,102.726 51.626,102.726 51.626,103.726 65.626,103.726 65.626,102.726 66.426,102.726 66.426,99.626 65.626,99.626 65.626,93.825 66.426,93.825 66.426,90.726 65.626,90.726 65.626,89.726" style="fill:none;stroke-width:0.050000mm;stroke:black"/>
<polygon points="70.676,89.726 70.676,90.726 69.876,90.726 69.876,93.825 70.676,93.825 70.676,99.626 69.876,99.626 69.876,102.726 70.676,102.726 70.676,103.726 84.676,103.726 84.676,102.726 85.476,102.726 85.476,99.626 84.676,99.626 84.676,93.825 85.476,93.825 85.476,90.726 84.676,90.726 84.676,89.726" style="fill:none;stroke-width:0.050000mm;stroke:black"/>
<polygon points="89.726,89.726 89.726,90.726 88.926,90.726 88.926,93.825 89.726,93.825 89.726,99.626 88.926,99.626 88.926,102.726 89.726,102.726 89.726,103.726 103.726,103.726 103.726,102.726 104.525,102.726 104.525,99.626 103.726,99.626 103.726,93.825 104.525,93.825 104.525,90.726 103.726,90.726 103.726,89.726" style="fill:none;stroke-width:0.050000mm;stroke:black"/>
<polygon points="108.775,89.726 108.775,90.726 107.976,90.726 107.976,93.825 108.775,93.825 108.775,99.626 107.976,99.626 107.976,102.726 108.775,102.726 108.775,103.726 122.775,103.726 122.775,102.726 123.575,102.726 123.575,99.626 122.775,99.626 122.775,93.825 123.575,93.825 123.575,90.726 122.775,90.726 122.775,89.726" style="fill:none;stroke-width:0.050000mm;stroke:black"/>
<polygon points="127.825,89.726 127.825,90.726 127.025,90.726 127.025,93.825 127.825,93.825 127.825,99.626 127.025,99.626 127.025,102.726 127.825,102.726 127.825,103.726 141.826,103.726 141.826,102.726 142.626,102.726 142.626,99.626 141.826,99.626 141.826,93.825 142.626,93.825 142.626,90.726 141.826,90.726 141.826,89.726" style="fill:none;stroke-width:0.050000mm;stroke:black"/>
<polygon points="146.876,89.726 146.876,90.726 146.076,90.726 146.076,93.825 146.876,93.825 146.876,99.626 146.076,99.626 146.076,102.726 146.876,102.726 146.876,103.726 160.876,103.726 160.876,102.726 161.676,102.726 161.676,99.626 160.876,99.626 160.876,93.825 161.676,93.825 161.676,90.726 160.876,90.726 160.876,89.726" style="fill:none;stroke-width:0.050000mm;stroke:black"/>
<polygon points="165.926,89.726 165.926,90.726 165.126,90.726 165.126,93.825 165.926,93.825 165.926,99.626 165.126,99.626 165.126,102.726 165.926,102.726 165.926,103.726 179.926,103.726 179.926,102.726 180.726,102.726 180.726,99.626 179.926,99.626 179.926,93.825 180.726,93.825 180.726,90.726 179.926,90.726 179.926,89.726" style="fill:none;stroke-width:0.050000mm;stroke:black"/>
<polygon points="184.976,89.726 184.976,90.726 184.176,90.726 184.176,93.825 184.976,93.825 184.976,99.626 184.176,99.626 184.176,102.726 184.976,102.726 184.976,103.726 198.976,103.726 198.976,102.726 199.776,102.726 199.776,99.626 198.976,99.626 198.976,93.825 199.776,93.825 199.776,90.726 198.976,90.726 198.976,89.726" style="fill:none;stroke-width:0.050000mm;stroke:black"/>
<polygon points="204.026,89.726 204.026,90.726 203.226,90.726 203.226,93.825 204.026,93.825 204.026,99.626 203.226,99.626 203.226,102.726 204.026,102.726 204.026,103.726 218.026,103.726 218.026,102.726 218.826,102.726 218.826,99.626 218.026,99.626 218.026,93.825 218.826,93.825 218.826,90.726 218.026,90.726 218.026,89.726" style="fill:none;stroke-width:0.050000mm;stroke:black"/>
<polygon points="223.076,89.726 223.076,90.726 222.276,90.726 222.276,93.825 223.076,93.825 223.076,99.626 222.276,99.626 222.276,102.726 223.076,102.726 223.076,103.726 237.076,103.726 237.076,102.726 237.876,102.726 237.876,99.626 237.076,99.626 237.076,93.825 237.876,93.825 237.876,90.726 237.076,90.726 237.076,89.726" style="fill:none;stroke-width:0.050000mm;stroke:black"/>
<polygon points="242.126,89.726 242.126,90.726 241.326,90.726 241.326,93.825 242.126,93.825 242.126,99.626 241.326,99.626 241.326,102.726 242.126,102.726 242.126,103.726 256.126,103.726 256.126,102.726 256.926,102.726 256.926,99.626 256.126,99.626 256.126,93.825 256.926,93.825 256.926,90.726 256.126,90.726 256.126,89.726" style="fill:none;stroke-width:0.050000mm;stroke:black"/>
<polygon points="261.176,89.726 261.176,90.726 260.376,90.726 260.376,93.825 261.176,93.825 261.176,99.626 260.376,99.626 260.376,102.726 261.176,102.726 261.176,103.726 275.176,103.726 275.176,102.726 275.976,102.726 275.976,99.626 275.176,99.626 275.176,93.825 275.976,93.825 275.976,90.726 275.176,90.726 275.176,89.726" style="fill:none;stroke-width:0.050000mm;stroke:black"/>
<polygon points="280.226,89.726 280.226,90.726 279.426,90.726 279.426,93.825 280.226,93.825 280.226,99.626 279.426,99.626 279.426,102.726 280.226,102.726 280.226,103.726 294.226,103.726 294.226,102.726 295.026,102.726 295.026,99.626 294.226,99.626 294.226,93.825 295.026,93.825 295.026,90.726 294.226,90.726 294.226,89.726" style="fill:none;stroke-width:0.050000mm;stroke:black"/>
<polygon points="13.525,70.676 13.525,71.676 12.725,71.676 12.725,74.775 13.525,74.775 13.525,80.576 12.725,80.576 12.725,83.676 13.525,83.676 13.525,84.676 27.526,84.676 27.526,83.676 28.326,83.676 28.326,80.576 27.526,80.576 27.526,74.775 28.326,74.775 28.326,71.676 27.526,71.676 27.526,70.676" style="fill:none;stroke-width:0.050000mm;stroke:black"/>
<polygon points="32.576,70.676 32.576,71.676 31.776,71.676 31.776,74.775 32.576,74.775 32.576,80.576 31.776,80.576 31.776,83.676 32.576,83.676 32.576,84.676 46.576,84.676 46.576,83.676 47.376,83.676 47.376,80.576 46.576,80.576 46.576,74.775 47.376,74.775 47.376,71.676 46.576,71.676 46.576,70.676" style="fill:none;stroke-width:0.050000mm;stroke:black"/>
<polygon points="51.626,70.676 51.626,71.676 50.826,71.676 50.826,74.775 51.626,74.775 51.626,80.576 50.826,80.576 50.826,83.676 51.626,83.676 51.626,84.676 65.626,84.676 65.626,83.676 66.426,83.676 66.426,80.576 65.626,80.576 65.626,74.775 66.426,74.775 66.426,71.676 65.626,71.676 65.626,70.676" style="fill:none;stroke-width:0.050000mm;stroke:black"/>
<polygon points="70.676,70.676 70.676,71.676 69.876,71.676 69.876,74.775 70.676,74.775 70.676,80.576 69.876,80.576 69.876,83.676 70.676,83.676 70.676,84.676 84.676,84.676 84.676,83.676 85.476,83.676 85.476,80.576 84.676,80.576 84.676,74.775 85.476,74.775 85.476,71.676 84.676,71.676 84.676,70.676" style="fill:none;stroke-width:0.050000mm;stroke:black"/>
<polygon points="89.726,70.676 89.726,71.676 88.926,71.676 88.926,74.775 89.726,74.775 89.726,80.576 88.926,80.576 88.926,83.676 89.726,83.676 89.726,84.676 103.726,84.676 103.726,83.676 104.525,83.676 104.525,80.576 103.726,80.576 103.726,74.775 104.525,74.775 104.525,71.676 103.726,71.676 103.726,70.676" style="fill:none;stroke-width:0.050000mm;stroke:black"/>
<polygon points="108.775,70.676 108.775,71.676 107.976,71.676 107.976,74.775 108.775,74.775 108.775,80.576 107.976,80.576 107.976,83.676 108.775,83.676 108.775,84.676 122.775,84.676 122.775,83.676 123.575,83.676 123.575,80.576 122.775,80.576 122.775,74.775 123.575,74.775 123.575,71.676 122.775,71.676 122.775,70.676" style="fill:none;stroke-width:0.050000mm;stroke:black"/>
<polygon points="127.825,70.676 127.825,71.676 127.025,71.676 127.025,74.775 127.825,74.775 127.825,80.576 127.025,80.576 127.025,83.676 127.825,83.676 127.825,84.676 141.826,84.676 141.826,83.676 142.626,83.676 142.626,80.576 141.826,80.576 141.826,74.775 142.626,74.775 142.626,71.676 141.826,71.676 141.826,70.676" style="fill:none;stroke-width:0.050000mm;stroke:black"/>
<polygon points="146.876,70.676 146.876,71.676 146.076,71.676 146.076,74.775 146.876,74.775 146.876,80.576 146.076,80.576 146.076,83.676 146.876,83.676 146.876,84.676 160.876,84.676 160.876,83.676 161.676,83.676 161.676,80.576 160.876,80.576 160.876,74.775 161.676,74.775 161.676,71.676 160.876,71.676 160.876,70.676" style="fill:none;stroke-width:0.050000mm;stroke:black"/>
<polygon points="165.926,70.676 165.926,71.676 165.126,71.676 165.126,74.775 165.926,74.775 165.926,80.576 165.126,80.576 165.126,83.676 165.926,83.676 165.926,84.676 179.926,84.676 179.926,83.676 180.726,83.676 180.726,80.576 179.926,80.576 179.926,74.775 180.726,74.775 180.726,71.676 179.926,71.676 179.926,70.676" style="fill:none;stroke-width:0.050000mm;stroke:black"/>
<polygon points="184.976,70.676 184.976,71.676 184.176,71.676 184.176,74.775 184.976,74.775 184.976,80.576 184.176,80.576 184.176,83.676 184.976,83.676 184.976,84.676 198.976,84.676 198.976,83.676 199.776,83.676 199.776,80.576 198.976,80.576 198.976,74.775 199.776,74.775 199.776,71.676 198.976,71.676 198.976,70.676" style="fill:none;stroke-width:0.050000mm;stroke:black"/>
<polygon points="204.026,70.676 204.026,71.676 203.226,71.676 203.226,74.775 204.026,74.775 204.026,80.576 203.226,80.576 203.226,83.676 204.026,83.676 204.026,84.676 218.026,84.676 218.026,83.676 218.826,83.676 218.826,80.576 218.026,80.576 218.026,74.775 218.826,74.775 218.826,71.676 218.026,71.676 218.026,70.676" style="fill:none;stroke-width:0.050000mm;stroke:black"/>
<polygon points="223.076,70.676 223.076,71.676 222.276,71.676 222.276,74.775 223.076,74.775 223.076,80.576 222.276,80.576 222.276,83.676 223.076,83.676 223.076,84.676 237.076,84.676 237.076,83.676 237.876,83.676 237.876,80.576 237.076,80.576 237.076,74.775 237.876,74.775 237.876,71.676 237.076,71.676 237.076,70.676" style="fill:none;stroke-width:0.050000mm;stroke:black"/>
<polygon points="242.126,70.676 242.126,71.676 241.326,71.676 241.326,74.775 242.126,74.775 242.126,80.576 241.326,80.576 241.326,83.676 242.126,83.676 242.126,84.676 256.126,84.676 256.126,83.676 256.926,83.676 256.926,80.576 256.126,80.576 256.126,74.775 256.926,74.775 256.926,71.676 256.126,71.676 256.126,70.676" style="fill:none;stroke-width:0.050000mm;stroke:black"/>
<polygon points="261.176,70.676 261.176,71.676 260.376,71.676 260.376,74.775 261.176,74.775 261.176,80.576 260.376,80.576 260.376,83.676 261.176,83.676 261.176,84.676 275.176,84.676 275.176,83.676 275.976,83.676 275.976,80.576 275.176,80.576 275.176,74.775 275.976,74.775 275.976,71.676 275.176,71.676 275.176,70.676" style="fill:none;stroke-width:0.050000mm;stroke:black"/>
<polygon points="280.226,70.676 280.226,71.676 279.426,71.676 279.426,74.775 280.226,74.775 280.226,80.576 279.426,80.576 279.426,83.676 280.226,83.676 280.226,84.676 294.226,84.676 294.226,83.676 295.026,83.676 295.026,80.576 294.226,80.576 294.226,74.775 295.026,74.775 295.026,71.676 294.226,71.676 294.226,70.676" style="fill:none;stroke-width:0.050000mm;stroke:black"/>
<polygon points="13.525,51.626 13.525,52.626 12.725,52.626 12.725,55.726 13.525,55.726 13.525,61.526 12.725,61.526 12.725,64.626 13.525,64.626 13.525,65.626 27.526,65.626 27.526,64.626 28.326,64.626 28.326,61.526 27.526,61.526 27.526,55.726 28.326,55.726 28.326,52.626 27.526,52.626 27.526,51.626" style="fill:none;stroke-width:0.050000mm;stroke:black"/>
<polygon points="32.576,51.626 32.576,52.626 31.776,52.626 31.776,55.726 32.576,55.726 32.576,61.526 31.776,61.526 31.776,64.626 32.576,64.626 32.576,65.626 46.576,65.626 46.576,64.626 47.376,64.626 47.376,61.526 46.576,61.526 46.576,55.726 47.376,55.726 47.376,52.626 46.576,52.626 46.576,51.626" style="fill:none;stroke-width:0.050000mm;stroke:black"/>
<polygon points="51.626,51.626 51.626,52.626 50.826,52.626 50.826,55.726 51.626,55.726 51.626,61.526 50.826,61.526 50.826,64.626 51.626,64.626 51.626,65.626 65.626,65.626 65.626,64.626 66.426,64.626 66.426,61.526 65.626,61.526 65.626,55.726 66.426,55.726 66.426,52.626 65.626,52.626 65.626,51.626" style="fill:none;stroke-width:0.050000mm;stroke:black"/>
<polygon points="70.676,51.626 70.676,52.626 69.876,52.626 69.876,55.726 70.676,55.726 70.676,61.526 69.876,61.526 69.876,64.626 70.676,64.626 70.676,65.626 84.676,65.626 84.676,64.626 85.476,64.626 85.476,61.526 84.676,61.526 84.676,55.726 85.476,55.726 85.476,52.626 84.676,52.626 84.676,51.626" style="fill:none;stroke-width:0.050000mm;stroke:black"/>
<polygon points="89.726,51.626 89.726,52.626 88.926,52.626 88.926,55.726 89.726,55.726 89.726,61.526 88.926,61.526 88.926,64.626 89.726,64.626 89.726,65.626 103.726,65.626 103.726,64.626 104.525,64.626 104.525,61.526 103.726,61.526 103.726,55.726 104.525,55.726 104.525,52.626 103.726,52.626 103.726,51.626" style="fill:none;stroke-width:0.050000mm;stroke:black"/>
<polygon points="108.775,51.626 108.775,52.626 107.976,52.626 107.976,55.726 108.775,55.726 108.775,61.526 107.976,61.526 107.976,64.626 108.775,64.626 108.775,65.626 122.775,65.626 122.775,64.626 123.575,64.626 123.575,61.526 122.775,61.526 122.775,55.726 123.575,55.726 123.575,52.626 122.775,52.626 122.775,51.626" style="fill:none;stroke-width:0.050000mm;stroke:black"/>
<polygon points="127.825,51.626 127.825,52.626 127.025,52.626 127.025,55.726 127.825,55.726 127.825,61.526 127.025,61.526 127.025,64.626 127.825,64.626 127.825,65.626 141.826,65.626 141.826,64.626 142.626,64.626 142.626,61.526 141.826,61.526 141.826,55.726 142.626,55.726 142.626,52.626 141.826,52.626 141.826,51.626" style="fill:none;stroke-width:0.050000mm;stroke:black"/>
<polygon points="146.876,51.626 146.876,52.626 146.076,52.626 146.076,55.726 146.876,55.726 146.876,61.526 146.076,61.526 146.076,64.626 146.876,64.626 146.876,65.626 160.876,65.626 160.876,64.626 161.676,64.626 161.676,61.526 160.876,61.526 160.876,55.726 161.676,55.726 161.676,52.626 160.876,52.626 160.876,51.626" style="fill:none;stroke-width:0.050000mm;stroke:black"/>
<polygon points="165.926,51.626 165.926,52.626 165.126,52.626 165.126,55.726 165.926,55.726 165.926,61.526 165.126,61.526 165.126,64.626 165.926,64.626 165.926,65.626 179.926,65.626 179.926,64.626 180.726,64.626 180.726,61.526 179.926,61.526 179.926,55.726 180.726,55.726 180.726,52.626 179.926,52.626 179.926,51.626" style="fill:none;stroke-width:0.050000mm;stroke:black"/>
<polygon points="184.976,51.626 184.976,52.626 184.176,52.626 184.176,55.726 184.976,55.726 184.976,61.526 184.176,61.526 184.176,64.626 184.976,64.626 184.976,65.626 198.976,65.626 198.976,64.626 199.776,64.626 199.776,61.526 198.976,61.526 198.976,55.726 199.776,55.726 199.776,52.626 198.976,52.626 198.976,51.626" style="fill:none;stroke-width:0.050000mm;stroke:black"/>
<polygon points="204.026,51.626 204.026,52.626 203.226,52.626 203.226,55.726 204.026,55.726 204.026,61.526 203.226,61.526 203.226,64.626 204.026,64.626 204.026,65.626 218.026,65.626 218.026,64.626 218.826,64.626 218.826,61.526 218.026,61.526 218.026,55.726 218.826,55.726 218.826,52.626 218.026,52.626 218.026,51.626" style="fill:none;stroke-width:0.050000mm;stroke:black"/>
<polygon points="223.076,51.626 223.076,52.626 222.276,52.626 222.276,55.726 223.076,55.726 223.076,61.526 222.276,61.526 222.276,64.626 223.076,64.626 223.076,65.626 237.076,65.626 237.076,64.626 237.876,64.626 237.876,61.526 237.076,61.526 237.076,55.726 237.876,55.726 237.876,52.626 237.076,52.626 237.076,51.626" style="fill:none;stroke-width:0.050000mm;stroke:black"/>
<polygon points="242.126,51.626 242.126,52.626 241.326,52.626 241.326,55.726 242.126,55.726 242.126,61.526 241.326,61.526 241.326,64.626 242.126,64.626 242.126,65.626 256.126,65.626 256.126,64.626 256.926,64.626 256.926,61.526 256.126,61.526 256.126,55.726 256.926,55.726 256.926,52.626 256.126,52.626 256.126,51.626" style="fill:none;stroke-width:0.050000mm;stroke:black"/>
<polygon points="261.176,51.626 261.176,52.626 260.376,52.626 260.376,55.726 261.176,55.726 261.176,61.526 260.376,61.526 260.376,64.626 261.176,64.626 261.176,65.626 275.176,65.626 275.176,64.626 275.976,64.626 275.976,61.526 275.176,61.526 275.176,55.726 275.976,55.726 275.976,52.626 275.176,52.626 275.176,51.626" style="fill:none;stroke-width:0.050000mm;stroke:black"/>
<polygon points="280.226,51.626 280.226,52.626 279.426,52.626 279.426,55.726 280.226,55.726 280.226,61.526 279.426,61.526 279.426,64.626 280.226,64.626 280.226,65.626 294.226,65.626 294.226,64.626 295.026,64.626 295.026,61.526 294.226,61.526 294.226,55.726 295.026,55.726 295.026,52.626 294.226,52.626 294.226,51.626" style="fill:none;stroke-width:0.050000mm;stroke:black"/>
<polygon points="13.525,32.576 13.525,33.576 12.725,33.576 12.725,36.676 13.525,36.676 13.525,42.476 12.725,42.476 12.725,45.576 13.525,45.576 13.525,46.576 27.526,46.576 27.526,45.576 28.326,45.576 28.326,42.476 27.526,42.476 27.526,36.676 28.326,36.676 28.326,33.576 27.526,33.576 27.526,32.576" style="fill:none;stroke-width:0.050000mm;stroke:black"/>
<polygon points="32.576,32.576 32.576,33.576 31.776,33.576 31.776,36.676 32.576,36.676 32.576,42.476 31.776,42.476 31.776,45.576 32.576,45.576 32.576,46.576 46.576,46.576 46.576,45.576 47.376,45.576 47.376,42.476 46.576,42.476 46.576,36.676 47.376,36.676 47.376,33.576 46.576,33.576 46.576,32.576" style="fill:none;stroke-width:0.050000mm;stroke:black"/>
<polygon points="51.626,32.576 51.626,33.576 50.826,33.576 50.826,36.676 51.626,36.676 51.626,42.476 50.826,42.476 50.826,45.576 51.626,45.576 51.626,46.576 65.626,46.576 65.626,45.576 66.426,45.576 66.426,42.476 65.626,42.476 65.626,36.676 66.426,36.676 66.426,33.576 65.626,33.576 65.626,32.576" style="fill:none;stroke-width:0.050000mm;stroke:black"/>
<polygon points="70.676,32.576 70.676,33.576 69.876,33.576 69.876,36.676 70.676,36.676 70.676,42.476 69.876,42.476 69.876,45.576 70.676,45.576 70.676,46.576 84.676,46.576 84.676,45.576 85.476,45.576 85.476,42.476 84.676,42.476 84.676,36.676 85.476,36.676 85.476,33.576 84.676,33.576 84.676,32.576" style="fill:none;stroke-width:0.050000mm;stroke:black"/>
<polygon points="89.726,32.576 89.726,33.576 88.926,33.576 88.926,36.676 89.726,36.676 89.726,42.476 88.926,42.476 88.926,45.576 89.726,45.576 89.726,46.576 103.726,46.576 103.726,45.576 104.525,45.576 104.525,42.476 103.726,42.476 103.726,36.676 104.525,36.676 104.525,33.576 103.726,33.576 103.726,32.576" style="fill:none;stroke-width:0.050000mm;stroke:black"/>
<polygon points="108.775,32.576 108.775,33.576 107.976,33.576 107.976,36.676 108.775,36.676 108.775,42.476 107.976,42.476 107.976,45.576 108.775,45.576 108.775,46.576 122.775,46.576 122.775,45.576 123.575,45.576 123.575,42.476 122.775,42.476 122.775,36.676 123.575,36.676 123.575,33.576 122.775,33.576 122.775,32.576" style="fill:none;stroke-width:0.050000mm;stroke:black"/>
<polygon points="127.825,32.576 127.825,33.576 127.025,33.576 127.025,36.676 127.825,36.676 127.825,42.476 127.025,42.476 127.025,45.576 127.825,45.576 127.825,46.576 141.826,46.576 141.826,45.576 142.626,45.576 142.626,42.476 141.826,42.476 141.826,36.676 142.626,36.676 142.626,33.576 141.826,33.576 141.826,32.576" style="fill:none;stroke-width:0.050000mm;stroke:black"/>
<polygon points="146.876,32.576 146.876,33.576 146.076,33.576 146.076,36.676 146.876,36.676 146.876,42.476 146.076,42.476 146.076,45.576 146.876,45.576 146.876,46.576 160.876,46.576 160.876,45.576 161.676,45.576 161.676,42.476 160.876,42.476 160.876,36.676 161.676,36.676 161.676,33.576 160.876,33.576 160.876,32.576" style="fill:none;stroke-width:0.050000mm;stroke:black"/>
<polygon points="165.926,32.576 165.926,33.576 165.126,33.576 165.126,36.676 165.926,36.676 165.926,42.476 165.126,42.476 165.126,45.576 165.926,45.576 165.926,46.576 179.926,46.576 179.926,45.576 180.726,45.576 180.726,42.476 179.926,42.476 179.926,36.676 180.726,36.676 180.726,33.576 179.926,33.576 179.926,32.576" style="fill:none;stroke-width:0.050000mm;stroke:black"/>
<polygon points="184.976,32.576 184.976,33.576 184.176,33.576 184.176,36.676 184.976,36.676 184.976,42.476 184.176,42.476 184.176,45.576 184.976,45.576 184.976,46.576 198.976,46.576 198.976,45.576 199.776,45.576 199.776,42.476 198.976,42.476 198.976,36.676 199.776,36.676 199.776,33.576 198.976,33.576 198.976,32.576" style="fill:none;stroke-width:0.050000mm;stroke:black"/>
<polygon points="204.026,32.576 204.026,33.576 203.226,33.576 203.226,36.676 204.026,36.676 204.026,42.476 203.226,42.476 203.226,45.576 204.026,45.576 204.026,46.576 218.026,46.576 218.026,45.576 218.826,45.576 218.826,42.476 218.026,42.476 218.026,36.676 218.826,36.676 218.826,33.576 218.026,33.576 218.026,32.576" style="fill:none;stroke-width:0.050000mm;stroke:black"/>
<polygon points="223.076,32.576 223.076,33.576 222.276,33.576 222.276,36.676 223.076,36.676 223.076,42.476 222.276,42.476 222.276,45.576 223.076,45.576 223.076,46.576 237.076,46.576 237.076,45.576 237.876,45.576 237.876,42.476 237.076,42.476 237.076,36.676 237.876,36.676 237.876,33.576 237.076,33.576 237.076,32.576" style="fill:none;stroke-width:0.050000mm;stroke:black"/>
<polygon points="242.126,32.576 242.126,33.576 241.326,33.576 241.326,36.676 242.126,36.676 242.126,42.476 241.326,42.476 241.326,45.576 242.126,45.576 242.126,46.576 256.126,46.576 256.126,45.576 256.926,45.576 256.926,42.476 256.126,42.476 256.126,36.676 256.926,36.676 256.926,33.576 256.126,33.576 256.126,32.576" style="fill:none;stroke-width:0.050000mm;stroke:black"/>
<polygon points="261.176,32.576 261.176,33.576 260.376,33.576 260.376,36.676 261.176,36.676 261.176,42.476 260.376,42.476 260.376,45.576 261.176,45.576 261.176,46.576 275.176,46.576 275.176,45.576 275.976,45.576 275.976,42.476 275.176,42.476 275.176,36.676 275.976,36.676 275.976,33.576 275.176,33.576 275.176,32.576" style="fill:none;stroke-width:0.050000mm;stroke:black"/>
<polygon points="280.226,32.576 280.226,33.576 279.426,33.576 279.426,36.676 280.226,36.676 280.226,42.476 279.426,42.476 279.426,45.576 280.226,45.576 280.226,46.576 294.226,46.576 294.226,45.576 295.026,45.576 295.026,42.476 294.226,42.476 294.226,36.676 295.026,36.676 295.026,33.576 294.226,33.576 294.226,32.576" style="fill:none;stroke-width:0.050000mm;stroke:black"/>
<polygon points="13.525,13.525 13.525,14.525 12.725,14.525 12.725,17.626 13.525,17.626 13.525,23.425 12.725,23.425 12.725,26.526 13.525,26.526 13.525,27.526 27.526,27.526 27.526,26.526 28.326,26.526 28.326,23.425 27.526,23.425 27.526,17.626 28.326,17.626 28.326,14.525 27.526,14.525 27.526,13.525" style="fill:none;stroke-width:0.050000mm;stroke:black"/>
<polygon points="32.576,13.525 32.576,14.525 31.776,14.525 31.776,17.626 32.576,17.626 32.576,23.425 31.776,23.425 31.776,26.526 32.576,26.526 32.576,27.526 46.576,27.526 46.576,26.526 47.376,26.526 47.376,23.425 46.576,23.425 46.576,17.626 47.376,17.626 47.376,14.525 46.576,14.525 46.576,13.525" style="fill:none;stroke-width:0.050000mm;stroke:black"/>
<polygon points="51.626,13.525 51.626,14.525 50.826,14.525 50.826,17.626 51.626,17.626 51.626,23.425 50.826,23.425 50.826,26.526 51.626,26.526 51.626,27.526 65.626,27.526 65.626,26.526 66.426,26.526 66.426,23.425 65.626,23.425 65.626,17.626 66.426,17.626 66.426,14.525 65.626,14.525 65.626,13.525" style="fill:none;stroke-width:0.050000mm;stroke:black"/>
<polygon points="70.676,13.525 70.676,14.525 69.876,14.525 69.876,17.626 70.676,17.626 70.676,23.425 69.876,23.425 69.876,26.526 70.676,26.526 70.676,27.526 84.676,27.526 84.676,26.526 85.476,26.526 85.476,23.425 84.676,23.425 84.676,17.626 85.476,17.626 85.476,14.525 84.676,14.525 84.676,13.525" style="fill:none;stroke-width:0.050000mm;stroke:black"/>
<polygon points="89.726,13.525 89.726,14.525 88.926,14.525 88.926,17.626 89.726,17.626 89.726,23.425 88.926,23.425 88.926,26.526 89.726,26.526 89.726,27.526 103.726,27.526 103.726,26.526 104.525,26.526 104.525,23.425 103.726,23.425 103.726,17.626 104.525,17.626 104.525,14.525 103.726,14.525 103.726,13.525" style="fill:none;stroke-width:0.050000mm;stroke:black"/>
<polygon points="108.775,13.525 108.775,14.525 107.976,14.525 107.976,17.626 108.775,17.626 108.775,23.425 107.976,23.425 107.976,26.526 108.775,26.526 108.775,27.526 122.775,27.526 122.775,26.526 123.575,26.526 123.575,23.425 122.775,23.425 122.775,17.626 123.575,17.626 123.575,14.525 122.775,14.525 122.775,13.525" style="fill:none;stroke-width:0.050000mm;stroke:black"/>
<polygon points="127.825,13.525 127.825,14.525 127.025,14.525 127.025,17.626 127.825,17.626 127.825,23.425 127.025,23.425 127.025,26.526 127.825,26.526 127.825,27.526 141.826,27.526 141.826,26.526 142.626,26.526 142.626,23.425 141.826,23.425 141.826,17.626 142.626,17.626 142.626,14.525 141.826,14.525 141.826,13.525" style="fill:none;stroke-width:0.050000mm;stroke:black"/>
<polygon points="146.876,13.525 146.876,14.525 146.076,14.525 146.076,17.626 146.876,17.626 146.876,23.425 146.076,23.425 146.076,26.526 146.876,26.526 146.876,27.526 160.876,27.526 160.876,26.526 161.676,26.526 161.676,23.425 160.876,23.425 160.876,17.626 161.676,17.626 161.676,14.525 160.876,14.525 160.876,13.525" style="fill:none;stroke-width:0.050000mm;stroke:black"/>
<polygon points="165.926,13.525 165.926,14.525 165.126,14.525 165.126,17.626 165.926,17.626 165.926,23.425 165.126,23.425 165.126,26.526 165.926,26.526 165.926,27.526 179.926,27.526 179.926,26.526 180.726,26.526 180.726,23.425 179.926,23.425 179.926,17.626 180.726,17.626 180.726,14.525 179.926,14.525 179.926,13.525" style="fill:none;stroke-width:0.050000mm;stroke:black"/>
<polygon points="184.976,13.525 184.976,14.525 184.176,14.525 184.176,17.626 184.976,17.626 184.976,23.425 184.176,23.425 184.176,26.526 184.976,26.526 184.976,27.526 198.976,27.526 198.976,26.526 199.776,26.526 199.776,23.425 198.976,23.425 198.976,17.626 199.776,17.626 199.776,14.525 198.976,14.525 198.976,13.525" style="fill:none;stroke-width:0.050000mm;stroke:black"/>
<polygon points="204.026,13.525 204.026,14.525 203.226,14.525 203.226,17.626 204.026,17.626 204.026,23.425 203.226,23.425 203.226,26.526 204.026,26.526 204.026,27.526 218.026,27.526 218.026,26.526 218.826,26.526 218.826,23.425 218.026,23.425 218.026,17.626 218.826,17.626 218.826,14.525 218.026,14.525 218.026,13.525" style="fill:none;stroke-width:0.050000mm;stroke:black"/>
<polygon points="223.076,13.525 223.076,14.525 222.276,14.525 222.276,17.626 223.076,17.626 223.076,23.425 222.276,23.425 222.276,26.526 223.076,26.526 223.076,27.526 237.076,27.526 237.076,26.526 237.876,26.526 237.876,23.425 237.076,23.425 237.076,17.626 237.876,17.626 237.876,14.525 237.076,14.525 237.076,13.525" style="fill:none;stroke-width:0.050000mm;stroke:black"/>
<polygon points="242.126,13.525 242.126,14.525 241.326,14.525 241.326,17.626 242.126,17.626 242.126,23.425 241.326,23.425 241.326,26.526 242.126,26.526 242.126,27.526 256.126,27.526 256.126,26.526 256.926,26.526 256.926,23.425 256.126,23.425 256.126,17.626 256.926,17.626 256.926,14.525 256.126,14.525 256.126,13.525" style="fill:none;stroke-width:0.050000mm;stroke:black"/>
<polygon points="261.176,13.525 261.176,14.525 260.376,14.525 260.376,17.626 261.176,17.626 261.176,23.425 260.376,23.425 260.376,26.526 261.176,26.526 261.176,27.526 275.176,27.526 275.176,26.526 275.976,26.526 275.976,23.425 275.176,23.425 275.176,17.626 275.976,17.626 275.976,14.525 275.176,14.525 275.176,13.525" style="fill:none;stroke-width:0.050000mm;stroke:black"/>
<polygon points="280.226,13.525 280.226,14.525 279.426,14.525 279.426,17.626 280.226,17.626 280.226,23.425 279.426,23.425 279.426,26.526 280.226,26.526 280.226,27.526 294.226,27.526 294.226,26.526 295.026,26.526 295.026,23.425 294.226,23.425 294.226,17.626 295.026,17.626 295.026,14.525 294.226,14.525 294.226,13.525" style="fill:none;stroke-width:0.050000mm;stroke:black"/>
</svg>