<?xml version="1.0"?>
<!DOCTYPE svg PUBLIC "-//W3C//DTD SVG 1.1//EN" "http://www.w3.org/Graphics/SVG/1.1/DTD/svg11.dtd">
<svg width="280.96104mm" height="97.71104mm" viewBox="0 0 280.96104 97.71104" xmlns="http://www.w3.org/2000/svg" version="1.1">
<g id="Polyline" transform="translate(-2.245480,-2.245480) scale(1,-1)">
<path id="Polyline_w0000"  d="M 275.452 -5.001 L 275.844 -5.016 L 276.234 -5.062 L 276.619 -5.139 L 276.997 -5.245 L 277.365 -5.381 L 277.721 -5.545 L 278.064 -5.737 L 278.39 -5.955 L 278.699 -6.198 L 278.987 -6.465 L 279.254 -6.753 L 279.497 -7.062 L 279.715 -7.388 L 279.907 -7.731 L 280.071 -8.087 L 280.207 -8.455 L 280.313 -8.833 L 280.39 -9.218 L 280.436 -9.608 L 280.451 -10.001 L 280.452 -92.202 L 280.436 -92.594 L 280.39 -92.984 L 280.313 -93.369 L 280.207 -93.747 L 280.071 -94.115 L 279.907 -94.471 L 279.715 -94.814 L 279.497 -95.14 L 279.254 -95.449 L 278.987 -95.737 L 278.699 -96.004 L 278.39 -96.247 L 278.064 -96.465 L 277.721 -96.657 L 277.365 -96.821 L 276.997 -96.957 L 276.619 -97.063 L 276.234 -97.14 L 275.844 -97.186 L 275.452 -97.202 L 10.000999999999976 -97.202 L 9.608 -97.186 L 9.218 -97.14 L 8.833 -97.063 L 8.455 -96.957 L 8.087 -96.821 L 7.731 -96.657 L 7.388 -96.465 L 7.062 -96.247 L 6.753 -96.004 L 6.465 -95.737 L 6.198 -95.449 L 5.955 -95.14 L 5.737 -94.814 L 5.545 -94.471 L 5.381 -94.115 L 5.245 -93.747 L 5.139 -93.369 L 5.062 -92.984 L 5.016 -92.594 L 5.0 -92.201 L 5.001 -10.001000000000005 L 5.016 -9.608 L 5.062 -9.218 L 5.139 -8.833 L 5.245 -8.455 L 5.381 -8.087 L 5.545 -7.731 L 5.737 -7.388 L 5.955 -7.062 L 6.198 -6.753 L 6.465 -6.465 L 6.753 -6.198 L 7.062 -5.955 L 7.388 -5.737 L 7.731 -5.545 L 8.087 -5.381 L 8.455 -5.245 L 8.833 -5.139 L 9.218 -5.062 L 9.608 -5.016 L 10.001 -5.0 L 275.452 -5.001 " stroke="#191919" stroke-width="0.35 px" style="stroke-width:0.35;stroke-miterlimit:4;stroke-dasharray:none;stroke-linecap:square;fill:none;fill-opacity:1;fill-rule: evenodd"/>
<title>b'Polyline'</title>
</g>
<g id="Polyline001" transform="translate(-2.245480,-2.245480) scale(1,-1)">
<path id="Polyline001_w0000"  d="M 15.525 -72.676 L 15.525 -73.676 L 14.725 -73.676 L 14.725 -76.775 L 15.525 -76.775 L 15.525 -82.576 L 14.725 -82.576 L 14.725 -85.676 L 15.525 -85.676 L 15.525 -86.676 L 29.526 -86.676 L 29.526 -85.676 L 30.326 -85.676 L 30.326 -82.576 L 29.526 -82.576 L 29.526 -76.775 L 30.326 -76.775 L 30.326 -73.676 L 29.526 -73.676 L 29.526 -72.676 L 15.525 -72.676 " stroke="#191919" stroke-width="0.35 px" style="stroke-width:0.35;stroke-miterlimit:4;stroke-dasharray:none;stroke-linecap:square;fill:none;fill-opacity:1;fill-rule: evenodd"/>
<title>b'Polyline001'</title>
</g>
<g id="Polyline002" transform="translate(-2.245480,-2.245480) scale(1,-1)">
<path id="Polyline002_w0000"  d="M 34.576 -72.676 L 34.576 -73.676 L 33.776 -73.676 L 33.776 -76.775 L 34.576 -76.775 L 34.576 -82.576 L 33.776 -82.576 L 33.776 -85.676 L 34.576 -85.676 L 34.576 -86.676 L 48.576 -86.676 L 48.576 -85.676 L 49.376 -85.676 L 49.376 -82.576 L 48.576 -82.576 L 48.576 -76.775 L 49.376 -76.775 L 49.376 -73.676 L 48.576 -73.676 L 48.576 -72.676 L 34.576 -72.676 " stroke="#191919" stroke-width="0.35 px" style="stroke-width:0.35;stroke-miterlimit:4;stroke-dasharray:none;stroke-linecap:square;fill:none;fill-opacity:1;fill-rule: evenodd"/>
<title>b'Polyline002'</title>
</g>
<g id="Polyline003" transform="translate(-2.245480,-2.245480) scale(1,-1)">
<path id="Polyline003_w0000"  d="M 53.626 -72.676 L 53.626 -73.676 L 52.826 -73.676 L 52.826 -76.775 L 53.626 -76.775 L 53.626 -82.576 L 52.826 -82.576 L 52.826 -85.676 L 53.626 -85.676 L 53.626 -86.676 L 67.626 -86.676 L 67.626 -85.676 L 68.426 -85.676 L 68.426 -82.576 L 67.626 -82.576 L 67.626 -76.775 L 68.426 -76.775 L 68.426 -73.676 L 67.626 -73.676 L 67.626 -72.676 L 53.626 -72.676 " stroke="#191919" stroke-width="0.35 px" style="stroke-width:0.35;stroke-miterlimit:4;stroke-dasharray:none;stroke-linecap:square;fill:none;fill-opacity:1;fill-rule: evenodd"/>
<title>b'Polyline003'</title>
</g>
<g id="Polyline004" transform="translate(-2.245480,-2.245480) scale(1,-1)">
<path id="Polyline004_w0000"  d="M 72.676 -72.676 L 72.676 -73.676 L 71.876 -73.676 L 71.876 -76.775 L 72.676 -76.775 L 72.676 -82.576 L 71.876 -82.576 L 71.876 -85.676 L 72.676 -85.676 L 72.676 -86.676 L 86.676 -86.676 L 86.676 -85.676 L 87.476 -85.676 L 87.476 -82.576 L 86.676 -82.576 L 86.676 -76.775 L 87.476 -76.775 L 87.476 -73.676 L 86.676 -73.676 L 86.676 -72.676 L 72.676 -72.676 " stroke="#191919" stroke-width="0.35 px" style="stroke-width:0.35;stroke-miterlimit:4;stroke-dasharray:none;stroke-linecap:square;fill:none;fill-opacity:1;fill-rule: evenodd"/>
<title>b'Polyline004'</title>
</g>
<g id="Polyline005" transform="translate(-2.245480,-2.245480) scale(1,-1)">
<path id="Polyline005_w0000"  d="M 91.726 -72.676 L 91.726 -73.676 L 90.926 -73.676 L 90.926 -76.775 L 91.726 -76.775 L 91.726 -82.576 L 90.926 -82.576 L 90.926 -85.676 L 91.726 -85.676 L 91.726 -86.676 L 105.726 -86.676 L 105.726 -85.676 L 106.525 -85.676 L 106.525 -82.576 L 105.726 -82.576 L 105.726 -76.775 L 106.525 -76.775 L 106.525 -73.676 L 105.726 -73.676 L 105.726 -72.676 L 91.726 -72.676 " stroke="#191919" stroke-width="0.35 px" style="stroke-width:0.35;stroke-miterlimit:4;stroke-dasharray:none;stroke-linecap:square;fill:none;fill-opacity:1;fill-rule: evenodd"/>
<title>b'Polyline005'</title>
</g>
<g id="Polyline006" transform="translate(-2.245480,-2.245480) scale(1,-1)">
<path id="Polyline006_w0000"  d="M 110.775 -72.676 L 110.775 -73.676 L 109.976 -73.676 L 109.976 -76.775 L 110.775 -76.775 L 110.775 -82.576 L 109.976 -82.576 L 109.976 -85.676 L 110.775 -85.676 L 110.775 -86.676 L 124.775 -86.676 L 124.775 -85.676 L 125.575 -85.676 L 125.575 -82.576 L 124.775 -82.576 L 124.775 -76.775 L 125.575 -76.775 L 125.575 -73.676 L 124.775 -73.676 L 124.775 -72.676 L 110.775 -72.676 " stroke="#191919" stroke-width="0.35 px" style="stroke-width:0.35;stroke-miterlimit:4;stroke-dasharray:none;stroke-linecap:square;fill:none;fill-opacity:1;fill-rule: evenodd"/>
<title>b'Polyline006'</title>
</g>
<g id="Polyline007" transform="translate(-2.245480,-2.245480) scale(1,-1)">
<path id="Polyline007_w0000"  d="M 129.825 -72.676 L 129.825 -73.676 L 129.025 -73.676 L 129.025 -76.775 L 129.825 -76.775 L 129.825 -82.576 L 129.025 -82.576 L 129.025 -85.676 L 129.825 -85.676 L 129.825 -86.676 L 143.826 -86.676 L 143.826 -85.676 L 144.626 -85.676 L 144.626 -82.576 L 143.826 -82.576 L 143.826 -76.775 L 144.626 -76.775 L 144.626 -73.676 L 143.826 -73.676 L 143.826 -72.676 L 129.825 -72.676 " stroke="#191919" stroke-width="0.35 px" style="stroke-width:0.35;stroke-miterlimit:4;stroke-dasharray:none;stroke-linecap:square;fill:none;fill-opacity:1;fill-rule: evenodd"/>
<title>b'Polyline007'</title>
</g>
<g id="Polyline008" transform="translate(-2.245480,-2.245480) scale(1,-1)">
<path id="Polyline008_w0000"  d="M 148.876 -72.676 L 148.876 -73.676 L 148.076 -73.676 L 148.076 -76.775 L 148.876 -76.775 L 148.876 -82.576 L 148.076 -82.576 L 148.076 -85.676 L 148.876 -85.676 L 148.876 -86.676 L 162.876 -86.676 L 162.876 -85.676 L 163.676 -85.676 L 163.676 -82.576 L 162.876 -82.576 L 162.876 -76.775 L 163.676 -76.775 L 163.676 -73.676 L 162.876 -73.676 L 162.876 -72.676 L 148.876 -72.676 " stroke="#191919" stroke-width="0.35 px" style="stroke-width:0.35;stroke-miterlimit:4;stroke-dasharray:none;stroke-linecap:square;fill:none;fill-opacity:1;fill-rule: evenodd"/>
<title>b'Polyline008'</title>
</g>
<g id="Polyline009" transform="translate(-2.245480,-2.245480) scale(1,-1)">
<path id="Polyline009_w0000"  d="M 167.926 -72.676 L 167.926 -73.676 L 167.126 -73.676 L 167.126 -76.775 L 167.926 -76.775 L 167.926 -82.576 L 167.126 -82.576 L 167.126 -85.676 L 167.926 -85.676 L 167.926 -86.676 L 181.926 -86.676 L 181.926 -85.676 L 182.726 -85.676 L 182.726 -82.576 L 181.926 -82.576 L 181.926 -76.775 L 182.726 -76.775 L 182.726 -73.676 L 181.926 -73.676 L 181.926 -72.676 L 167.926 -72.676 " stroke="#191919" stroke-width="0.35 px" style="stroke-width:0.35;stroke-miterlimit:4;stroke-dasharray:none;stroke-linecap:square;fill:none;fill-opacity:1;fill-rule: evenodd"/>
<title>b'Polyline009'</title>
</g>
<g id="Polyline010" transform="translate(-2.245480,-2.245480) scale(1,-1)">
<path id="Polyline010_w0000"  d="M 15.525 -53.626 L 15.525 -54.626 L 14.725 -54.626 L 14.725 -57.726 L 15.525 -57.726 L 15.525 -63.526 L 14.725 -63.526 L 14.725 -66.626 L 15.525 -66.626 L 15.525 -67.626 L 29.526 -67.626 L 29.526 -66.626 L 30.326 -66.626 L 30.326 -63.526 L 29.526 -63.526 L 29.526 -57.726 L 30.326 -57.726 L 30.326 -54.626 L 29.526 -54.626 L 29.526 -53.626 L 15.525 -53.626 " stroke="#191919" stroke-width="0.35 px" style="stroke-width:0.35;stroke-miterlimit:4;stroke-dasharray:none;stroke-linecap:square;fill:none;fill-opacity:1;fill-rule: evenodd"/>
<title>b'Polyline010'</title>
</g>
<g id="Polyline011" transform="translate(-2.245480,-2.245480) scale(1,-1)">
<path id="Polyline011_w0000"  d="M 34.576 -53.626 L 34.576 -54.626 L 33.776 -54.626 L 33.776 -57.726 L 34.576 -57.726 L 34.576 -63.526 L 33.776 -63.526 L 33.776 -66.626 L 34.576 -66.626 L 34.576 -67.626 L 48.576 -67.626 L 48.576 -66.626 L 49.376 -66.626 L 49.376 -63.526 L 48.576 -63.526 L 48.576 -57.726 L 49.376 -57.726 L 49.376 -54.626 L 48.576 -54.626 L 48.576 -53.626 L 34.576 -53.626 " stroke="#191919" stroke-width="0.35 px" style="stroke-width:0.35;stroke-miterlimit:4;stroke-dasharray:none;stroke-linecap:square;fill:none;fill-opacity:1;fill-rule: evenodd"/>
<title>b'Polyline011'</title>
</g>
<g id="Polyline012" transform="translate(-2.245480,-2.245480) scale(1,-1)">
<path id="Polyline012_w0000"  d="M 53.626 -53.626 L 53.626 -54.626 L 52.826 -54.626 L 52.826 -57.726 L 53.626 -57.726 L 53.626 -63.526 L 52.826 -63.526 L 52.826 -66.626 L 53.626 -66.626 L 53.626 -67.626 L 67.626 -67.626 L 67.626 -66.626 L 68.426 -66.626 L 68.426 -63.526 L 67.626 -63.526 L 67.626 -57.726 L 68.426 -57.726 L 68.426 -54.626 L 67.626 -54.626 L 67.626 -53.626 L 53.626 -53.626 " stroke="#191919" stroke-width="0.35 px" style="stroke-width:0.35;stroke-miterlimit:4;stroke-dasharray:none;stroke-linecap:square;fill:none;fill-opacity:1;fill-rule: evenodd"/>
<title>b'Polyline012'</title>
</g>
<g id="Polyline013" transform="translate(-2.245480,-2.245480) scale(1,-1)">
<path id="Polyline013_w0000"  d="M 72.676 -53.626 L 72.676 -54.626 L 71.876 -54.626 L 71.876 -57.726 L 72.676 -57.726 L 72.676 -63.526 L 71.876 -63.526 L 71.876 -66.626 L 72.676 -66.626 L 72.676 -67.626 L 86.676 -67.626 L 86.676 -66.626 L 87.476 -66.626 L 87.476 -63.526 L 86.676 -63.526 L 86.676 -57.726 L 87.476 -57.726 L 87.476 -54.626 L 86.676 -54.626 L 86.676 -53.626 L 72.676 -53.626 " stroke="#191919" stroke-width="0.35 px" style="stroke-width:0.35;stroke-miterlimit:4;stroke-dasharray:none;stroke-linecap:square;fill:none;fill-opacity:1;fill-rule: evenodd"/>
<title>b'Polyline013'</title>
</g>
<g id="Polyline014" transform="translate(-2.245480,-2.245480) scale(1,-1)">
<path id="Polyline014_w0000"  d="M 91.726 -53.626 L 91.726 -54.626 L 90.926 -54.626 L 90.926 -57.726 L 91.726 -57.726 L 91.726 -63.526 L 90.926 -63.526 L 90.926 -66.626 L 91.726 -66.626 L 91.726 -67.626 L 105.726 -67.626 L 105.726 -66.626 L 106.525 -66.626 L 106.525 -63.526 L 105.726 -63.526 L 105.726 -57.726 L 106.525 -57.726 L 106.525 -54.626 L 105.726 -54.626 L 105.726 -53.626 L 91.726 -53.626 " stroke="#191919" stroke-width="0.35 px" style="stroke-width:0.35;stroke-miterlimit:4;stroke-dasharray:none;stroke-linecap:square;fill:none;fill-opacity:1;fill-rule: evenodd"/>
<title>b'Polyline014'</title>
</g>
<g id="Polyline015" transform="translate(-2.245480,-2.245480) scale(1,-1)">
<path id="Polyline015_w0000"  d="M 110.775 -53.626 L 110.775 -54.626 L 109.976 -54.626 L 109.976 -57.726 L 110.775 -57.726 L 110.775 -63.526 L 109.976 -63.526 L 109.976 -66.626 L 110.775 -66.626 L 110.775 -67.626 L 124.775 -67.626 L 124.775 -66.626 L 125.575 -66.626 L 125.575 -63.526 L 124.775 -63.526 L 124.775 -57.726 L 125.575 -57.726 L 125.575 -54.626 L 124.775 -54.626 L 124.775 -53.626 L 110.775 -53.626 " stroke="#191919" stroke-width="0.35 px" style="stroke-width:0.35;stroke-miterlimit:4;stroke-dasharray:none;stroke-linecap:square;fill:none;fill-opacity:1;fill-rule: evenodd"/>
<title>b'Polyline015'</title>
</g>
<g id="Polyline016" transform="translate(-2.245480,-2.245480) scale(1,-1)">
<path id="Polyline016_w0000"  d="M 129.825 -53.626 L 129.825 -54.626 L 129.025 -54.626 L 129.025 -57.726 L 129.825 -57.726 L 129.825 -63.526 L 129.025 -63.526 L 129.025 -66.626 L 129.825 -66.626 L 129.825 -67.626 L 143.826 -67.626 L 143.826 -66.626 L 144.626 -66.626 L 144.626 -63.526 L 143.826 -63.526 L 143.826 -57.726 L 144.626 -57.726 L 144.626 -54.626 L 143.826 -54.626 L 143.826 -53.626 L 129.825 -53.626 " stroke="#191919" stroke-width="0.35 px" style="stroke-width:0.35;stroke-miterlimit:4;stroke-dasharray:none;stroke-linecap:square;fill:none;fill-opacity:1;fill-rule: evenodd"/>
<title>b'Polyline016'</title>
</g>
<g id="Polyline017" transform="translate(-2.245480,-2.245480) scale(1,-1)">
<path id="Polyline017_w0000"  d="M 148.876 -53.626 L 148.876 -54.626 L 148.076 -54.626 L 148.076 -57.726 L 148.876 -57.726 L 148.876 -63.526 L 148.076 -63.526 L 148.076 -66.626 L 148.876 -66.626 L 148.876 -67.626 L 162.876 -67.626 L 162.876 -66.626 L 163.676 -66.626 L 163.676 -63.526 L 162.876 -63.526 L 162.876 -57.726 L 163.676 -57.726 L 163.676 -54.626 L 162.876 -54.626 L 162.876 -53.626 L 148.876 -53.626 " stroke="#191919" stroke-width="0.35 px" style="stroke-width:0.35;stroke-miterlimit:4;stroke-dasharray:none;stroke-linecap:square;fill:none;fill-opacity:1;fill-rule: evenodd"/>
<title>b'Polyline017'</title>
</g>
<g id="Polyline018" transform="translate(-2.245480,-2.245480) scale(1,-1)">
<path id="Polyline018_w0000"  d="M 167.926 -53.626 L 167.926 -54.626 L 167.126 -54.626 L 167.126 -57.726 L 167.926 -57.726 L 167.926 -63.526 L 167.126 -63.526 L 167.126 -66.626 L 167.926 -66.626 L 167.926 -67.626 L 181.926 -67.626 L 181.926 -66.626 L 182.726 -66.626 L 182.726 -63.526 L 181.926 -63.526 L 181.926 -57.726 L 182.726 -57.726 L 182.726 -54.626 L 181.926 -54.626 L 181.926 -53.626 L 167.926 -53.626 " stroke="#191919" stroke-width="0.35 px" style="stroke-width:0.35;stroke-miterlimit:4;stroke-dasharray:none;stroke-linecap:square;fill:none;fill-opacity:1;fill-rule: evenodd"/>
<title>b'Polyline018'</title>
</g>
<g id="Polyline019" transform="translate(-2.245480,-2.245480) scale(1,-1)">
<path id="Polyline019_w0000"  d="M 15.525 -34.576 L 15.525 -35.576 L 14.725 -35.576 L 14.725 -38.676 L 15.525 -38.676 L 15.525 -44.476 L 14.725 -44.476 L 14.725 -47.576 L 15.525 -47.576 L 15.525 -48.576 L 29.526 -48.576 L 29.526 -47.576 L 30.326 -47.576 L 30.326 -44.476 L 29.526 -44.476 L 29.526 -38.676 L 30.326 -38.676 L 30.326 -35.576 L 29.526 -35.576 L 29.526 -34.576 L 15.525 -34.576 " stroke="#191919" stroke-width="0.35 px" style="stroke-width:0.35;stroke-miterlimit:4;stroke-dasharray:none;stroke-linecap:square;fill:none;fill-opacity:1;fill-rule: evenodd"/>
<title>b'Polyline019'</title>
</g>
<g id="Polyline020" transform="translate(-2.245480,-2.245480) scale(1,-1)">
<path id="Polyline020_w0000"  d="M 34.576 -34.576 L 34.576 -35.576 L 33.776 -35.576 L 33.776 -38.676 L 34.576 -38.676 L 34.576 -44.476 L 33.776 -44.476 L 33.776 -47.576 L 34.576 -47.576 L 34.576 -48.576 L 48.576 -48.576 L 48.576 -47.576 L 49.376 -47.576 L 49.376 -44.476 L 48.576 -44.476 L 48.576 -38.676 L 49.376 -38.676 L 49.376 -35.576 L 48.576 -35.576 L 48.576 -34.576 L 34.576 -34.576 " stroke="#191919" stroke-width="0.35 px" style="stroke-width:0.35;stroke-miterlimit:4;stroke-dasharray:none;stroke-linecap:square;fill:none;fill-opacity:1;fill-rule: evenodd"/>
<title>b'Polyline020'</title>
</g>
<g id="Polyline021" transform="translate(-2.245480,-2.245480) scale(1,-1)">
<path id="Polyline021_w0000"  d="M 53.626 -34.576 L 53.626 -35.576 L 52.826 -35.576 L 52.826 -38.676 L 53.626 -38.676 L 53.626 -44.476 L 52.826 -44.476 L 52.826 -47.576 L 53.626 -47.576 L 53.626 -48.576 L 67.626 -48.576 L 67.626 -47.576 L 68.426 -47.576 L 68.426 -44.476 L 67.626 -44.476 L 67.626 -38.676 L 68.426 -38.676 L 68.426 -35.576 L 67.626 -35.576 L 67.626 -34.576 L 53.626 -34.576 " stroke="#191919" stroke-width="0.35 px" style="stroke-width:0.35;stroke-miterlimit:4;stroke-dasharray:none;stroke-linecap:square;fill:none;fill-opacity:1;fill-rule: evenodd"/>
<title>b'Polyline021'</title>
</g>
<g id="Polyline022" transform="translate(-2.245480,-2.245480) scale(1,-1)">
<path id="Polyline022_w0000"  d="M 72.676 -34.576 L 72.676 -35.576 L 71.876 -35.576 L 71.876 -38.676 L 72.676 -38.676 L 72.676 -44.476 L 71.876 -44.476 L 71.876 -47.576 L 72.676 -47.576 L 72.676 -48.576 L 86.676 -48.576 L 86.676 -47.576 L 87.476 -47.576 L 87.476 -44.476 L 86.676 -44.476 L 86.676 -38.676 L 87.476 -38.676 L 87.476 -35.576 L 86.676 -35.576 L 86.676 -34.576 L 72.676 -34.576 " stroke="#191919" stroke-width="0.35 px" style="stroke-width:0.35;stroke-miterlimit:4;stroke-dasharray:none;stroke-linecap:square;fill:none;fill-opacity:1;fill-rule: evenodd"/>
<title>b'Polyline022'</title>
</g>
<g id="Polyline023" transform="translate(-2.245480,-2.245480) scale(1,-1)">
<path id="Polyline023_w0000"  d="M 91.726 -34.576 L 91.726 -35.576 L 90.926 -35.576 L 90.926 -38.676 L 91.726 -38.676 L 91.726 -44.476 L 90.926 -44.476 L 90.926 -47.576 L 91.726 -47.576 L 91.726 -48.576 L 105.726 -48.576 L 105.726 -47.576 L 106.525 -47.576 L 106.525 -44.476 L 105.726 -44.476 L 105.726 -38.676 L 106.525 -38.676 L 106.525 -35.576 L 105.726 -35.576 L 105.726 -34.576 L 91.726 -34.576 " stroke="#191919" stroke-width="0.35 px" style="stroke-width:0.35;stroke-miterlimit:4;stroke-dasharray:none;stroke-linecap:square;fill:none;fill-opacity:1;fill-rule: evenodd"/>
<title>b'Polyline023'</title>
</g>
<g id="Polyline024" transform="translate(-2.245480,-2.245480) scale(1,-1)">
<path id="Polyline024_w0000"  d="M 110.775 -34.576 L 110.775 -35.576 L 109.976 -35.576 L 109.976 -38.676 L 110.775 -38.676 L 110.775 -44.476 L 109.976 -44.476 L 109.976 -47.576 L 110.775 -47.576 L 110.775 -48.576 L 124.775 -48.576 L 124.775 -47.576 L 125.575 -47.576 L 125.575 -44.476 L 124.775 -44.476 L 124.775 -38.676 L 125.575 -38.676 L 125.575 -35.576 L 124.775 -35.576 L 124.775 -34.576 L 110.775 -34.576 " stroke="#191919" stroke-width="0.35 px" style="stroke-width:0.35;stroke-miterlimit:4;stroke-dasharray:none;stroke-linecap:square;fill:none;fill-opacity:1;fill-rule: evenodd"/>
<title>b'Polyline024'</title>
</g>
<g id="Polyline025" transform="translate(-2.245480,-2.245480) scale(1,-1)">
<path id="Polyline025_w0000"  d="M 129.825 -34.576 L 129.825 -35.576 L 129.025 -35.576 L 129.025 -38.676 L 129.825 -38.676 L 129.825 -44.476 L 129.025 -44.476 L 129.025 -47.576 L 129.825 -47.576 L 129.825 -48.576 L 143.826 -48.576 L 143.826 -47.576 L 144.626 -47.576 L 144.626 -44.476 L 143.826 -44.476 L 143.826 -38.676 L 144.626 -38.676 L 144.626 -35.576 L 143.826 -35.576 L 143.826 -34.576 L 129.825 -34.576 " stroke="#191919" stroke-width="0.35 px" style="stroke-width:0.35;stroke-miterlimit:4;stroke-dasharray:none;stroke-linecap:square;fill:none;fill-opacity:1;fill-rule: evenodd"/>
<title>b'Polyline025'</title>
</g>
<g id="Polyline026" transform="translate(-2.245480,-2.245480) scale(1,-1)">
<path id="Polyline026_w0000"  d="M 148.876 -34.576 L 148.876 -35.576 L 148.076 -35.576 L 148.076 -38.676 L 148.876 -38.676 L 148.876 -44.476 L 148.076 -44.476 L 148.076 -47.576 L 148.876 -47.576 L 148.876 -48.576 L 162.876 -48.576 L 162.876 -47.576 L 163.676 -47.576 L 163.676 -44.476 L 162.876 -44.476 L 162.876 -38.676 L 163.676 -38.676 L 163.676 -35.576 L 162.876 -35.576 L 162.876 -34.576 L 148.876 -34.576 " stroke="#191919" stroke-width="0.35 px" style="stroke-width:0.35;stroke-miterlimit:4;stroke-dasharray:none;stroke-linecap:square;fill:none;fill-opacity:1;fill-rule: evenodd"/>
<title>b'Polyline026'</title>
</g>
<g id="Polyline027" transform="translate(-2.245480,-2.245480) scale(1,-1)">
<path id="Polyline027_w0000"  d="M 167.926 -34.576 L 167.926 -35.576 L 167.126 -35.576 L 167.126 -38.676 L 167.926 -38.676 L 167.926 -44.476 L 167.126 -44.476 L 167.126 -47.576 L 167.926 -47.576 L 167.926 -48.576 L 181.926 -48.576 L 181.926 -47.576 L 182.726 -47.576 L 182.726 -44.476 L 181.926 -44.476 L 181.926 -38.676 L 182.726 -38.676 L 182.726 -35.576 L 181.926 -35.576 L 181.926 -34.576 L 167.926 -34.576 " stroke="#191919" stroke-width="0.35 px" style="stroke-width:0.35;stroke-miterlimit:4;stroke-dasharray:none;stroke-linecap:square;fill:none;fill-opacity:1;fill-rule: evenodd"/>
<title>b'Polyline027'</title>
</g>
<g id="Polyline028" transform="translate(-2.245480,-2.245480) scale(1,-1)">
<path id="Polyline028_w0000"  d="M 15.525 -15.525 L 15.525 -16.526 L 14.725 -16.526 L 14.725 -19.626 L 15.525 -19.626 L 15.525 -25.425 L 14.725 -25.425 L 14.725 -28.526 L 15.525 -28.526 L 15.525 -29.526 L 29.526 -29.526 L 29.526 -28.526 L 30.326 -28.526 L 30.326 -25.425 L 29.526 -25.425 L 29.526 -19.626 L 30.326 -19.626 L 30.326 -16.526 L 29.526 -16.526 L 29.526 -15.525 L 15.525 -15.525 " stroke="#191919" stroke-width="0.35 px" style="stroke-width:0.35;stroke-miterlimit:4;stroke-dasharray:none;stroke-linecap:square;fill:none;fill-opacity:1;fill-rule: evenodd"/>
<title>b'Polyline028'</title>
</g>
<g id="Polyline029" transform="translate(-2.245480,-2.245480) scale(1,-1)">
<path id="Polyline029_w0000"  d="M 34.576 -15.525 L 34.576 -16.526 L 33.776 -16.526 L 33.776 -19.626 L 34.576 -19.626 L 34.576 -25.425 L 33.776 -25.425 L 33.776 -28.526 L 34.576 -28.526 L 34.576 -29.526 L 48.576 -29.526 L 48.576 -28.526 L 49.376 -28.526 L 49.376 -25.425 L 48.576 -25.425 L 48.576 -19.626 L 49.376 -19.626 L 49.376 -16.526 L 48.576 -16.526 L 48.576 -15.525 L 34.576 -15.525 " stroke="#191919" stroke-width="0.35 px" style="stroke-width:0.35;stroke-miterlimit:4;stroke-dasharray:none;stroke-linecap:square;fill:none;fill-opacity:1;fill-rule: evenodd"/>
<title>b'Polyline029'</title>
</g>
<g id="Polyline030" transform="translate(-2.245480,-2.245480) scale(1,-1)">
<path id="Polyline030_w0000"  d="M 53.626 -15.525 L 53.626 -16.526 L 52.826 -16.526 L 52.826 -19.626 L 53.626 -19.626 L 53.626 -25.425 L 52.826 -25.425 L 52.826 -28.526 L 53.626 -28.526 L 53.626 -29.526 L 67.626 -29.526 L 67.626 -28.526 L 68.426 -28.526 L 68.426 -25.425 L 67.626 -25.425 L 67.626 -19.626 L 68.426 -19.626 L 68.426 -16.526 L 67.626 -16.526 L 67.626 -15.525 L 53.626 -15.525 " stroke="#191919" stroke-width="0.35 px" style="stroke-width:0.35;stroke-miterlimit:4;stroke-dasharray:none;stroke-linecap:square;fill:none;fill-opacity:1;fill-rule: evenodd"/>
<title>b'Polyline030'</title>
</g>
<g id="Polyline031" transform="translate(-2.245480,-2.245480) scale(1,-1)">
<path id="Polyline031_w0000"  d="M 72.676 -15.525 L 72.676 -16.526 L 71.876 -16.526 L 71.876 -19.626 L 72.676 -19.626 L 72.676 -25.425 L 71.876 -25.425 L 71.876 -28.526 L 72.676 -28.526 L 72.676 -29.526 L 86.676 -29.526 L 86.676 -28.526 L 87.476 -28.526 L 87.476 -25.425 L 86.676 -25.425 L 86.676 -19.626 L 87.476 -19.626 L 87.476 -16.526 L 86.676 -16.526 L 86.676 -15.525 L 72.676 -15.525 " stroke="#191919" stroke-width="0.35 px" style="stroke-width:0.35;stroke-miterlimit:4;stroke-dasharray:none;stroke-linecap:square;fill:none;fill-opacity:1;fill-rule: evenodd"/>
<title>b'Polyline031'</title>
</g>
<g id="Polyline032" transform="translate(-2.245480,-2.245480) scale(1,-1)">
<path id="Polyline032_w0000"  d="M 91.726 -15.525 L 91.726 -16.526 L 90.926 -16.526 L 90.926 -19.626 L 91.726 -19.626 L 91.726 -25.425 L 90.926 -25.425 L 90.926 -28.526 L 91.726 -28.526 L 91.726 -29.526 L 105.726 -29.526 L 105.726 -28.526 L 106.525 -28.526 L 106.525 -25.425 L 105.726 -25.425 L 105.726 -19.626 L 106.525 -19.626 L 106.525 -16.526 L 105.726 -16.526 L 105.726 -15.525 L 91.726 -15.525 " stroke="#191919" stroke-width="0.35 px" style="stroke-width:0.35;stroke-miterlimit:4;stroke-dasharray:none;stroke-linecap:square;fill:none;fill-opacity:1;fill-rule: evenodd"/>
<title>b'Polyline032'</title>
</g>
<g id="Polyline033" transform="translate(-2.245480,-2.245480) scale(1,-1)">
<path id="Polyline033_w0000"  d="M 110.775 -15.525 L 110.775 -16.526 L 109.976 -16.526 L 109.976 -19.626 L 110.775 -19.626 L 110.775 -25.425 L 109.976 -25.425 L 109.976 -28.526 L 110.775 -28.526 L 110.775 -29.526 L 124.775 -29.526 L 124.775 -28.526 L 125.575 -28.526 L 125.575 -25.425 L 124.775 -25.425 L 124.775 -19.626 L 125.575 -19.626 L 125.575 -16.526 L 124.775 -16.526 L 124.775 -15.525 L 110.775 -15.525 " stroke="#191919" stroke-width="0.35 px" style="stroke-width:0.35;stroke-miterlimit:4;stroke-dasharray:none;stroke-linecap:square;fill:none;fill-opacity:1;fill-rule: evenodd"/>
<title>b'Polyline033'</title>
</g>
<g id="Polyline034" transform="translate(-2.245480,-2.245480) scale(1,-1)">
<path id="Polyline034_w0000"  d="M 129.825 -15.525 L 129.825 -16.526 L 129.025 -16.526 L 129.025 -19.626 L 129.825 -19.626 L 129.825 -25.425 L 129.025 -25.425 L 129.025 -28.526 L 129.825 -28.526 L 129.825 -29.526 L 143.826 -29.526 L 143.826 -28.526 L 144.626 -28.526 L 144.626 -25.425 L 143.826 -25.425 L 143.826 -19.626 L 144.626 -19.626 L 144.626 -16.526 L 143.826 -16.526 L 143.826 -15.525 L 129.825 -15.525 " stroke="#191919" stroke-width="0.35 px" style="stroke-width:0.35;stroke-miterlimit:4;stroke-dasharray:none;stroke-linecap:square;fill:none;fill-opacity:1;fill-rule: evenodd"/>
<title>b'Polyline034'</title>
</g>
<g id="Polyline035" transform="translate(-2.245480,-2.245480) scale(1,-1)">
<path id="Polyline035_w0000"  d="M 148.876 -15.525 L 148.876 -16.526 L 148.076 -16.526 L 148.076 -19.626 L 148.876 -19.626 L 148.876 -25.425 L 148.076 -25.425 L 148.076 -28.526 L 148.876 -28.526 L 148.876 -29.526 L 162.876 -29.526 L 162.876 -28.526 L 163.676 -28.526 L 163.676 -25.425 L 162.876 -25.425 L 162.876 -19.626 L 163.676 -19.626 L 163.676 -16.526 L 162.876 -16.526 L 162.876 -15.525 L 148.876 -15.525 " stroke="#191919" stroke-width="0.35 px" style="stroke-width:0.35;stroke-miterlimit:4;stroke-dasharray:none;stroke-linecap:square;fill:none;fill-opacity:1;fill-rule: evenodd"/>
<title>b'Polyline035'</title>
</g>
<g id="Polyline036" transform="translate(-2.245480,-2.245480) scale(1,-1)">
<path id="Polyline036_w0000"  d="M 167.926 -15.525 L 167.926 -16.526 L 167.126 -16.526 L 167.126 -19.626 L 167.926 -19.626 L 167.926 -25.425 L 167.126 -25.425 L 167.126 -28.526 L 167.926 -28.526 L 167.926 -29.526 L 181.926 -29.526 L 181.926 -28.526 L 182.726 -28.526 L 182.726 -25.425 L 181.926 -25.425 L 181.926 -19.626 L 182.726 -19.626 L 182.726 -16.526 L 181.926 -16.526 L 181.926 -15.525 L 167.926 -15.525 " stroke="#191919" stroke-width="0.35 px" style="stroke-width:0.35;stroke-miterlimit:4;stroke-dasharray:none;stroke-linecap:square;fill:none;fill-opacity:1;fill-rule: evenodd"/>
<title>b'Polyline036'</title>
</g>
<g id="Sketch" transform="translate(-2.245480,-2.245480) scale(1,-1)">
<circle cx="188.89060999999998" cy="-15.008062000000002" r="2.130463" stroke="#000000" stroke-width="0.35 px" style="stroke-width:0.35;stroke-miterlimit:4;stroke-dasharray:none;stroke-linecap:square;fill:none"/>
<circle cx="200.89550799999998" cy="-15.012316000000002" r="2.130463" stroke="#000000" stroke-width="0.35 px" style="stroke-width:0.35;stroke-miterlimit:4;stroke-dasharray:none;stroke-linecap:square;fill:none"/>
<circle cx="212.93310599999998" cy="-14.977357000000001" r="2.130463" stroke="#000000" stroke-width="0.35 px" style="stroke-width:0.35;stroke-miterlimit:4;stroke-dasharray:none;stroke-linecap:square;fill:none"/>
<circle cx="224.98037699999998" cy="-14.974657" r="2.130463" stroke="#000000" stroke-width="0.35 px" style="stroke-width:0.35;stroke-miterlimit:4;stroke-dasharray:none;stroke-linecap:square;fill:none"/>
<circle cx="236.86579899999998" cy="-15.031565000000004" r="2.130463" stroke="#000000" stroke-width="0.35 px" style="stroke-width:0.35;stroke-miterlimit:4;stroke-dasharray:none;stroke-linecap:square;fill:none"/>
<circle cx="248.87069699999998" cy="-15.035819000000004" r="2.130463" stroke="#000000" stroke-width="0.35 px" style="stroke-width:0.35;stroke-miterlimit:4;stroke-dasharray:none;stroke-linecap:square;fill:none"/>
<circle cx="260.908295" cy="-15.000860000000003" r="2.130463" stroke="#000000" stroke-width="0.35 px" style="stroke-width:0.35;stroke-miterlimit:4;stroke-dasharray:none;stroke-linecap:square;fill:none"/>
<circle cx="272.95556600000003" cy="-14.998160000000002" r="2.130463" stroke="#000000" stroke-width="0.35 px" style="stroke-width:0.35;stroke-miterlimit:4;stroke-dasharray:none;stroke-linecap:square;fill:none"/>
<circle cx="188.89790399999998" cy="-26.978618" r="2.130463" stroke="#000000" stroke-width="0.35 px" style="stroke-width:0.35;stroke-miterlimit:4;stroke-dasharray:none;stroke-linecap:square;fill:none"/>
<circle cx="200.90280199999998" cy="-26.982872000000004" r="2.130463" stroke="#000000" stroke-width="0.35 px" style="stroke-width:0.35;stroke-miterlimit:4;stroke-dasharray:none;stroke-linecap:square;fill:none"/>
<circle cx="212.94039999999998" cy="-26.947913000000003" r="2.130463" stroke="#000000" stroke-width="0.35 px" style="stroke-width:0.35;stroke-miterlimit:4;stroke-dasharray:none;stroke-linecap:square;fill:none"/>
<circle cx="224.98767099999998" cy="-26.945213" r="2.130463" stroke="#000000" stroke-width="0.35 px" style="stroke-width:0.35;stroke-miterlimit:4;stroke-dasharray:none;stroke-linecap:square;fill:none"/>
<circle cx="236.87309299999998" cy="-27.002121000000006" r="2.130463" stroke="#000000" stroke-width="0.35 px" style="stroke-width:0.35;stroke-miterlimit:4;stroke-dasharray:none;stroke-linecap:square;fill:none"/>
<circle cx="248.87799099999998" cy="-27.006375000000002" r="2.130463" stroke="#000000" stroke-width="0.35 px" style="stroke-width:0.35;stroke-miterlimit:4;stroke-dasharray:none;stroke-linecap:square;fill:none"/>
<circle cx="260.915589" cy="-26.971416" r="2.130463" stroke="#000000" stroke-width="0.35 px" style="stroke-width:0.35;stroke-miterlimit:4;stroke-dasharray:none;stroke-linecap:square;fill:none"/>
<circle cx="272.96286000000003" cy="-26.968716000000004" r="2.130463" stroke="#000000" stroke-width="0.35 px" style="stroke-width:0.35;stroke-miterlimit:4;stroke-dasharray:none;stroke-linecap:square;fill:none"/>
<circle cx="188.88822899999997" cy="-39.045751" r="2.130463" stroke="#000000" stroke-width="0.35 px" style="stroke-width:0.35;stroke-miterlimit:4;stroke-dasharray:none;stroke-linecap:square;fill:none"/>
<circle cx="200.89312699999996" cy="-39.050005000000006" r="2.130463" stroke="#000000" stroke-width="0.35 px" style="stroke-width:0.35;stroke-miterlimit:4;stroke-dasharray:none;stroke-linecap:square;fill:none"/>
<circle cx="212.93072499999997" cy="-39.015046000000005" r="2.130463" stroke="#000000" stroke-width="0.35 px" style="stroke-width:0.35;stroke-miterlimit:4;stroke-dasharray:none;stroke-linecap:square;fill:none"/>
<circle cx="224.97799599999996" cy="-39.012346" r="2.130463" stroke="#000000" stroke-width="0.35 px" style="stroke-width:0.35;stroke-miterlimit:4;stroke-dasharray:none;stroke-linecap:square;fill:none"/>
<circle cx="236.86341799999997" cy="-39.06925400000001" r="2.130463" stroke="#000000" stroke-width="0.35 px" style="stroke-width:0.35;stroke-miterlimit:4;stroke-dasharray:none;stroke-linecap:square;fill:none"/>
<circle cx="248.86831599999996" cy="-39.07350800000001" r="2.130463" stroke="#000000" stroke-width="0.35 px" style="stroke-width:0.35;stroke-miterlimit:4;stroke-dasharray:none;stroke-linecap:square;fill:none"/>
<circle cx="260.905914" cy="-39.03854900000001" r="2.130463" stroke="#000000" stroke-width="0.35 px" style="stroke-width:0.35;stroke-miterlimit:4;stroke-dasharray:none;stroke-linecap:square;fill:none"/>
<circle cx="272.953185" cy="-39.035849000000006" r="2.130463" stroke="#000000" stroke-width="0.35 px" style="stroke-width:0.35;stroke-miterlimit:4;stroke-dasharray:none;stroke-linecap:square;fill:none"/>
<circle cx="188.89552299999997" cy="-51.016307000000005" r="2.130463" stroke="#000000" stroke-width="0.35 px" style="stroke-width:0.35;stroke-miterlimit:4;stroke-dasharray:none;stroke-linecap:square;fill:none"/>
<circle cx="200.90042099999997" cy="-51.02056100000001" r="2.130463" stroke="#000000" stroke-width="0.35 px" style="stroke-width:0.35;stroke-miterlimit:4;stroke-dasharray:none;stroke-linecap:square;fill:none"/>
<circle cx="212.93801899999997" cy="-50.98560200000001" r="2.130463" stroke="#000000" stroke-width="0.35 px" style="stroke-width:0.35;stroke-miterlimit:4;stroke-dasharray:none;stroke-linecap:square;fill:none"/>
<circle cx="224.98528999999996" cy="-50.982902" r="2.130463" stroke="#000000" stroke-width="0.35 px" style="stroke-width:0.35;stroke-miterlimit:4;stroke-dasharray:none;stroke-linecap:square;fill:none"/>
<circle cx="236.87071199999997" cy="-51.03981000000001" r="2.130463" stroke="#000000" stroke-width="0.35 px" style="stroke-width:0.35;stroke-miterlimit:4;stroke-dasharray:none;stroke-linecap:square;fill:none"/>
<circle cx="248.87560999999997" cy="-51.044064000000006" r="2.130463" stroke="#000000" stroke-width="0.35 px" style="stroke-width:0.35;stroke-miterlimit:4;stroke-dasharray:none;stroke-linecap:square;fill:none"/>
<circle cx="260.913208" cy="-51.009105000000005" r="2.130463" stroke="#000000" stroke-width="0.35 px" style="stroke-width:0.35;stroke-miterlimit:4;stroke-dasharray:none;stroke-linecap:square;fill:none"/>
<circle cx="272.960479" cy="-51.00640500000001" r="2.130463" stroke="#000000" stroke-width="0.35 px" style="stroke-width:0.35;stroke-miterlimit:4;stroke-dasharray:none;stroke-linecap:square;fill:none"/>
<circle cx="188.89109799999997" cy="-63.05877" r="2.130463" stroke="#000000" stroke-width="0.35 px" style="stroke-width:0.35;stroke-miterlimit:4;stroke-dasharray:none;stroke-linecap:square;fill:none"/>
<circle cx="200.89599599999997" cy="-63.063024000000006" r="2.130463" stroke="#000000" stroke-width="0.35 px" style="stroke-width:0.35;stroke-miterlimit:4;stroke-dasharray:none;stroke-linecap:square;fill:none"/>
<circle cx="212.93359399999997" cy="-63.028065000000005" r="2.130463" stroke="#000000" stroke-width="0.35 px" style="stroke-width:0.35;stroke-miterlimit:4;stroke-dasharray:none;stroke-linecap:square;fill:none"/>
<circle cx="224.98086499999997" cy="-63.025365" r="2.130463" stroke="#000000" stroke-width="0.35 px" style="stroke-width:0.35;stroke-miterlimit:4;stroke-dasharray:none;stroke-linecap:square;fill:none"/>
<circle cx="236.86628699999997" cy="-63.08227300000001" r="2.130463" stroke="#000000" stroke-width="0.35 px" style="stroke-width:0.35;stroke-miterlimit:4;stroke-dasharray:none;stroke-linecap:square;fill:none"/>
<circle cx="248.87118499999997" cy="-63.08652700000001" r="2.130463" stroke="#000000" stroke-width="0.35 px" style="stroke-width:0.35;stroke-miterlimit:4;stroke-dasharray:none;stroke-linecap:square;fill:none"/>
<circle cx="260.90878299999997" cy="-63.05156800000001" r="2.130463" stroke="#000000" stroke-width="0.35 px" style="stroke-width:0.35;stroke-miterlimit:4;stroke-dasharray:none;stroke-linecap:square;fill:none"/>
<circle cx="272.956054" cy="-63.048868000000006" r="2.130463" stroke="#000000" stroke-width="0.35 px" style="stroke-width:0.35;stroke-miterlimit:4;stroke-dasharray:none;stroke-linecap:square;fill:none"/>
<circle cx="188.89839199999997" cy="-75.029326" r="2.130463" stroke="#000000" stroke-width="0.35 px" style="stroke-width:0.35;stroke-miterlimit:4;stroke-dasharray:none;stroke-linecap:square;fill:none"/>
<circle cx="200.90328999999997" cy="-75.03358" r="2.130463" stroke="#000000" stroke-width="0.35 px" style="stroke-width:0.35;stroke-miterlimit:4;stroke-dasharray:none;stroke-linecap:square;fill:none"/>
<circle cx="212.94088799999997" cy="-74.998621" r="2.130463" stroke="#000000" stroke-width="0.35 px" style="stroke-width:0.35;stroke-miterlimit:4;stroke-dasharray:none;stroke-linecap:square;fill:none"/>
<circle cx="224.98815899999997" cy="-74.995921" r="2.130463" stroke="#000000" stroke-width="0.35 px" style="stroke-width:0.35;stroke-miterlimit:4;stroke-dasharray:none;stroke-linecap:square;fill:none"/>
<circle cx="236.87358099999997" cy="-75.052829" r="2.130463" stroke="#000000" stroke-width="0.35 px" style="stroke-width:0.35;stroke-miterlimit:4;stroke-dasharray:none;stroke-linecap:square;fill:none"/>
<circle cx="248.87847899999997" cy="-75.05708299999999" r="2.130463" stroke="#000000" stroke-width="0.35 px" style="stroke-width:0.35;stroke-miterlimit:4;stroke-dasharray:none;stroke-linecap:square;fill:none"/>
<circle cx="260.916077" cy="-75.022124" r="2.130463" stroke="#000000" stroke-width="0.35 px" style="stroke-width:0.35;stroke-miterlimit:4;stroke-dasharray:none;stroke-linecap:square;fill:none"/>
<circle cx="272.963348" cy="-75.019424" r="2.130463" stroke="#000000" stroke-width="0.35 px" style="stroke-width:0.35;stroke-miterlimit:4;stroke-dasharray:none;stroke-linecap:square;fill:none"/>
<circle cx="188.89137299999996" cy="-87.013297" r="2.130463" stroke="#000000" stroke-width="0.35 px" style="stroke-width:0.35;stroke-miterlimit:4;stroke-dasharray:none;stroke-linecap:square;fill:none"/>
<circle cx="200.89627099999996" cy="-87.017551" r="2.130463" stroke="#000000" stroke-width="0.35 px" style="stroke-width:0.35;stroke-miterlimit:4;stroke-dasharray:none;stroke-linecap:square;fill:none"/>
<circle cx="212.93386899999996" cy="-86.982592" r="2.130463" stroke="#000000" stroke-width="0.35 px" style="stroke-width:0.35;stroke-miterlimit:4;stroke-dasharray:none;stroke-linecap:square;fill:none"/>
<circle cx="224.98113999999995" cy="-86.97989199999999" r="2.130463" stroke="#000000" stroke-width="0.35 px" style="stroke-width:0.35;stroke-miterlimit:4;stroke-dasharray:none;stroke-linecap:square;fill:none"/>
<circle cx="236.86656199999996" cy="-87.0368" r="2.130463" stroke="#000000" stroke-width="0.35 px" style="stroke-width:0.35;stroke-miterlimit:4;stroke-dasharray:none;stroke-linecap:square;fill:none"/>
<circle cx="248.87145999999996" cy="-87.04105399999999" r="2.130463" stroke="#000000" stroke-width="0.35 px" style="stroke-width:0.35;stroke-miterlimit:4;stroke-dasharray:none;stroke-linecap:square;fill:none"/>
<circle cx="260.90905799999996" cy="-87.006095" r="2.130463" stroke="#000000" stroke-width="0.35 px" style="stroke-width:0.35;stroke-miterlimit:4;stroke-dasharray:none;stroke-linecap:square;fill:none"/>
<circle cx="272.956329" cy="-87.003395" r="2.130463" stroke="#000000" stroke-width="0.35 px" style="stroke-width:0.35;stroke-miterlimit:4;stroke-dasharray:none;stroke-linecap:square;fill:none"/>
<title>b'Sketch'</title>
</g>
</svg>