<?xml version="1.0" encoding="UTF-8"?>
<!-- Generated by SVGo -->
<svg width="285.452mm" height="102.202mm" viewBox="0.000 0.000 285.452 102.202" xmlns="http://www.w3.org/2000/svg" xmlns:xlink="http://www.w3.org/1999/xlink">
<polygon points="275.452,5.001 275.844,5.016 276.234,5.062 276.619,5.139 276.997,5.245 277.365,5.381 277.721,5.545 278.064,5.737 278.390,5.955 278.699,6.198 278.987,6.465 279.254,6.753 279.497,7.062 279.715,7.388 279.907,7.731 280.071,8.087 280.207,8.455 280.313,8.833 280.390,9.218 280.436,9.608 280.451,10.001 280.452,92.202 280.436,92.594 280.390,92.984 280.313,93.369 280.207,93.747 280.071,94.115 279.907,94.471 279.715,94.814 279.497,95.140 279.254,95.449 278.987,95.737 278.699,96.004 278.390,96.247 278.064,96.465 277.721,96.657 277.365,96.821 276.997,96.957 276.619,97.063 276.234,97.140 275.844,97.186 275.452,97.202 10.001,97.202 9.608,97.186 9.218,97.140 8.833,97.063 8.455,96.957 8.087,96.821 7.731,96.657 7.388,96.465 7.062,96.247 6.753,96.004 6.465,95.737 6.198,95.449 5.955,95.140 5.737,94.814 5.545,94.471 5.381,94.115 5.245,93.747 5.139,93.369 5.062,92.984 5.016,92.594 5.000,92.201 5.001,10.001 5.016,9.608 5.062,9.218 5.139,8.833 5.245,8.455 5.381,8.087 5.545,7.731 5.737,7.388 5.955,7.062 6.198,6.753 6.465,6.465 6.753,6.198 7.062,5.955 7.388,5.737 7.731,5.545 8.087,5.381 8.455,5.245 8.833,5.139 9.218,5.062 9.608,5.016 10.001,5.000" style="fill:none;stroke-width:0.050000mm;stroke:black"/>
<polygon points="15.525,72.676 15.525,73.676 14.725,73.676 14.725,76.775 15.525,76.775 15.525,82.576 14.725,82.576 14.725,85.676 15.525,85.676 15.525,86.676 29.526,86.676 29.526,85.676 30.326,85.676 30.326,82.576 29.526,82.576 29.526,76.775 30.326,76.775 30.326,73.676 29.526,73.676 29.526,72.676" style="fill:none;stroke-width:0.050000mm;stroke:black"/>
<polygon points="34.576,72.676 34.576,73.676 33.776,73.676 33.776,76.775 34.576,76.775 34.576,82.576 33.776,82.576 33.776,85.676 34.576,85.676 34.576,86.676 48.576,86.676 48.576,85.676 49.376,85.676 49.376,82.576 48.576,82.576 48.576,76.775 49.376,76.775 49.376,73.676 48.576,73.676 48.576,72.676" style="fill:none;stroke-width:0.050000mm;stroke:black"/>
<polygon points="53.626,72.676 53.626,73.676 52.826,73.676 52.826,76.775 53.626,76.775 53.626,82.576 52.826,82.576 52.826,85.676 53.626,85.676 53.626,86.676 67.626,86.676 67.626,85.676 68.426,85.676 68.426,82.576 67.626,82.576 67.626,76.775 68.426,76.775 68.426,73.676 67.626,73.676 67.626,72.676" style="fill:none;stroke-width:0.050000mm;stroke:black"/>
<polygon points="72.676,72.676 72.676,73.676 71.876,73.676 71.876,76.775 72.676,76.775 72.676,82.576 71.876,82.576 71.876,85.676 72.676,85.676 72.676,86.676 86.676,86.676 86.676,85.676 87.476,85.676 87.476,82.576 86.676,82.576 86.676,76.775 87.476,76.775 87.476,73.676 86.676,73.676 86.676,72.676" style="fill:none;stroke-width:0.050000mm;stroke:black"/>
<polygon points="91.726,72.676 91.726,73.676 90.926,73.676 90.926,76.775 91.726,76.775 91.726,82.576 90.926,82.576 90.926,85.676 91.726,85.676 91.726,86.676 105.726,86.676 105.726,85.676 106.525,85.676 106.525,82.576 105.726,82.576 105.726,76.775 106.525,76.775 106.525,73.676 105.726,73.676 105.726,72.676" style="fill:none;stroke-width:0.050000mm;stroke:black"/>
<polygon points="110.775,72.676 110.775,73.676 109.976,73.676 109.976,76.775 110.775,76.775 110.775,82.576 109.976,82.576 109.976,85.676 110.775,85.676 110.775,86.676 124.775,86.676 124.775,85.676 125.575,85.676 125.575,82.576 124.775,82.576 124.775,76.775 125.575,76.775 125.575,73.676 124.775,73.676 124.775,72.676" style="fill:none;stroke-width:0.050000mm;stroke:black"/>
<polygon points="129.825,72.676 129.825,73.676 129.025,73.676 129.025,76.775 129.825,76.775 129.825,82.576 129.025,82.576 129.025,85.676 129.825,85.676 129.825,86.676 143.826,86.676 143.826,85.676 144.626,85.676 144.626,82.576 143.826,82.576 143.826,76.775 144.626,76.775 144.626,73.676 143.826,73.676 143.826,72.676" style="fill:none;stroke-width:0.050000mm;stroke:black"/>
<polygon points="148.876,72.676 148.876,73.676 148.076,73.676 148.076,76.775 148.876,76.775 148.876,82.576 148.076,82.576 148.076,85.676 148.876,85.676 148.876,86.676 162.876,86.676 162.876,85.676 163.676,85.676 163.676,82.576 162.876,82.576 162.876,76.775 163.676,76.775 163.676,73.676 162.876,73.676 162.876,72.676" style="fill:none;stroke-width:0.050000mm;stroke:black"/>
<polygon points="167.926,72.676 167.926,73.676 167.126,73.676 167.126,76.775 167.926,76.775 167.926,82.576 167.126,82.576 167.126,85.676 167.926,85.676 167.926,86.676 181.926,86.676 181.926,85.676 182.726,85.676 182.726,82.576 181.926,82.576 181.926,76.775 182.726,76.775 182.726,73.676 181.926,73.676 181.926,72.676" style="fill:none;stroke-width:0.050000mm;stroke:black"/>
<polygon points="15.525,53.626 15.525,54.626 14.725,54.626 14.725,57.726 15.525,57.726 15.525,63.526 14.725,63.526 14.725,66.626 15.525,66.626 15.525,67.626 29.526,67.626 29.526,66.626 30.326,66.626 30.326,63.526 29.526,63.526 29.526,57.726 30.326,57.726 30.326,54.626 29.526,54.626 29.526,53.626" style="fill:none;stroke-width:0.050000mm;stroke:black"/>
<polygon points="34.576,53.626 34.576,54.626 33.776,54.626 33.776,57.726 34.576,57.726 34.576,63.526 33.776,63.526 33.776,66.626 34.576,66.626 34.576,67.626 48.576,67.626 48.576,66.626 49.376,66.626 49.376,63.526 48.576,63.526 48.576,57.726 49.376,57.726 49.376,54.626 48.576,54.626 48.576,53.626" style="fill:none;stroke-width:0.050000mm;stroke:black"/>
<polygon points="53.626,53.626 53.626,54.626 52.826,54.626 52.826,57.726 53.626,57.726 53.626,63.526 52.826,63.526 52.826,66.626 53.626,66.626 53.626,67.626 67.626,67.626 67.626,66.626 68.426,66.626 68.426,63.526 67.626,63.526 67.626,57.726 68.426,57.726 68.426,54.626 67.626,54.626 67.626,53.626" style="fill:none;stroke-width:0.050000mm;stroke:black"/>
<polygon points="72.676,53.626 72.676,54.626 71.876,54.626 71.876,57.726 72.676,57.726 72.676,63.526 71.876,63.526 71.876,66.626 72.676,66.626 72.676,67.626 86.676,67.626 86.676,66.626 87.476,66.626 87.476,63.526 86.676,63.526 86.676,57.726 87.476,57.726 87.476,54.626 86.676,54.626 86.676,53.626" style="fill:none;stroke-width:0.050000mm;stroke:black"/>
<polygon points="91.726,53.626 91.726,54.626 90.926,54.626 90.926,57.726 91.726,57.726 91.726,63.526 90.926,63.526 90.926,66.626 91.726,66.626 91.726,67.626 105.726,67.626 105.726,66.626 106.525,66.626 106.525,63.526 105.726,63.526 105.726,57.726 106.525,57.726 106.525,54.626 105.726,54.626 105.726,53.626" style="fill:none;stroke-width:0.050000mm;stroke:black"/>
<polygon points="110.775,53.626 110.775,54.626 109.976,54.626 109.976,57.726 110.775,57.726 110.775,63.526 109.976,63.526 109.976,66.626 110.775,66.626 110.775,67.626 124.775,67.626 124.775,66.626 125.575,66.626 125.575,63.526 124.775,63.526 124.775,57.726 125.575,57.726 125.575,54.626 124.775,54.626 124.775,53.626" style="fill:none;stroke-width:0.050000mm;stroke:black"/>
<polygon points="129.825,53.626 129.825,54.626 129.025,54.626 129.025,57.726 129.825,57.726 129.825,63.526 129.025,63.526 129.025,66.626 129.825,66.626 129.825,67.626 143.826,67.626 143.826,66.626 144.626,66.626 144.626,63.526 143.826,63.526 143.826,57.726 144.626,57.726 144.626,54.626 143.826,54.626 143.826,53.626" style="fill:none;stroke-width:0.050000mm;stroke:black"/>
<polygon points="148.876,53.626 148.876,54.626 148.076,54.626 148.076,57.726 148.876,57.726 148.876,63.526 148.076,63.526 148.076,66.626 148.876,66.626 148.876,67.626 162.876,67.626 162.876,66.626 163.676,66.626 163.676,63.526 162.876,63.526 162.876,57.726 163.676,57.726 163.676,54.626 162.876,54.626 162.876,53.626" style="fill:none;stroke-width:0.050000mm;stroke:black"/>
<polygon points="167.926,53.626 167.926,54.626 167.126,54.626 167.126,57.726 167.926,57.726 167.926,63.526 167.126,63.526 167.126,66.626 167.926,66.626 167.926,67.626 181.926,67.626 181.926,66.626 182.726,66.626 182.726,63.526 181.926,63.526 181.926,57.726 182.726,57.726 182.726,54.626 181.926,54.626 181.926,53.626" style="fill:none;stroke-width:0.050000mm;stroke:black"/>
<polygon points="15.525,34.576 15.525,35.576 14.725,35.576 14.725,38.676 15.525,38.676 15.525,44.476 14.725,44.476 14.725,47.576 15.525,47.576 15.525,48.576 29.526,48.576 29.526,47.576 30.326,47.576 30.326,44.476 29.526,44.476 29.526,38.676 30.326,38.676 30.326,35.576 29.526,35.576 29.526,34.576" style="fill:none;stroke-width:0.050000mm;stroke:black"/>
<polygon points="34.576,34.576 34.576,35.576 33.776,35.576 33.776,38.676 34.576,38.676 34.576,44.476 33.776,44.476 33.776,47.576 34.576,47.576 34.576,48.576 48.576,48.576 48.576,47.576 49.376,47.576 49.376,44.476 48.576,44.476 48.576,38.676 49.376,38.676 49.376,35.576 48.576,35.576 48.576,34.576" style="fill:none;stroke-width:0.050000mm;stroke:black"/>
<polygon points="53.626,34.576 53.626,35.576 52.826,35.576 52.826,38.676 53.626,38.676 53.626,44.476 52.826,44.476 52.826,47.576 53.626,47.576 53.626,48.576 67.626,48.576 67.626,47.576 68.426,47.576 68.426,44.476 67.626,44.476 67.626,38.676 68.426,38.676 68.426,35.576 67.626,35.576 67.626,34.576" style="fill:none;stroke-width:0.050000mm;stroke:black"/>
<polygon points="72.676,34.576 72.676,35.576 71.876,35.576 71.876,38.676 72.676,38.676 72.676,44.476 71.876,44.476 71.876,47.576 72.676,47.576 72.676,48.576 86.676,48.576 86.676,47.576 87.476,47.576 87.476,44.476 86.676,44.476 86.676,38.676 87.476,38.676 87.476,35.576 86.676,35.576 86.676,34.576" style="fill:none;stroke-width:0.050000mm;stroke:black"/>
<polygon points="91.726,34.576 91.726,35.576 90.926,35.576 90.926,38.676 91.726,38.676 91.726,44.476 90.926,44.476 90.926,47.576 91.726,47.576 91.726,48.576 105.726,48.576 105.726,47.576 106.525,47.576 106.525,44.476 105.726,44.476 105.726,38.676 106.525,38.676 106.525,35.576 105.726,35.576 105.726,34.576" style="fill:none;stroke-width:0.050000mm;stroke:black"/>
<polygon points="110.775,34.576 110.775,35.576 109.976,35.576 109.976,38.676 110.775,38.676 110.775,44.476 109.976,44.476 109.976,47.576 110.775,47.576 110.775,48.576 124.775,48.576 124.775,47.576 125.575,47.576 125.575,44.476 124.775,44.476 124.775,38.676 125.575,38.676 125.575,35.576 124.775,35.576 124.775,34.576" style="fill:none;stroke-width:0.050000mm;stroke:black"/>
<polygon points="129.825,34.576 129.825,35.576 129.025,35.576 129.025,38.676 129.825,38.676 129.825,44.476 129.025,44.476 129.025,47.576 129.825,47.576 129.825,48.576 143.826,48.576 143.826,47.576 144.626,47.576 144.626,44.476 143.826,44.476 143.826,38.676 144.626,38.676 144.626,35.576 143.826,35.576 143.826,34.576" style="fill:none;stroke-width:0.050000mm;stroke:black"/>
<polygon points="148.876,34.576 148.876,35.576 148.076,35.576 148.076,38.676 148.876,38.676 148.876,44.476 148.076,44.476 148.076,47.576 148.876,47.576 148.876,48.576 162.876,48.576 162.876,47.576 163.676,47.576 163.676,44.476 162.876,44.476 162.876,38.676 163.676,38.676 163.676,35.576 162.876,35.576 162.876,34.576" style="fill:none;stroke-width:0.050000mm;stroke:black"/>
<polygon points="167.926,34.576 167.926,35.576 167.126,35.576 167.126,38.676 167.926,38.676 167.926,44.476 167.126,44.476 167.126,47.576 167.926,47.576 167.926,48.576 181.926,48.576 181.926,47.576 182.726,47.576 182.726,44.476 181.926,44.476 181.926,38.676 182.726,38.676 182.726,35.576 181.926,35.576 181.926,34.576" style="fill:none;stroke-width:0.050000mm;stroke:black"/>
<polygon points="15.525,15.525 15.525,16.526 14.725,16.526 14.725,19.626 15.525,19.626 15.525,25.425 14.725,25.425 14.725,28.526 15.525,28.526 15.525,29.526 29.526,29.526 29.526,28.526 30.326,28.526 30.326,25.425 29.526,25.425 29.526,19.626 30.326,19.626 30.326,16.526 29.526,16.526 29.526,15.525" style="fill:none;stroke-width:0.050000mm;stroke:black"/>
<polygon points="34.576,15.525 34.576,16.526 33.776,16.526 33.776,19.626 34.576,19.626 34.576,25.425 33.776,25.425 33.776,28.526 34.576,28.526 34.576,29.526 48.576,29.526 48.576,28.526 49.376,28.526 49.376,25.425 48.576,25.425 48.576,19.626 49.376,19.626 49.376,16.526 48.576,16.526 48.576,15.525" style="fill:none;stroke-width:0.050000mm;stroke:black"/>
<polygon points="53.626,15.525 53.626,16.526 52.826,16.526 52.826,19.626 53.626,19.626 53.626,25.425 52.826,25.425 52.826,28.526 53.626,28.526 53.626,29.526 67.626,29.526 67.626,28.526 68.426,28.526 68.426,25.425 67.626,25.425 67.626,19.626 68.426,19.626 68.426,16.526 67.626,16.526 67.626,15.525" style="fill:none;stroke-width:0.050000mm;stroke:black"/>
<polygon points="72.676,15.525 72.676,16.526 71.876,16.526 71.876,19.626 72.676,19.626 72.676,25.425 71.876,25.425 71.876,28.526 72.676,28.526 72.676,29.526 86.676,29.526 86.676,28.526 87.476,28.526 87.476,25.425 86.676,25.425 86.676,19.626 87.476,19.626 87.476,16.526 86.676,16.526 86.676,15.525" style="fill:none;stroke-width:0.050000mm;stroke:black"/>
<polygon points="91.726,15.525 91.726,16.526 90.926,16.526 90.926,19.626 91.726,19.626 91.726,25.425 90.926,25.425 90.926,28.526 91.726,28.526 91.726,29.526 105.726,29.526 105.726,28.526 106.525,28.526 106.525,25.425 105.726,25.425 105.726,19.626 106.525,19.626 106.525,16.526 105.726,16.526 105.726,15.525" style="fill:none;stroke-width:0.050000mm;stroke:black"/>
<polygon points="110.775,15.525 110.775,16.526 109.976,16.526 109.976,19.626 110.775,19.626 110.775,25.425 109.976,25.425 109.976,28.526 110.775,28.526 110.775,29.526 124.775,29.526 124.775,28.526 125.575,28.526 125.575,25.425 124.775,25.425 124.775,19.626 125.575,19.626 125.575,16.526 124.775,16.526 124.775,15.525" style="fill:none;stroke-width:0.050000mm;stroke:black"/>
<polygon points="129.825,15.525 129.825,16.526 129.025,16.526 129.025,19.626 129.825,19.626 129.825,25.425 129.025,25.425 129.025,28.526 129.825,28.526 129.825,29.526 143.826,29.526 143.826,28.526 144.626,28.526 144.626,25.425 143.826,25.425 143.826,19.626 144.626,19.626 144.626,16.526 143.826,16.526 143.826,15.525" style="fill:none;stroke-width:0.050000mm;stroke:black"/>
<polygon points="148.876,15.525 148.876,16.526 148.076,16.526 148.076,19.626 148.876,19.626 148.876,25.425 148.076,25.425 148.076,28.526 148.876,28.526 148.876,29.526 162.876,29.526 162.876,28.526 163.676,28.526 163.676,25.425 162.876,25.425 162.876,19.626 163.676,19.626 163.676,16.526 162.876,16.526 162.876,15.525" style="fill:none;stroke-width:0.050000mm;stroke:black"/>
<polygon points="167.926,15.525 167.926,16.526 167.126,16.526 167.126,19.626 167.926,19.626 167.926,25.425 167.126,25.425 167.126,28.526 167.926,28.526 167.926,29.526 181.926,29.526 181.926,28.526 182.726,28.526 182.726,25.425 181.926,25.425 181.926,19.626 182.726,19.626 182.726,16.526 181.926,16.526 181.926,15.525" style="fill:none;stroke-width:0.050000mm;stroke:black"/>
</svg>