<?xml version="1.0" encoding="UTF-8"?>
<!-- Generated by SVGo -->
<svg width="189.542mm" height="94.242mm" viewBox="0.000 0.000 189.542 94.242" xmlns="http://www.w3.org/2000/svg" xmlns:xlink="http://www.w3.org/1999/xlink">
<polygon points="182.542,5.001 182.698,5.007 182.854,5.025 183.008,5.056 183.160,5.098 183.307,5.153 183.449,5.218 183.586,5.295 183.717,5.382 183.840,5.480 183.956,5.586 184.062,5.702 184.160,5.825 184.247,5.956 184.324,6.093 184.389,6.235 184.444,6.382 184.486,6.534 184.517,6.688 184.535,6.844 184.542,7.001 184.542,87.242 184.535,87.398 184.517,87.554 184.486,87.708 184.444,87.860 184.389,88.007 184.324,88.149 184.247,88.286 184.160,88.417 184.062,88.540 183.956,88.656 183.840,88.762 183.717,88.860 183.586,88.947 183.449,89.024 183.307,89.089 183.160,89.144 183.008,89.186 182.854,89.217 182.698,89.235 182.542,89.241 7.001,89.242 6.844,89.235 6.688,89.217 6.534,89.186 6.382,89.144 6.235,89.089 6.093,89.024 5.956,88.947 5.825,88.860 5.702,88.762 5.586,88.656 5.480,88.540 5.382,88.417 5.295,88.286 5.218,88.149 5.153,88.007 5.098,87.860 5.056,87.708 5.025,87.554 5.007,87.398 5.000,87.242 5.001,7.001 5.007,6.844 5.025,6.688 5.056,6.534 5.098,6.382 5.153,6.235 5.218,6.093 5.295,5.956 5.382,5.825 5.480,5.702 5.586,5.586 5.702,5.480 5.825,5.382 5.956,5.295 6.093,5.218 6.235,5.153 6.382,5.098 6.534,5.056 6.688,5.025 6.844,5.007 7.001,5.000" style="fill:none;stroke-width:0.050000mm;stroke:black"/>
<polygon points="11.531,68.711 11.531,69.711 10.731,69.711 10.731,72.811 11.531,72.811 11.531,78.611 10.731,78.611 10.731,81.711 11.531,81.711 11.531,82.711 25.531,82.711 25.531,81.711 26.331,81.711 26.331,78.611 25.531,78.611 25.531,72.811 26.331,72.811 26.331,69.711 25.531,69.711 25.531,68.711" style="fill:none;stroke-width:0.050000mm;stroke:black"/>
<polygon points="30.591,68.711 30.591,69.711 29.791,69.711 29.791,72.811 30.591,72.811 30.591,78.611 29.791,78.611 29.791,81.711 30.591,81.711 30.591,82.711 44.591,82.711 44.591,81.711 45.391,81.711 45.391,78.611 44.591,78.611 44.591,72.811 45.391,72.811 45.391,69.711 44.591,69.711 44.591,68.711" style="fill:none;stroke-width:0.050000mm;stroke:black"/>
<polygon points="49.651,68.711 49.651,69.711 48.851,69.711 48.851,72.811 49.651,72.811 49.651,78.611 48.851,78.611 48.851,81.711 49.651,81.711 49.651,82.711 63.651,82.711 63.651,81.711 64.451,81.711 64.451,78.611 63.651,78.611 63.651,72.811 64.451,72.811 64.451,69.711 63.651,69.711 63.651,68.711" style="fill:none;stroke-width:0.050000mm;stroke:black"/>
<polygon points="68.711,68.711 68.711,69.711 67.911,69.711 67.911,72.811 68.711,72.811 68.711,78.611 67.911,78.611 67.911,81.711 68.711,81.711 68.711,82.711 82.711,82.711 82.711,81.711 83.511,81.711 83.511,78.611 82.711,78.611 82.711,72.811 83.511,72.811 83.511,69.711 82.711,69.711 82.711,68.711" style="fill:none;stroke-width:0.050000mm;stroke:black"/>
<polygon points="87.771,68.711 87.771,69.711 86.971,69.711 86.971,72.811 87.771,72.811 87.771,78.611 86.971,78.611 86.971,81.711 87.771,81.711 87.771,82.711 101.771,82.711 101.771,81.711 102.571,81.711 102.571,78.611 101.771,78.611 101.771,72.811 102.571,72.811 102.571,69.711 101.771,69.711 101.771,68.711" style="fill:none;stroke-width:0.050000mm;stroke:black"/>
<polygon points="106.831,68.711 106.831,69.711 106.031,69.711 106.031,72.811 106.831,72.811 106.831,78.611 106.031,78.611 106.031,81.711 106.831,81.711 106.831,82.711 120.831,82.711 120.831,81.711 121.631,81.711 121.631,78.611 120.831,78.611 120.831,72.811 121.631,72.811 121.631,69.711 120.831,69.711 120.831,68.711" style="fill:none;stroke-width:0.050000mm;stroke:black"/>
<polygon points="125.891,68.711 125.891,69.711 125.091,69.711 125.091,72.811 125.891,72.811 125.891,78.611 125.091,78.611 125.091,81.711 125.891,81.711 125.891,82.711 139.891,82.711 139.891,81.711 140.691,81.711 140.691,78.611 139.891,78.611 139.891,72.811 140.691,72.811 140.691,69.711 139.891,69.711 139.891,68.711" style="fill:none;stroke-width:0.050000mm;stroke:black"/>
<polygon points="144.951,68.711 144.951,69.711 144.151,69.711 144.151,72.811 144.951,72.811 144.951,78.611 144.151,78.611 144.151,81.711 144.951,81.711 144.951,82.711 158.951,82.711 158.951,81.711 159.751,81.711 159.751,78.611 158.951,78.611 158.951,72.811 159.751,72.811 159.751,69.711 158.951,69.711 158.951,68.711" style="fill:none;stroke-width:0.050000mm;stroke:black"/>
<polygon points="164.011,68.711 164.011,69.711 163.211,69.711 163.211,72.811 164.011,72.811 164.011,78.611 163.211,78.611 163.211,81.711 164.011,81.711 164.011,82.711 178.011,82.711 178.011,81.711 178.811,81.711 178.811,78.611 178.011,78.611 178.011,72.811 178.811,72.811 178.811,69.711 178.011,69.711 178.011,68.711" style="fill:none;stroke-width:0.050000mm;stroke:black"/>
<polygon points="11.531,49.651 11.531,50.651 10.731,50.651 10.731,53.751 11.531,53.751 11.531,59.551 10.731,59.551 10.731,62.651 11.531,62.651 11.531,63.651 25.531,63.651 25.531,62.651 26.331,62.651 26.331,59.551 25.531,59.551 25.531,53.751 26.331,53.751 26.331,50.651 25.531,50.651 25.531,49.651" style="fill:none;stroke-width:0.050000mm;stroke:black"/>
<polygon points="30.591,49.651 30.591,50.651 29.791,50.651 29.791,53.751 30.591,53.751 30.591,59.551 29.791,59.551 29.791,62.651 30.591,62.651 30.591,63.651 44.591,63.651 44.591,62.651 45.391,62.651 45.391,59.551 44.591,59.551 44.591,53.751 45.391,53.751 45.391,50.651 44.591,50.651 44.591,49.651" style="fill:none;stroke-width:0.050000mm;stroke:black"/>
<polygon points="49.651,49.651 49.651,50.651 48.851,50.651 48.851,53.751 49.651,53.751 49.651,59.551 48.851,59.551 48.851,62.651 49.651,62.651 49.651,63.651 63.651,63.651 63.651,62.651 64.451,62.651 64.451,59.551 63.651,59.551 63.651,53.751 64.451,53.751 64.451,50.651 63.651,50.651 63.651,49.651" style="fill:none;stroke-width:0.050000mm;stroke:black"/>
<polygon points="68.711,49.651 68.711,50.651 67.911,50.651 67.911,53.751 68.711,53.751 68.711,59.551 67.911,59.551 67.911,62.651 68.711,62.651 68.711,63.651 82.711,63.651 82.711,62.651 83.511,62.651 83.511,59.551 82.711,59.551 82.711,53.751 83.511,53.751 83.511,50.651 82.711,50.651 82.711,49.651" style="fill:none;stroke-width:0.050000mm;stroke:black"/>
<polygon points="87.771,49.651 87.771,50.651 86.971,50.651 86.971,53.751 87.771,53.751 87.771,59.551 86.971,59.551 86.971,62.651 87.771,62.651 87.771,63.651 101.771,63.651 101.771,62.651 102.571,62.651 102.571,59.551 101.771,59.551 101.771,53.751 102.571,53.751 102.571,50.651 101.771,50.651 101.771,49.651" style="fill:none;stroke-width:0.050000mm;stroke:black"/>
<polygon points="106.831,49.651 106.831,50.651 106.031,50.651 106.031,53.751 106.831,53.751 106.831,59.551 106.031,59.551 106.031,62.651 106.831,62.651 106.831,63.651 120.831,63.651 120.831,62.651 121.631,62.651 121.631,59.551 120.831,59.551 120.831,53.751 121.631,53.751 121.631,50.651 120.831,50.651 120.831,49.651" style="fill:none;stroke-width:0.050000mm;stroke:black"/>
<polygon points="125.891,49.651 125.891,50.651 125.091,50.651 125.091,53.751 125.891,53.751 125.891,59.551 125.091,59.551 125.091,62.651 125.891,62.651 125.891,63.651 139.891,63.651 139.891,62.651 140.691,62.651 140.691,59.551 139.891,59.551 139.891,53.751 140.691,53.751 140.691,50.651 139.891,50.651 139.891,49.651" style="fill:none;stroke-width:0.050000mm;stroke:black"/>
<polygon points="144.951,49.651 144.951,50.651 144.151,50.651 144.151,53.751 144.951,53.751 144.951,59.551 144.151,59.551 144.151,62.651 144.951,62.651 144.951,63.651 158.951,63.651 158.951,62.651 159.751,62.651 159.751,59.551 158.951,59.551 158.951,53.751 159.751,53.751 159.751,50.651 158.951,50.651 158.951,49.651" style="fill:none;stroke-width:0.050000mm;stroke:black"/>
<polygon points="164.011,49.651 164.011,50.651 163.211,50.651 163.211,53.751 164.011,53.751 164.011,59.551 163.211,59.551 163.211,62.651 164.011,62.651 164.011,63.651 178.011,63.651 178.011,62.651 178.811,62.651 178.811,59.551 178.011,59.551 178.011,53.751 178.811,53.751 178.811,50.651 178.011,50.651 178.011,49.651" style="fill:none;stroke-width:0.050000mm;stroke:black"/>
<polygon points="11.531,30.591 11.531,31.591 10.731,31.591 10.731,34.691 11.531,34.691 11.531,40.491 10.731,40.491 10.731,43.591 11.531,43.591 11.531,44.591 25.531,44.591 25.531,43.591 26.331,43.591 26.331,40.491 25.531,40.491 25.531,34.691 26.331,34.691 26.331,31.591 25.531,31.591 25.531,30.591" style="fill:none;stroke-width:0.050000mm;stroke:black"/>
<polygon points="30.591,30.591 30.591,31.591 29.791,31.591 29.791,34.691 30.591,34.691 30.591,40.491 29.791,40.491 29.791,43.591 30.591,43.591 30.591,44.591 44.591,44.591 44.591,43.591 45.391,43.591 45.391,40.491 44.591,40.491 44.591,34.691 45.391,34.691 45.391,31.591 44.591,31.591 44.591,30.591" style="fill:none;stroke-width:0.050000mm;stroke:black"/>
<polygon points="49.651,30.591 49.651,31.591 48.851,31.591 48.851,34.691 49.651,34.691 49.651,40.491 48.851,40.491 48.851,43.591 49.651,43.591 49.651,44.591 63.651,44.591 63.651,43.591 64.451,43.591 64.451,40.491 63.651,40.491 63.651,34.691 64.451,34.691 64.451,31.591 63.651,31.591 63.651,30.591" style="fill:none;stroke-width:0.050000mm;stroke:black"/>
<polygon points="68.711,30.591 68.711,31.591 67.911,31.591 67.911,34.691 68.711,34.691 68.711,40.491 67.911,40.491 67.911,43.591 68.711,43.591 68.711,44.591 82.711,44.591 82.711,43.591 83.511,43.591 83.511,40.491 82.711,40.491 82.711,34.691 83.511,34.691 83.511,31.591 82.711,31.591 82.711,30.591" style="fill:none;stroke-width:0.050000mm;stroke:black"/>
<polygon points="87.771,30.591 87.771,31.591 86.971,31.591 86.971,34.691 87.771,34.691 87.771,40.491 86.971,40.491 86.971,43.591 87.771,43.591 87.771,44.591 101.771,44.591 101.771,43.591 102.571,43.591 102.571,40.491 101.771,40.491 101.771,34.691 102.571,34.691 102.571,31.591 101.771,31.591 101.771,30.591" style="fill:none;stroke-width:0.050000mm;stroke:black"/>
<polygon points="106.831,30.591 106.831,31.591 106.031,31.591 106.031,34.691 106.831,34.691 106.831,40.491 106.031,40.491 106.031,43.591 106.831,43.591 106.831,44.591 120.831,44.591 120.831,43.591 121.631,43.591 121.631,40.491 120.831,40.491 120.831,34.691 121.631,34.691 121.631,31.591 120.831,31.591 120.831,30.591" style="fill:none;stroke-width:0.050000mm;stroke:black"/>
<polygon points="125.891,30.591 125.891,31.591 125.091,31.591 125.091,34.691 125.891,34.691 125.891,40.491 125.091,40.491 125.091,43.591 125.891,43.591 125.891,44.591 139.891,44.591 139.891,43.591 140.691,43.591 140.691,40.491 139.891,40.491 139.891,34.691 140.691,34.691 140.691,31.591 139.891,31.591 139.891,30.591" style="fill:none;stroke-width:0.050000mm;stroke:black"/>
<polygon points="144.951,30.591 144.951,31.591 144.151,31.591 144.151,34.691 144.951,34.691 144.951,40.491 144.151,40.491 144.151,43.591 144.951,43.591 144.951,44.591 158.951,44.591 158.951,43.591 159.751,43.591 159.751,40.491 158.951,40.491 158.951,34.691 159.751,34.691 159.751,31.591 158.951,31.591 158.951,30.591" style="fill:none;stroke-width:0.050000mm;stroke:black"/>
<polygon points="164.011,30.591 164.011,31.591 163.211,31.591 163.211,34.691 164.011,34.691 164.011,40.491 163.211,40.491 163.211,43.591 164.011,43.591 164.011,44.591 178.011,44.591 178.011,43.591 178.811,43.591 178.811,40.491 178.011,40.491 178.011,34.691 178.811,34.691 178.811,31.591 178.011,31.591 178.011,30.591" style="fill:none;stroke-width:0.050000mm;stroke:black"/>
<polygon points="11.531,11.531 11.531,12.531 10.731,12.531 10.731,15.631 11.531,15.631 11.531,21.431 10.731,21.431 10.731,24.531 11.531,24.531 11.531,25.531 25.531,25.531 25.531,24.531 26.331,24.531 26.331,21.431 25.531,21.431 25.531,15.631 26.331,15.631 26.331,12.531 25.531,12.531 25.531,11.531" style="fill:none;stroke-width:0.050000mm;stroke:black"/>
<polygon points="30.591,11.531 30.591,12.531 29.791,12.531 29.791,15.631 30.591,15.631 30.591,21.431 29.791,21.431 29.791,24.531 30.591,24.531 30.591,25.531 44.591,25.531 44.591,24.531 45.391,24.531 45.391,21.431 44.591,21.431 44.591,15.631 45.391,15.631 45.391,12.531 44.591,12.531 44.591,11.531" style="fill:none;stroke-width:0.050000mm;stroke:black"/>
<polygon points="49.651,11.531 49.651,12.531 48.851,12.531 48.851,15.631 49.651,15.631 49.651,21.431 48.851,21.431 48.851,24.531 49.651,24.531 49.651,25.531 63.651,25.531 63.651,24.531 64.451,24.531 64.451,21.431 63.651,21.431 63.651,15.631 64.451,15.631 64.451,12.531 63.651,12.531 63.651,11.531" style="fill:none;stroke-width:0.050000mm;stroke:black"/>
<polygon points="68.711,11.531 68.711,12.531 67.911,12.531 67.911,15.631 68.711,15.631 68.711,21.431 67.911,21.431 67.911,24.531 68.711,24.531 68.711,25.531 82.711,25.531 82.711,24.531 83.511,24.531 83.511,21.431 82.711,21.431 82.711,15.631 83.511,15.631 83.511,12.531 82.711,12.531 82.711,11.531" style="fill:none;stroke-width:0.050000mm;stroke:black"/>
<polygon points="87.771,11.531 87.771,12.531 86.971,12.531 86.971,15.631 87.771,15.631 87.771,21.431 86.971,21.431 86.971,24.531 87.771,24.531 87.771,25.531 101.771,25.531 101.771,24.531 102.571,24.531 102.571,21.431 101.771,21.431 101.771,15.631 102.571,15.631 102.571,12.531 101.771,12.531 101.771,11.531" style="fill:none;stroke-width:0.050000mm;stroke:black"/>
<polygon points="106.831,11.531 106.831,12.531 106.031,12.531 106.031,15.631 106.831,15.631 106.831,21.431 106.031,21.431 106.031,24.531 106.831,24.531 106.831,25.531 120.831,25.531 120.831,24.531 121.631,24.531 121.631,21.431 120.831,21.431 120.831,15.631 121.631,15.631 121.631,12.531 120.831,12.531 120.831,11.531" style="fill:none;stroke-width:0.050000mm;stroke:black"/>
<polygon points="125.891,11.531 125.891,12.531 125.091,12.531 125.091,15.631 125.891,15.631 125.891,21.431 125.091,21.431 125.091,24.531 125.891,24.531 125.891,25.531 139.891,25.531 139.891,24.531 140.691,24.531 140.691,21.431 139.891,21.431 139.891,15.631 140.691,15.631 140.691,12.531 139.891,12.531 139.891,11.531" style="fill:none;stroke-width:0.050000mm;stroke:black"/>
<polygon points="144.951,11.531 144.951,12.531 144.151,12.531 144.151,15.631 144.951,15.631 144.951,21.431 144.151,21.431 144.151,24.531 144.951,24.531 144.951,25.531 158.951,25.531 158.951,24.531 159.751,24.531 159.751,21.431 158.951,21.431 158.951,15.631 159.751,15.631 159.751,12.531 158.951,12.531 158.951,11.531" style="fill:none;stroke-width:0.050000mm;stroke:black"/>
<polygon points="164.011,11.531 164.011,12.531 163.211,12.531 163.211,15.631 164.011,15.631 164.011,21.431 163.211,21.431 163.211,24.531 164.011,24.531 164.011,25.531 178.011,25.531 178.011,24.531 178.811,24.531 178.811,21.431 178.011,21.431 178.011,15.631 178.811,15.631 178.811,12.531 178.011,12.531 178.011,11.531" style="fill:none;stroke-width:0.050000mm;stroke:black"/>
</svg>