<?xml version="1.0"?>
<!DOCTYPE svg PUBLIC "-//W3C//DTD SVG 1.1//EN" "http://www.w3.org/Graphics/SVG/1.1/DTD/svg11.dtd">
<svg width="206.25725383666898mm" height="140.40126552490372mm" viewBox="0 0 206.25725383666898 140.40126552490372" xmlns="http://www.w3.org/2000/svg" version="1.1">
<g id="Polyline" transform="translate(11.783124,12.602136) scale(1,-1)">
<path id="Polyline_w0000"  d="M 187.452 -5.001 L 187.844 -5.016 L 188.234 -5.062 L 188.619 -5.139 L 188.997 -5.245 L 189.365 -5.381 L 189.721 -5.545 L 190.064 -5.737 L 190.39 -5.955 L 190.699 -6.198 L 190.987 -6.465 L 191.254 -6.753 L 191.497 -7.062 L 191.715 -7.388 L 191.907 -7.731 L 192.071 -8.087 L 192.207 -8.455 L 192.313 -8.833 L 192.39 -9.218 L 192.436 -9.608 L 192.452 -10.001 L 192.452 -120.777 L 192.436 -121.169 L 192.39 -121.559 L 192.313 -121.944 L 192.207 -122.322 L 192.071 -122.69 L 191.907 -123.046 L 191.715 -123.389 L 191.497 -123.715 L 191.254 -124.024 L 190.987 -124.312 L 190.699 -124.579 L 190.39 -124.822 L 190.064 -125.04 L 189.721 -125.232 L 189.365 -125.396 L 188.997 -125.532 L 188.619 -125.638 L 188.234 -125.715 L 187.844 -125.761 L 187.452 -125.777 L 10.001000000000005 -125.777 L 9.608 -125.761 L 9.218 -125.715 L 8.833 -125.638 L 8.455 -125.532 L 8.087 -125.396 L 7.731 -125.232 L 7.388 -125.04 L 7.062 -124.822 L 6.753 -124.579 L 6.465 -124.312 L 6.198 -124.024 L 5.955 -123.715 L 5.737 -123.389 L 5.545 -123.046 L 5.381 -122.69 L 5.245 -122.322 L 5.139 -121.944 L 5.062 -121.559 L 5.016 -121.169 L 5.0 -120.776 L 5.001 -10.001000000000005 L 5.016 -9.608 L 5.062 -9.218 L 5.139 -8.833 L 5.245 -8.455 L 5.381 -8.087 L 5.545 -7.731 L 5.737 -7.388 L 5.955 -7.062 L 6.198 -6.753 L 6.465 -6.465 L 6.753 -6.198 L 7.062 -5.955 L 7.388 -5.737 L 7.731 -5.545 L 8.087 -5.381 L 8.455 -5.245 L 8.833 -5.139 L 9.218 -5.062 L 9.608 -5.016 L 10.001 -5.0 L 187.452 -5.001 " stroke="#191919" stroke-width="0.35 px" style="stroke-width:0.35;stroke-miterlimit:4;stroke-dasharray:none;stroke-linecap:square;fill:none;fill-opacity:1;fill-rule: evenodd"/>
<title>b'Polyline'</title>
</g>
<g id="Polyline001" transform="translate(11.783124,12.602136) scale(1,-1)">
<path id="Polyline001_w0000"  d="M 15.525 -101.251 L 15.525 -102.251 L 14.725 -102.251 L 14.725 -105.351 L 15.525 -105.351 L 15.525 -111.151 L 14.725 -111.151 L 14.725 -114.251 L 15.525 -114.251 L 15.525 -115.251 L 29.526 -115.251 L 29.526 -114.251 L 30.326 -114.251 L 30.326 -111.151 L 29.526 -111.151 L 29.526 -105.351 L 30.326 -105.351 L 30.326 -102.251 L 29.526 -102.251 L 29.526 -101.251 L 15.525 -101.251 " stroke="#191919" stroke-width="0.35 px" style="stroke-width:0.35;stroke-miterlimit:4;stroke-dasharray:none;stroke-linecap:square;fill:none;fill-opacity:1;fill-rule: evenodd"/>
<title>b'Polyline001'</title>
</g>
<g id="Polyline002" transform="translate(11.783124,12.602136) scale(1,-1)">
<path id="Polyline002_w0000"  d="M 34.576 -101.251 L 34.576 -102.251 L 33.776 -102.251 L 33.776 -105.351 L 34.576 -105.351 L 34.576 -111.151 L 33.776 -111.151 L 33.776 -114.251 L 34.576 -114.251 L 34.576 -115.251 L 48.576 -115.251 L 48.576 -114.251 L 49.376 -114.251 L 49.376 -111.151 L 48.576 -111.151 L 48.576 -105.351 L 49.376 -105.351 L 49.376 -102.251 L 48.576 -102.251 L 48.576 -101.251 L 34.576 -101.251 " stroke="#191919" stroke-width="0.35 px" style="stroke-width:0.35;stroke-miterlimit:4;stroke-dasharray:none;stroke-linecap:square;fill:none;fill-opacity:1;fill-rule: evenodd"/>
<title>b'Polyline002'</title>
</g>
<g id="Polyline003" transform="translate(11.783124,12.602136) scale(1,-1)">
<path id="Polyline003_w0000"  d="M 53.626 -101.251 L 53.626 -102.251 L 52.826 -102.251 L 52.826 -105.351 L 53.626 -105.351 L 53.626 -111.151 L 52.826 -111.151 L 52.826 -114.251 L 53.626 -114.251 L 53.626 -115.251 L 67.626 -115.251 L 67.626 -114.251 L 68.426 -114.251 L 68.426 -111.151 L 67.626 -111.151 L 67.626 -105.351 L 68.426 -105.351 L 68.426 -102.251 L 67.626 -102.251 L 67.626 -101.251 L 53.626 -101.251 " stroke="#191919" stroke-width="0.35 px" style="stroke-width:0.35;stroke-miterlimit:4;stroke-dasharray:none;stroke-linecap:square;fill:none;fill-opacity:1;fill-rule: evenodd"/>
<title>b'Polyline003'</title>
</g>
<g id="Polyline004" transform="translate(11.783124,12.602136) scale(1,-1)">
<path id="Polyline004_w0000"  d="M 72.676 -101.251 L 72.676 -102.251 L 71.876 -102.251 L 71.876 -105.351 L 72.676 -105.351 L 72.676 -111.151 L 71.876 -111.151 L 71.876 -114.251 L 72.676 -114.251 L 72.676 -115.251 L 86.676 -115.251 L 86.676 -114.251 L 87.476 -114.251 L 87.476 -111.151 L 86.676 -111.151 L 86.676 -105.351 L 87.476 -105.351 L 87.476 -102.251 L 86.676 -102.251 L 86.676 -101.251 L 72.676 -101.251 " stroke="#191919" stroke-width="0.35 px" style="stroke-width:0.35;stroke-miterlimit:4;stroke-dasharray:none;stroke-linecap:square;fill:none;fill-opacity:1;fill-rule: evenodd"/>
<title>b'Polyline004'</title>
</g>
<g id="Polyline005" transform="translate(11.783124,12.602136) scale(1,-1)">
<path id="Polyline005_w0000"  d="M 91.726 -101.251 L 91.726 -102.251 L 90.926 -102.251 L 90.926 -105.351 L 91.726 -105.351 L 91.726 -111.151 L 90.926 -111.151 L 90.926 -114.251 L 91.726 -114.251 L 91.726 -115.251 L 105.726 -115.251 L 105.726 -114.251 L 106.525 -114.251 L 106.525 -111.151 L 105.726 -111.151 L 105.726 -105.351 L 106.525 -105.351 L 106.525 -102.251 L 105.726 -102.251 L 105.726 -101.251 L 91.726 -101.251 " stroke="#191919" stroke-width="0.35 px" style="stroke-width:0.35;stroke-miterlimit:4;stroke-dasharray:none;stroke-linecap:square;fill:none;fill-opacity:1;fill-rule: evenodd"/>
<title>b'Polyline005'</title>
</g>
<g id="Polyline006" transform="translate(11.783124,12.602136) scale(1,-1)">
<path id="Polyline006_w0000"  d="M 110.775 -101.251 L 110.775 -102.251 L 109.976 -102.251 L 109.976 -105.351 L 110.775 -105.351 L 110.775 -111.151 L 109.976 -111.151 L 109.976 -114.251 L 110.775 -114.251 L 110.775 -115.251 L 124.775 -115.251 L 124.775 -114.251 L 125.575 -114.251 L 125.575 -111.151 L 124.775 -111.151 L 124.775 -105.351 L 125.575 -105.351 L 125.575 -102.251 L 124.775 -102.251 L 124.775 -101.251 L 110.775 -101.251 " stroke="#191919" stroke-width="0.35 px" style="stroke-width:0.35;stroke-miterlimit:4;stroke-dasharray:none;stroke-linecap:square;fill:none;fill-opacity:1;fill-rule: evenodd"/>
<title>b'Polyline006'</title>
</g>
<g id="Polyline007" transform="translate(11.783124,12.602136) scale(1,-1)">
<path id="Polyline007_w0000"  d="M 129.825 -101.251 L 129.825 -102.251 L 129.025 -102.251 L 129.025 -105.351 L 129.825 -105.351 L 129.825 -111.151 L 129.025 -111.151 L 129.025 -114.251 L 129.825 -114.251 L 129.825 -115.251 L 143.826 -115.251 L 143.826 -114.251 L 144.626 -114.251 L 144.626 -111.151 L 143.826 -111.151 L 143.826 -105.351 L 144.626 -105.351 L 144.626 -102.251 L 143.826 -102.251 L 143.826 -101.251 L 129.825 -101.251 " stroke="#191919" stroke-width="0.35 px" style="stroke-width:0.35;stroke-miterlimit:4;stroke-dasharray:none;stroke-linecap:square;fill:none;fill-opacity:1;fill-rule: evenodd"/>
<title>b'Polyline007'</title>
</g>
<g id="Polyline008" transform="translate(11.783124,12.602136) scale(1,-1)">
<path id="Polyline008_w0000"  d="M 148.876 -101.251 L 148.876 -102.251 L 148.076 -102.251 L 148.076 -105.351 L 148.876 -105.351 L 148.876 -111.151 L 148.076 -111.151 L 148.076 -114.251 L 148.876 -114.251 L 148.876 -115.251 L 162.876 -115.251 L 162.876 -114.251 L 163.676 -114.251 L 163.676 -111.151 L 162.876 -111.151 L 162.876 -105.351 L 163.676 -105.351 L 163.676 -102.251 L 162.876 -102.251 L 162.876 -101.251 L 148.876 -101.251 " stroke="#191919" stroke-width="0.35 px" style="stroke-width:0.35;stroke-miterlimit:4;stroke-dasharray:none;stroke-linecap:square;fill:none;fill-opacity:1;fill-rule: evenodd"/>
<title>b'Polyline008'</title>
</g>
<g id="Polyline009" transform="translate(11.783124,12.602136) scale(1,-1)">
<path id="Polyline009_w0000"  d="M 167.926 -101.251 L 167.926 -102.251 L 167.126 -102.251 L 167.126 -105.351 L 167.926 -105.351 L 167.926 -111.151 L 167.126 -111.151 L 167.126 -114.251 L 167.926 -114.251 L 167.926 -115.251 L 181.926 -115.251 L 181.926 -114.251 L 182.726 -114.251 L 182.726 -111.151 L 181.926 -111.151 L 181.926 -105.351 L 182.726 -105.351 L 182.726 -102.251 L 181.926 -102.251 L 181.926 -101.251 L 167.926 -101.251 " stroke="#191919" stroke-width="0.35 px" style="stroke-width:0.35;stroke-miterlimit:4;stroke-dasharray:none;stroke-linecap:square;fill:none;fill-opacity:1;fill-rule: evenodd"/>
<title>b'Polyline009'</title>
</g>
<g id="Polyline010" transform="translate(11.783124,12.602136) scale(1,-1)">
<path id="Polyline010_w0000"  d="M 15.525 -72.676 L 15.525 -73.676 L 14.725 -73.676 L 14.725 -76.776 L 15.525 -76.776 L 15.525 -82.576 L 14.725 -82.576 L 14.725 -85.676 L 15.525 -85.676 L 15.525 -86.676 L 29.526 -86.676 L 29.526 -85.676 L 30.326 -85.676 L 30.326 -82.576 L 29.526 -82.576 L 29.526 -76.776 L 30.326 -76.776 L 30.326 -73.676 L 29.526 -73.676 L 29.526 -72.676 L 15.525 -72.676 " stroke="#191919" stroke-width="0.35 px" style="stroke-width:0.35;stroke-miterlimit:4;stroke-dasharray:none;stroke-linecap:square;fill:none;fill-opacity:1;fill-rule: evenodd"/>
<title>b'Polyline010'</title>
</g>
<g id="Polyline011" transform="translate(11.783124,12.602136) scale(1,-1)">
<path id="Polyline011_w0000"  d="M 34.576 -72.676 L 34.576 -73.676 L 33.776 -73.676 L 33.776 -76.776 L 34.576 -76.776 L 34.576 -82.576 L 33.776 -82.576 L 33.776 -85.676 L 34.576 -85.676 L 34.576 -86.676 L 48.576 -86.676 L 48.576 -85.676 L 49.376 -85.676 L 49.376 -82.576 L 48.576 -82.576 L 48.576 -76.776 L 49.376 -76.776 L 49.376 -73.676 L 48.576 -73.676 L 48.576 -72.676 L 34.576 -72.676 " stroke="#191919" stroke-width="0.35 px" style="stroke-width:0.35;stroke-miterlimit:4;stroke-dasharray:none;stroke-linecap:square;fill:none;fill-opacity:1;fill-rule: evenodd"/>
<title>b'Polyline011'</title>
</g>
<g id="Polyline012" transform="translate(11.783124,12.602136) scale(1,-1)">
<path id="Polyline012_w0000"  d="M 53.626 -72.676 L 53.626 -73.676 L 52.826 -73.676 L 52.826 -76.776 L 53.626 -76.776 L 53.626 -82.576 L 52.826 -82.576 L 52.826 -85.676 L 53.626 -85.676 L 53.626 -86.676 L 67.626 -86.676 L 67.626 -85.676 L 68.426 -85.676 L 68.426 -82.576 L 67.626 -82.576 L 67.626 -76.776 L 68.426 -76.776 L 68.426 -73.676 L 67.626 -73.676 L 67.626 -72.676 L 53.626 -72.676 " stroke="#191919" stroke-width="0.35 px" style="stroke-width:0.35;stroke-miterlimit:4;stroke-dasharray:none;stroke-linecap:square;fill:none;fill-opacity:1;fill-rule: evenodd"/>
<title>b'Polyline012'</title>
</g>
<g id="Polyline013" transform="translate(11.783124,12.602136) scale(1,-1)">
<path id="Polyline013_w0000"  d="M 72.676 -72.676 L 72.676 -73.676 L 71.876 -73.676 L 71.876 -76.776 L 72.676 -76.776 L 72.676 -82.576 L 71.876 -82.576 L 71.876 -85.676 L 72.676 -85.676 L 72.676 -86.676 L 86.676 -86.676 L 86.676 -85.676 L 87.476 -85.676 L 87.476 -82.576 L 86.676 -82.576 L 86.676 -76.776 L 87.476 -76.776 L 87.476 -73.676 L 86.676 -73.676 L 86.676 -72.676 L 72.676 -72.676 " stroke="#191919" stroke-width="0.35 px" style="stroke-width:0.35;stroke-miterlimit:4;stroke-dasharray:none;stroke-linecap:square;fill:none;fill-opacity:1;fill-rule: evenodd"/>
<title>b'Polyline013'</title>
</g>
<g id="Polyline014" transform="translate(11.783124,12.602136) scale(1,-1)">
<path id="Polyline014_w0000"  d="M 91.726 -72.676 L 91.726 -73.676 L 90.926 -73.676 L 90.926 -76.776 L 91.726 -76.776 L 91.726 -82.576 L 90.926 -82.576 L 90.926 -85.676 L 91.726 -85.676 L 91.726 -86.676 L 105.726 -86.676 L 105.726 -85.676 L 106.525 -85.676 L 106.525 -82.576 L 105.726 -82.576 L 105.726 -76.776 L 106.525 -76.776 L 106.525 -73.676 L 105.726 -73.676 L 105.726 -72.676 L 91.726 -72.676 " stroke="#191919" stroke-width="0.35 px" style="stroke-width:0.35;stroke-miterlimit:4;stroke-dasharray:none;stroke-linecap:square;fill:none;fill-opacity:1;fill-rule: evenodd"/>
<title>b'Polyline014'</title>
</g>
<g id="Polyline015" transform="translate(11.783124,12.602136) scale(1,-1)">
<path id="Polyline015_w0000"  d="M 110.775 -72.676 L 110.775 -73.676 L 109.976 -73.676 L 109.976 -76.776 L 110.775 -76.776 L 110.775 -82.576 L 109.976 -82.576 L 109.976 -85.676 L 110.775 -85.676 L 110.775 -86.676 L 124.775 -86.676 L 124.775 -85.676 L 125.575 -85.676 L 125.575 -82.576 L 124.775 -82.576 L 124.775 -76.776 L 125.575 -76.776 L 125.575 -73.676 L 124.775 -73.676 L 124.775 -72.676 L 110.775 -72.676 " stroke="#191919" stroke-width="0.35 px" style="stroke-width:0.35;stroke-miterlimit:4;stroke-dasharray:none;stroke-linecap:square;fill:none;fill-opacity:1;fill-rule: evenodd"/>
<title>b'Polyline015'</title>
</g>
<g id="Polyline016" transform="translate(11.783124,12.602136) scale(1,-1)">
<path id="Polyline016_w0000"  d="M 129.825 -72.676 L 129.825 -73.676 L 129.025 -73.676 L 129.025 -76.776 L 129.825 -76.776 L 129.825 -82.576 L 129.025 -82.576 L 129.025 -85.676 L 129.825 -85.676 L 129.825 -86.676 L 143.826 -86.676 L 143.826 -85.676 L 144.626 -85.676 L 144.626 -82.576 L 143.826 -82.576 L 143.826 -76.776 L 144.626 -76.776 L 144.626 -73.676 L 143.826 -73.676 L 143.826 -72.676 L 129.825 -72.676 " stroke="#191919" stroke-width="0.35 px" style="stroke-width:0.35;stroke-miterlimit:4;stroke-dasharray:none;stroke-linecap:square;fill:none;fill-opacity:1;fill-rule: evenodd"/>
<title>b'Polyline016'</title>
</g>
<g id="Polyline017" transform="translate(11.783124,12.602136) scale(1,-1)">
<path id="Polyline017_w0000"  d="M 148.876 -72.676 L 148.876 -73.676 L 148.076 -73.676 L 148.076 -76.776 L 148.876 -76.776 L 148.876 -82.576 L 148.076 -82.576 L 148.076 -85.676 L 148.876 -85.676 L 148.876 -86.676 L 162.876 -86.676 L 162.876 -85.676 L 163.676 -85.676 L 163.676 -82.576 L 162.876 -82.576 L 162.876 -76.776 L 163.676 -76.776 L 163.676 -73.676 L 162.876 -73.676 L 162.876 -72.676 L 148.876 -72.676 " stroke="#191919" stroke-width="0.35 px" style="stroke-width:0.35;stroke-miterlimit:4;stroke-dasharray:none;stroke-linecap:square;fill:none;fill-opacity:1;fill-rule: evenodd"/>
<title>b'Polyline017'</title>
</g>
<g id="Polyline018" transform="translate(11.783124,12.602136) scale(1,-1)">
<path id="Polyline018_w0000"  d="M 167.926 -72.676 L 167.926 -73.676 L 167.126 -73.676 L 167.126 -76.776 L 167.926 -76.776 L 167.926 -82.576 L 167.126 -82.576 L 167.126 -85.676 L 167.926 -85.676 L 167.926 -86.676 L 181.926 -86.676 L 181.926 -85.676 L 182.726 -85.676 L 182.726 -82.576 L 181.926 -82.576 L 181.926 -76.776 L 182.726 -76.776 L 182.726 -73.676 L 181.926 -73.676 L 181.926 -72.676 L 167.926 -72.676 " stroke="#191919" stroke-width="0.35 px" style="stroke-width:0.35;stroke-miterlimit:4;stroke-dasharray:none;stroke-linecap:square;fill:none;fill-opacity:1;fill-rule: evenodd"/>
<title>b'Polyline018'</title>
</g>
<g id="Polyline019" transform="translate(11.783124,12.602136) scale(1,-1)">
<path id="Polyline019_w0000"  d="M 15.525 -44.101 L 15.525 -45.101 L 14.725 -45.101 L 14.725 -48.201 L 15.525 -48.201 L 15.525 -54.001 L 14.725 -54.001 L 14.725 -57.101 L 15.525 -57.101 L 15.525 -58.101 L 29.526 -58.101 L 29.526 -57.101 L 30.326 -57.101 L 30.326 -54.001 L 29.526 -54.001 L 29.526 -48.201 L 30.326 -48.201 L 30.326 -45.101 L 29.526 -45.101 L 29.526 -44.101 L 15.525 -44.101 " stroke="#191919" stroke-width="0.35 px" style="stroke-width:0.35;stroke-miterlimit:4;stroke-dasharray:none;stroke-linecap:square;fill:none;fill-opacity:1;fill-rule: evenodd"/>
<title>b'Polyline019'</title>
</g>
<g id="Polyline020" transform="translate(11.783124,12.602136) scale(1,-1)">
<path id="Polyline020_w0000"  d="M 34.576 -44.101 L 34.576 -45.101 L 33.776 -45.101 L 33.776 -48.201 L 34.576 -48.201 L 34.576 -54.001 L 33.776 -54.001 L 33.776 -57.101 L 34.576 -57.101 L 34.576 -58.101 L 48.576 -58.101 L 48.576 -57.101 L 49.376 -57.101 L 49.376 -54.001 L 48.576 -54.001 L 48.576 -48.201 L 49.376 -48.201 L 49.376 -45.101 L 48.576 -45.101 L 48.576 -44.101 L 34.576 -44.101 " stroke="#191919" stroke-width="0.35 px" style="stroke-width:0.35;stroke-miterlimit:4;stroke-dasharray:none;stroke-linecap:square;fill:none;fill-opacity:1;fill-rule: evenodd"/>
<title>b'Polyline020'</title>
</g>
<g id="Polyline021" transform="translate(11.783124,12.602136) scale(1,-1)">
<path id="Polyline021_w0000"  d="M 53.626 -44.101 L 53.626 -45.101 L 52.826 -45.101 L 52.826 -48.201 L 53.626 -48.201 L 53.626 -54.001 L 52.826 -54.001 L 52.826 -57.101 L 53.626 -57.101 L 53.626 -58.101 L 67.626 -58.101 L 67.626 -57.101 L 68.426 -57.101 L 68.426 -54.001 L 67.626 -54.001 L 67.626 -48.201 L 68.426 -48.201 L 68.426 -45.101 L 67.626 -45.101 L 67.626 -44.101 L 53.626 -44.101 " stroke="#191919" stroke-width="0.35 px" style="stroke-width:0.35;stroke-miterlimit:4;stroke-dasharray:none;stroke-linecap:square;fill:none;fill-opacity:1;fill-rule: evenodd"/>
<title>b'Polyline021'</title>
</g>
<g id="Polyline022" transform="translate(11.783124,12.602136) scale(1,-1)">
<path id="Polyline022_w0000"  d="M 72.676 -44.101 L 72.676 -45.101 L 71.876 -45.101 L 71.876 -48.201 L 72.676 -48.201 L 72.676 -54.001 L 71.876 -54.001 L 71.876 -57.101 L 72.676 -57.101 L 72.676 -58.101 L 86.676 -58.101 L 86.676 -57.101 L 87.476 -57.101 L 87.476 -54.001 L 86.676 -54.001 L 86.676 -48.201 L 87.476 -48.201 L 87.476 -45.101 L 86.676 -45.101 L 86.676 -44.101 L 72.676 -44.101 " stroke="#191919" stroke-width="0.35 px" style="stroke-width:0.35;stroke-miterlimit:4;stroke-dasharray:none;stroke-linecap:square;fill:none;fill-opacity:1;fill-rule: evenodd"/>
<title>b'Polyline022'</title>
</g>
<g id="Polyline023" transform="translate(11.783124,12.602136) scale(1,-1)">
<path id="Polyline023_w0000"  d="M 91.726 -44.101 L 91.726 -45.101 L 90.926 -45.101 L 90.926 -48.201 L 91.726 -48.201 L 91.726 -54.001 L 90.926 -54.001 L 90.926 -57.101 L 91.726 -57.101 L 91.726 -58.101 L 105.726 -58.101 L 105.726 -57.101 L 106.525 -57.101 L 106.525 -54.001 L 105.726 -54.001 L 105.726 -48.201 L 106.525 -48.201 L 106.525 -45.101 L 105.726 -45.101 L 105.726 -44.101 L 91.726 -44.101 " stroke="#191919" stroke-width="0.35 px" style="stroke-width:0.35;stroke-miterlimit:4;stroke-dasharray:none;stroke-linecap:square;fill:none;fill-opacity:1;fill-rule: evenodd"/>
<title>b'Polyline023'</title>
</g>
<g id="Polyline024" transform="translate(11.783124,12.602136) scale(1,-1)">
<path id="Polyline024_w0000"  d="M 110.775 -44.101 L 110.775 -45.101 L 109.976 -45.101 L 109.976 -48.201 L 110.775 -48.201 L 110.775 -54.001 L 109.976 -54.001 L 109.976 -57.101 L 110.775 -57.101 L 110.775 -58.101 L 124.775 -58.101 L 124.775 -57.101 L 125.575 -57.101 L 125.575 -54.001 L 124.775 -54.001 L 124.775 -48.201 L 125.575 -48.201 L 125.575 -45.101 L 124.775 -45.101 L 124.775 -44.101 L 110.775 -44.101 " stroke="#191919" stroke-width="0.35 px" style="stroke-width:0.35;stroke-miterlimit:4;stroke-dasharray:none;stroke-linecap:square;fill:none;fill-opacity:1;fill-rule: evenodd"/>
<title>b'Polyline024'</title>
</g>
<g id="Polyline025" transform="translate(11.783124,12.602136) scale(1,-1)">
<path id="Polyline025_w0000"  d="M 129.825 -44.101 L 129.825 -45.101 L 129.025 -45.101 L 129.025 -48.201 L 129.825 -48.201 L 129.825 -54.001 L 129.025 -54.001 L 129.025 -57.101 L 129.825 -57.101 L 129.825 -58.101 L 143.826 -58.101 L 143.826 -57.101 L 144.626 -57.101 L 144.626 -54.001 L 143.826 -54.001 L 143.826 -48.201 L 144.626 -48.201 L 144.626 -45.101 L 143.826 -45.101 L 143.826 -44.101 L 129.825 -44.101 " stroke="#191919" stroke-width="0.35 px" style="stroke-width:0.35;stroke-miterlimit:4;stroke-dasharray:none;stroke-linecap:square;fill:none;fill-opacity:1;fill-rule: evenodd"/>
<title>b'Polyline025'</title>
</g>
<g id="Polyline026" transform="translate(11.783124,12.602136) scale(1,-1)">
<path id="Polyline026_w0000"  d="M 148.876 -44.101 L 148.876 -45.101 L 148.076 -45.101 L 148.076 -48.201 L 148.876 -48.201 L 148.876 -54.001 L 148.076 -54.001 L 148.076 -57.101 L 148.876 -57.101 L 148.876 -58.101 L 162.876 -58.101 L 162.876 -57.101 L 163.676 -57.101 L 163.676 -54.001 L 162.876 -54.001 L 162.876 -48.201 L 163.676 -48.201 L 163.676 -45.101 L 162.876 -45.101 L 162.876 -44.101 L 148.876 -44.101 " stroke="#191919" stroke-width="0.35 px" style="stroke-width:0.35;stroke-miterlimit:4;stroke-dasharray:none;stroke-linecap:square;fill:none;fill-opacity:1;fill-rule: evenodd"/>
<title>b'Polyline026'</title>
</g>
<g id="Polyline027" transform="translate(11.783124,12.602136) scale(1,-1)">
<path id="Polyline027_w0000"  d="M 167.926 -44.101 L 167.926 -45.101 L 167.126 -45.101 L 167.126 -48.201 L 167.926 -48.201 L 167.926 -54.001 L 167.126 -54.001 L 167.126 -57.101 L 167.926 -57.101 L 167.926 -58.101 L 181.926 -58.101 L 181.926 -57.101 L 182.726 -57.101 L 182.726 -54.001 L 181.926 -54.001 L 181.926 -48.201 L 182.726 -48.201 L 182.726 -45.101 L 181.926 -45.101 L 181.926 -44.101 L 167.926 -44.101 " stroke="#191919" stroke-width="0.35 px" style="stroke-width:0.35;stroke-miterlimit:4;stroke-dasharray:none;stroke-linecap:square;fill:none;fill-opacity:1;fill-rule: evenodd"/>
<title>b'Polyline027'</title>
</g>
<g id="Polyline028" transform="translate(11.783124,12.602136) scale(1,-1)">
<path id="Polyline028_w0000"  d="M 15.525 -15.525 L 15.525 -16.526 L 14.725 -16.526 L 14.725 -19.626 L 15.525 -19.626 L 15.525 -25.425 L 14.725 -25.425 L 14.725 -28.526 L 15.525 -28.526 L 15.525 -29.526 L 29.526 -29.526 L 29.526 -28.526 L 30.326 -28.526 L 30.326 -25.425 L 29.526 -25.425 L 29.526 -19.626 L 30.326 -19.626 L 30.326 -16.526 L 29.526 -16.526 L 29.526 -15.525 L 15.525 -15.525 " stroke="#191919" stroke-width="0.35 px" style="stroke-width:0.35;stroke-miterlimit:4;stroke-dasharray:none;stroke-linecap:square;fill:none;fill-opacity:1;fill-rule: evenodd"/>
<title>b'Polyline028'</title>
</g>
<g id="Polyline029" transform="translate(11.783124,12.602136) scale(1,-1)">
<path id="Polyline029_w0000"  d="M 34.576 -15.525 L 34.576 -16.526 L 33.776 -16.526 L 33.776 -19.626 L 34.576 -19.626 L 34.576 -25.425 L 33.776 -25.425 L 33.776 -28.526 L 34.576 -28.526 L 34.576 -29.526 L 48.576 -29.526 L 48.576 -28.526 L 49.376 -28.526 L 49.376 -25.425 L 48.576 -25.425 L 48.576 -19.626 L 49.376 -19.626 L 49.376 -16.526 L 48.576 -16.526 L 48.576 -15.525 L 34.576 -15.525 " stroke="#191919" stroke-width="0.35 px" style="stroke-width:0.35;stroke-miterlimit:4;stroke-dasharray:none;stroke-linecap:square;fill:none;fill-opacity:1;fill-rule: evenodd"/>
<title>b'Polyline029'</title>
</g>
<g id="Polyline030" transform="translate(11.783124,12.602136) scale(1,-1)">
<path id="Polyline030_w0000"  d="M 53.626 -15.525 L 53.626 -16.526 L 52.826 -16.526 L 52.826 -19.626 L 53.626 -19.626 L 53.626 -25.425 L 52.826 -25.425 L 52.826 -28.526 L 53.626 -28.526 L 53.626 -29.526 L 67.626 -29.526 L 67.626 -28.526 L 68.426 -28.526 L 68.426 -25.425 L 67.626 -25.425 L 67.626 -19.626 L 68.426 -19.626 L 68.426 -16.526 L 67.626 -16.526 L 67.626 -15.525 L 53.626 -15.525 " stroke="#191919" stroke-width="0.35 px" style="stroke-width:0.35;stroke-miterlimit:4;stroke-dasharray:none;stroke-linecap:square;fill:none;fill-opacity:1;fill-rule: evenodd"/>
<title>b'Polyline030'</title>
</g>
<g id="Polyline031" transform="translate(11.783124,12.602136) scale(1,-1)">
<path id="Polyline031_w0000"  d="M 72.676 -15.525 L 72.676 -16.526 L 71.876 -16.526 L 71.876 -19.626 L 72.676 -19.626 L 72.676 -25.425 L 71.876 -25.425 L 71.876 -28.526 L 72.676 -28.526 L 72.676 -29.526 L 86.676 -29.526 L 86.676 -28.526 L 87.476 -28.526 L 87.476 -25.425 L 86.676 -25.425 L 86.676 -19.626 L 87.476 -19.626 L 87.476 -16.526 L 86.676 -16.526 L 86.676 -15.525 L 72.676 -15.525 " stroke="#191919" stroke-width="0.35 px" style="stroke-width:0.35;stroke-miterlimit:4;stroke-dasharray:none;stroke-linecap:square;fill:none;fill-opacity:1;fill-rule: evenodd"/>
<title>b'Polyline031'</title>
</g>
<g id="Polyline032" transform="translate(11.783124,12.602136) scale(1,-1)">
<path id="Polyline032_w0000"  d="M 91.726 -15.525 L 91.726 -16.526 L 90.926 -16.526 L 90.926 -19.626 L 91.726 -19.626 L 91.726 -25.425 L 90.926 -25.425 L 90.926 -28.526 L 91.726 -28.526 L 91.726 -29.526 L 105.726 -29.526 L 105.726 -28.526 L 106.525 -28.526 L 106.525 -25.425 L 105.726 -25.425 L 105.726 -19.626 L 106.525 -19.626 L 106.525 -16.526 L 105.726 -16.526 L 105.726 -15.525 L 91.726 -15.525 " stroke="#191919" stroke-width="0.35 px" style="stroke-width:0.35;stroke-miterlimit:4;stroke-dasharray:none;stroke-linecap:square;fill:none;fill-opacity:1;fill-rule: evenodd"/>
<title>b'Polyline032'</title>
</g>
<g id="Polyline033" transform="translate(11.783124,12.602136) scale(1,-1)">
<path id="Polyline033_w0000"  d="M 110.775 -15.525 L 110.775 -16.526 L 109.976 -16.526 L 109.976 -19.626 L 110.775 -19.626 L 110.775 -25.425 L 109.976 -25.425 L 109.976 -28.526 L 110.775 -28.526 L 110.775 -29.526 L 124.775 -29.526 L 124.775 -28.526 L 125.575 -28.526 L 125.575 -25.425 L 124.775 -25.425 L 124.775 -19.626 L 125.575 -19.626 L 125.575 -16.526 L 124.775 -16.526 L 124.775 -15.525 L 110.775 -15.525 " stroke="#191919" stroke-width="0.35 px" style="stroke-width:0.35;stroke-miterlimit:4;stroke-dasharray:none;stroke-linecap:square;fill:none;fill-opacity:1;fill-rule: evenodd"/>
<title>b'Polyline033'</title>
</g>
<g id="Polyline034" transform="translate(11.783124,12.602136) scale(1,-1)">
<path id="Polyline034_w0000"  d="M 129.825 -15.525 L 129.825 -16.526 L 129.025 -16.526 L 129.025 -19.626 L 129.825 -19.626 L 129.825 -25.425 L 129.025 -25.425 L 129.025 -28.526 L 129.825 -28.526 L 129.825 -29.526 L 143.826 -29.526 L 143.826 -28.526 L 144.626 -28.526 L 144.626 -25.425 L 143.826 -25.425 L 143.826 -19.626 L 144.626 -19.626 L 144.626 -16.526 L 143.826 -16.526 L 143.826 -15.525 L 129.825 -15.525 " stroke="#191919" stroke-width="0.35 px" style="stroke-width:0.35;stroke-miterlimit:4;stroke-dasharray:none;stroke-linecap:square;fill:none;fill-opacity:1;fill-rule: evenodd"/>
<title>b'Polyline034'</title>
</g>
<g id="Polyline035" transform="translate(11.783124,12.602136) scale(1,-1)">
<path id="Polyline035_w0000"  d="M 148.876 -15.525 L 148.876 -16.526 L 148.076 -16.526 L 148.076 -19.626 L 148.876 -19.626 L 148.876 -25.425 L 148.076 -25.425 L 148.076 -28.526 L 148.876 -28.526 L 148.876 -29.526 L 162.876 -29.526 L 162.876 -28.526 L 163.676 -28.526 L 163.676 -25.425 L 162.876 -25.425 L 162.876 -19.626 L 163.676 -19.626 L 163.676 -16.526 L 162.876 -16.526 L 162.876 -15.525 L 148.876 -15.525 " stroke="#191919" stroke-width="0.35 px" style="stroke-width:0.35;stroke-miterlimit:4;stroke-dasharray:none;stroke-linecap:square;fill:none;fill-opacity:1;fill-rule: evenodd"/>
<title>b'Polyline035'</title>
</g>
<g id="Polyline036" transform="translate(11.783124,12.602136) scale(1,-1)">
<path id="Polyline036_w0000"  d="M 167.926 -15.525 L 167.926 -16.526 L 167.126 -16.526 L 167.126 -19.626 L 167.926 -19.626 L 167.926 -25.425 L 167.126 -25.425 L 167.126 -28.526 L 167.926 -28.526 L 167.926 -29.526 L 181.926 -29.526 L 181.926 -28.526 L 182.726 -28.526 L 182.726 -25.425 L 181.926 -25.425 L 181.926 -19.626 L 182.726 -19.626 L 182.726 -16.526 L 181.926 -16.526 L 181.926 -15.525 L 167.926 -15.525 " stroke="#191919" stroke-width="0.35 px" style="stroke-width:0.35;stroke-miterlimit:4;stroke-dasharray:none;stroke-linecap:square;fill:none;fill-opacity:1;fill-rule: evenodd"/>
<title>b'Polyline036'</title>
</g>
<g id="LinkGroup" transform="translate(11.783124,12.602136) scale(1,-1)">
<path id="LinkGroup_w0000"  d="M 172.69100604248138 10.579005645753359 L 173.08300604248137 10.56400564575336 L 173.47300604248142 10.518005645753359 L 173.8580060424814 10.44100564575336 L 174.2360060424814 10.335005645753359 L 174.6040060424814 10.19900564575336 L 174.96000604248138 10.03500564575336 L 175.3030060424814 9.84300564575336 L 175.62900604248136 9.62500564575336 L 175.9380060424814 9.38200564575336 L 176.2260060424814 9.11500564575336 L 176.4930060424814 8.82700564575336 L 176.7360060424814 8.518005645753359 L 176.9540060424814 8.19200564575336 L 177.14600604248142 7.84900564575336 L 177.3100060424814 7.49300564575336 L 177.44600604248137 7.12500564575336 L 177.55200604248137 6.74700564575336 L 177.62900604248136 6.36200564575336 L 177.6750060424814 5.9720056457533595 L 177.69100604248138 5.5790056457533606 L 177.69100604248138 -105.19699435424664 L 177.6750060424814 -105.58899435424664 L 177.62900604248136 -105.97899435424664 L 177.55200604248137 -106.36399435424664 L 177.44600604248137 -106.74199435424664 L 177.3100060424814 -107.10999435424664 L 177.14600604248142 -107.46599435424665 L 176.9540060424814 -107.80899435424664 L 176.7360060424814 -108.13499435424664 L 176.4930060424814 -108.44399435424664 L 176.2260060424814 -108.73199435424664 L 175.9380060424814 -108.99899435424663 L 175.62900604248136 -109.24199435424664 L 175.3030060424814 -109.45999435424665 L 174.96000604248138 -109.65199435424664 L 174.6040060424814 -109.81599435424664 L 174.2360060424814 -109.95199435424664 L 173.8580060424814 -110.05799435424665 L 173.47300604248142 -110.13499435424664 L 173.08300604248137 -110.18099435424664 L 172.69100604248138 -110.19699435424664 L -4.759993957518603 -110.19699435424664 L -5.152993957518607 -110.18099435424664 L -5.542993957518608 -110.13499435424664 L -5.927993957518607 -110.05799435424665 L -6.3059939575186075 -109.95199435424664 L -6.673993957518608 -109.81599435424664 L -7.029993957518608 -109.65199435424664 L -7.372993957518608 -109.45999435424665 L -7.698993957518607 -109.24199435424664 L -8.007993957518607 -108.99899435424663 L -8.295993957518608 -108.73199435424664 L -8.562993957518607 -108.44399435424664 L -8.805993957518607 -108.13499435424664 L -9.023993957518607 -107.80899435424664 L -9.215993957518608 -107.46599435424665 L -9.379993957518607 -107.10999435424664 L -9.515993957518607 -106.74199435424664 L -9.621993957518608 -106.36399435424664 L -9.698993957518606 -105.97899435424664 L -9.744993957518608 -105.58899435424664 L -9.760993957518608 -105.19599435424664 L -9.759993957518606 5.579005645753355 L -9.744993957518608 5.9720056457533595 L -9.698993957518606 6.36200564575336 L -9.621993957518608 6.74700564575336 L -9.515993957518607 7.12500564575336 L -9.379993957518607 7.49300564575336 L -9.215993957518608 7.84900564575336 L -9.023993957518607 8.19200564575336 L -8.805993957518607 8.518005645753359 L -8.562993957518607 8.82700564575336 L -8.295993957518608 9.11500564575336 L -8.007993957518607 9.38200564575336 L -7.698993957518607 9.62500564575336 L -7.372993957518608 9.84300564575336 L -7.029993957518608 10.03500564575336 L -6.673993957518608 10.19900564575336 L -6.3059939575186075 10.335005645753359 L -5.927993957518607 10.44100564575336 L -5.542993957518608 10.518005645753359 L -5.152993957518607 10.56400564575336 L -4.759993957518608 10.58000564575336 L 172.69100604248138 10.579005645753359 " stroke="#000000" stroke-width="0.35 px" style="stroke-width:0.35;stroke-miterlimit:4;stroke-dasharray:none;stroke-linecap:square;fill:none;fill-opacity:1;fill-rule: evenodd"/>
<path id="LinkGroup_w0001"  d="M 0.7640060424813928 -85.67099435424664 L 0.7640060424813928 -86.67099435424664 L -0.0359939575186079 -86.67099435424664 L -0.0359939575186079 -89.77099435424664 L 0.7640060424813928 -89.77099435424664 L 0.7640060424813928 -95.57099435424664 L -0.0359939575186079 -95.57099435424664 L -0.0359939575186079 -98.67099435424664 L 0.7640060424813928 -98.67099435424664 L 0.7640060424813928 -99.67099435424664 L 14.765006042481392 -99.67099435424664 L 14.765006042481392 -98.67099435424664 L 15.565006042481393 -98.67099435424664 L 15.565006042481393 -95.57099435424664 L 14.765006042481392 -95.57099435424664 L 14.765006042481392 -89.77099435424664 L 15.565006042481393 -89.77099435424664 L 15.565006042481393 -86.67099435424664 L 14.765006042481392 -86.67099435424664 L 14.765006042481392 -85.67099435424664 L 0.7640060424813928 -85.67099435424664 " stroke="#000000" stroke-width="0.35 px" style="stroke-width:0.35;stroke-miterlimit:4;stroke-dasharray:none;stroke-linecap:square;fill:none;fill-opacity:1;fill-rule: evenodd"/>
<path id="LinkGroup_w0002"  d="M 19.815006042481393 -85.67099435424664 L 19.815006042481393 -86.67099435424664 L 19.015006042481396 -86.67099435424664 L 19.015006042481396 -89.77099435424664 L 19.815006042481393 -89.77099435424664 L 19.815006042481393 -95.57099435424664 L 19.015006042481396 -95.57099435424664 L 19.015006042481396 -98.67099435424664 L 19.815006042481393 -98.67099435424664 L 19.815006042481393 -99.67099435424664 L 33.81500604248139 -99.67099435424664 L 33.81500604248139 -98.67099435424664 L 34.61500604248139 -98.67099435424664 L 34.61500604248139 -95.57099435424664 L 33.81500604248139 -95.57099435424664 L 33.81500604248139 -89.77099435424664 L 34.61500604248139 -89.77099435424664 L 34.61500604248139 -86.67099435424664 L 33.81500604248139 -86.67099435424664 L 33.81500604248139 -85.67099435424664 L 19.815006042481393 -85.67099435424664 " stroke="#000000" stroke-width="0.35 px" style="stroke-width:0.35;stroke-miterlimit:4;stroke-dasharray:none;stroke-linecap:square;fill:none;fill-opacity:1;fill-rule: evenodd"/>
<path id="LinkGroup_w0003"  d="M 38.86500604248139 -85.67099435424664 L 38.86500604248139 -86.67099435424664 L 38.06500604248139 -86.67099435424664 L 38.06500604248139 -89.77099435424664 L 38.86500604248139 -89.77099435424664 L 38.86500604248139 -95.57099435424664 L 38.06500604248139 -95.57099435424664 L 38.06500604248139 -98.67099435424664 L 38.86500604248139 -98.67099435424664 L 38.86500604248139 -99.67099435424664 L 52.8650060424814 -99.67099435424664 L 52.8650060424814 -98.67099435424664 L 53.665006042481394 -98.67099435424664 L 53.665006042481394 -95.57099435424664 L 52.8650060424814 -95.57099435424664 L 52.8650060424814 -89.77099435424664 L 53.665006042481394 -89.77099435424664 L 53.665006042481394 -86.67099435424664 L 52.8650060424814 -86.67099435424664 L 52.8650060424814 -85.67099435424664 L 38.86500604248139 -85.67099435424664 " stroke="#000000" stroke-width="0.35 px" style="stroke-width:0.35;stroke-miterlimit:4;stroke-dasharray:none;stroke-linecap:square;fill:none;fill-opacity:1;fill-rule: evenodd"/>
<path id="LinkGroup_w0004"  d="M 57.915006042481394 -85.67099435424664 L 57.915006042481394 -86.67099435424664 L 57.1150060424814 -86.67099435424664 L 57.1150060424814 -89.77099435424664 L 57.915006042481394 -89.77099435424664 L 57.915006042481394 -95.57099435424664 L 57.1150060424814 -95.57099435424664 L 57.1150060424814 -98.67099435424664 L 57.915006042481394 -98.67099435424664 L 57.915006042481394 -99.67099435424664 L 71.9150060424814 -99.67099435424664 L 71.9150060424814 -98.67099435424664 L 72.71500604248139 -98.67099435424664 L 72.71500604248139 -95.57099435424664 L 71.9150060424814 -95.57099435424664 L 71.9150060424814 -89.77099435424664 L 72.71500604248139 -89.77099435424664 L 72.71500604248139 -86.67099435424664 L 71.9150060424814 -86.67099435424664 L 71.9150060424814 -85.67099435424664 L 57.915006042481394 -85.67099435424664 " stroke="#000000" stroke-width="0.35 px" style="stroke-width:0.35;stroke-miterlimit:4;stroke-dasharray:none;stroke-linecap:square;fill:none;fill-opacity:1;fill-rule: evenodd"/>
<path id="LinkGroup_w0005"  d="M 76.96500604248139 -85.67099435424664 L 76.96500604248139 -86.67099435424664 L 76.1650060424814 -86.67099435424664 L 76.1650060424814 -89.77099435424664 L 76.96500604248139 -89.77099435424664 L 76.96500604248139 -95.57099435424664 L 76.1650060424814 -95.57099435424664 L 76.1650060424814 -98.67099435424664 L 76.96500604248139 -98.67099435424664 L 76.96500604248139 -99.67099435424664 L 90.96500604248139 -99.67099435424664 L 90.96500604248139 -98.67099435424664 L 91.7640060424814 -98.67099435424664 L 91.7640060424814 -95.57099435424664 L 90.96500604248139 -95.57099435424664 L 90.96500604248139 -89.77099435424664 L 91.7640060424814 -89.77099435424664 L 91.7640060424814 -86.67099435424664 L 90.96500604248139 -86.67099435424664 L 90.96500604248139 -85.67099435424664 L 76.96500604248139 -85.67099435424664 " stroke="#000000" stroke-width="0.35 px" style="stroke-width:0.35;stroke-miterlimit:4;stroke-dasharray:none;stroke-linecap:square;fill:none;fill-opacity:1;fill-rule: evenodd"/>
<path id="LinkGroup_w0006"  d="M 96.0140060424814 -85.67099435424664 L 96.0140060424814 -86.67099435424664 L 95.21500604248139 -86.67099435424664 L 95.21500604248139 -89.77099435424664 L 96.0140060424814 -89.77099435424664 L 96.0140060424814 -95.57099435424664 L 95.21500604248139 -95.57099435424664 L 95.21500604248139 -98.67099435424664 L 96.0140060424814 -98.67099435424664 L 96.0140060424814 -99.67099435424664 L 110.0140060424814 -99.67099435424664 L 110.0140060424814 -98.67099435424664 L 110.8140060424814 -98.67099435424664 L 110.8140060424814 -95.57099435424664 L 110.0140060424814 -95.57099435424664 L 110.0140060424814 -89.77099435424664 L 110.8140060424814 -89.77099435424664 L 110.8140060424814 -86.67099435424664 L 110.0140060424814 -86.67099435424664 L 110.0140060424814 -85.67099435424664 L 96.0140060424814 -85.67099435424664 " stroke="#000000" stroke-width="0.35 px" style="stroke-width:0.35;stroke-miterlimit:4;stroke-dasharray:none;stroke-linecap:square;fill:none;fill-opacity:1;fill-rule: evenodd"/>
<path id="LinkGroup_w0007"  d="M 115.06400604248138 -85.67099435424664 L 115.06400604248138 -86.67099435424664 L 114.2640060424814 -86.67099435424664 L 114.2640060424814 -89.77099435424664 L 115.06400604248138 -89.77099435424664 L 115.06400604248138 -95.57099435424664 L 114.2640060424814 -95.57099435424664 L 114.2640060424814 -98.67099435424664 L 115.06400604248138 -98.67099435424664 L 115.06400604248138 -99.67099435424664 L 129.0650060424814 -99.67099435424664 L 129.0650060424814 -98.67099435424664 L 129.8650060424814 -98.67099435424664 L 129.8650060424814 -95.57099435424664 L 129.0650060424814 -95.57099435424664 L 129.0650060424814 -89.77099435424664 L 129.8650060424814 -89.77099435424664 L 129.8650060424814 -86.67099435424664 L 129.0650060424814 -86.67099435424664 L 129.0650060424814 -85.67099435424664 L 115.06400604248138 -85.67099435424664 " stroke="#000000" stroke-width="0.35 px" style="stroke-width:0.35;stroke-miterlimit:4;stroke-dasharray:none;stroke-linecap:square;fill:none;fill-opacity:1;fill-rule: evenodd"/>
<path id="LinkGroup_w0008"  d="M 134.1150060424814 -85.67099435424664 L 134.1150060424814 -86.67099435424664 L 133.3150060424814 -86.67099435424664 L 133.3150060424814 -89.77099435424664 L 134.1150060424814 -89.77099435424664 L 134.1150060424814 -95.57099435424664 L 133.3150060424814 -95.57099435424664 L 133.3150060424814 -98.67099435424664 L 134.1150060424814 -98.67099435424664 L 134.1150060424814 -99.67099435424664 L 148.1150060424814 -99.67099435424664 L 148.1150060424814 -98.67099435424664 L 148.91500604248137 -98.67099435424664 L 148.91500604248137 -95.57099435424664 L 148.1150060424814 -95.57099435424664 L 148.1150060424814 -89.77099435424664 L 148.91500604248137 -89.77099435424664 L 148.91500604248137 -86.67099435424664 L 148.1150060424814 -86.67099435424664 L 148.1150060424814 -85.67099435424664 L 134.1150060424814 -85.67099435424664 " stroke="#000000" stroke-width="0.35 px" style="stroke-width:0.35;stroke-miterlimit:4;stroke-dasharray:none;stroke-linecap:square;fill:none;fill-opacity:1;fill-rule: evenodd"/>
<path id="LinkGroup_w0009"  d="M 153.16500604248137 -85.67099435424664 L 153.16500604248137 -86.67099435424664 L 152.3650060424814 -86.67099435424664 L 152.3650060424814 -89.77099435424664 L 153.16500604248137 -89.77099435424664 L 153.16500604248137 -95.57099435424664 L 152.3650060424814 -95.57099435424664 L 152.3650060424814 -98.67099435424664 L 153.16500604248137 -98.67099435424664 L 153.16500604248137 -99.67099435424664 L 167.16500604248137 -99.67099435424664 L 167.16500604248137 -98.67099435424664 L 167.96500604248138 -98.67099435424664 L 167.96500604248138 -95.57099435424664 L 167.16500604248137 -95.57099435424664 L 167.16500604248137 -89.77099435424664 L 167.96500604248138 -89.77099435424664 L 167.96500604248138 -86.67099435424664 L 167.16500604248137 -86.67099435424664 L 167.16500604248137 -85.67099435424664 L 153.16500604248137 -85.67099435424664 " stroke="#000000" stroke-width="0.35 px" style="stroke-width:0.35;stroke-miterlimit:4;stroke-dasharray:none;stroke-linecap:square;fill:none;fill-opacity:1;fill-rule: evenodd"/>
<path id="LinkGroup_w0010"  d="M 0.7640060424813928 -57.09599435424664 L 0.7640060424813928 -58.09599435424664 L -0.0359939575186079 -58.09599435424664 L -0.0359939575186079 -61.195994354246636 L 0.7640060424813928 -61.195994354246636 L 0.7640060424813928 -66.99599435424663 L -0.0359939575186079 -66.99599435424663 L -0.0359939575186079 -70.09599435424664 L 0.7640060424813928 -70.09599435424664 L 0.7640060424813928 -71.09599435424664 L 14.765006042481392 -71.09599435424664 L 14.765006042481392 -70.09599435424664 L 15.565006042481393 -70.09599435424664 L 15.565006042481393 -66.99599435424663 L 14.765006042481392 -66.99599435424663 L 14.765006042481392 -61.195994354246636 L 15.565006042481393 -61.195994354246636 L 15.565006042481393 -58.09599435424664 L 14.765006042481392 -58.09599435424664 L 14.765006042481392 -57.09599435424664 L 0.7640060424813928 -57.09599435424664 " stroke="#000000" stroke-width="0.35 px" style="stroke-width:0.35;stroke-miterlimit:4;stroke-dasharray:none;stroke-linecap:square;fill:none;fill-opacity:1;fill-rule: evenodd"/>
<path id="LinkGroup_w0011"  d="M 19.815006042481393 -57.09599435424664 L 19.815006042481393 -58.09599435424664 L 19.015006042481396 -58.09599435424664 L 19.015006042481396 -61.195994354246636 L 19.815006042481393 -61.195994354246636 L 19.815006042481393 -66.99599435424663 L 19.015006042481396 -66.99599435424663 L 19.015006042481396 -70.09599435424664 L 19.815006042481393 -70.09599435424664 L 19.815006042481393 -71.09599435424664 L 33.81500604248139 -71.09599435424664 L 33.81500604248139 -70.09599435424664 L 34.61500604248139 -70.09599435424664 L 34.61500604248139 -66.99599435424663 L 33.81500604248139 -66.99599435424663 L 33.81500604248139 -61.195994354246636 L 34.61500604248139 -61.195994354246636 L 34.61500604248139 -58.09599435424664 L 33.81500604248139 -58.09599435424664 L 33.81500604248139 -57.09599435424664 L 19.815006042481393 -57.09599435424664 " stroke="#000000" stroke-width="0.35 px" style="stroke-width:0.35;stroke-miterlimit:4;stroke-dasharray:none;stroke-linecap:square;fill:none;fill-opacity:1;fill-rule: evenodd"/>
<path id="LinkGroup_w0012"  d="M 38.86500604248139 -57.09599435424664 L 38.86500604248139 -58.09599435424664 L 38.06500604248139 -58.09599435424664 L 38.06500604248139 -61.195994354246636 L 38.86500604248139 -61.195994354246636 L 38.86500604248139 -66.99599435424663 L 38.06500604248139 -66.99599435424663 L 38.06500604248139 -70.09599435424664 L 38.86500604248139 -70.09599435424664 L 38.86500604248139 -71.09599435424664 L 52.8650060424814 -71.09599435424664 L 52.8650060424814 -70.09599435424664 L 53.665006042481394 -70.09599435424664 L 53.665006042481394 -66.99599435424663 L 52.8650060424814 -66.99599435424663 L 52.8650060424814 -61.195994354246636 L 53.665006042481394 -61.195994354246636 L 53.665006042481394 -58.09599435424664 L 52.8650060424814 -58.09599435424664 L 52.8650060424814 -57.09599435424664 L 38.86500604248139 -57.09599435424664 " stroke="#000000" stroke-width="0.35 px" style="stroke-width:0.35;stroke-miterlimit:4;stroke-dasharray:none;stroke-linecap:square;fill:none;fill-opacity:1;fill-rule: evenodd"/>
<path id="LinkGroup_w0013"  d="M 57.915006042481394 -57.09599435424664 L 57.915006042481394 -58.09599435424664 L 57.1150060424814 -58.09599435424664 L 57.1150060424814 -61.195994354246636 L 57.915006042481394 -61.195994354246636 L 57.915006042481394 -66.99599435424663 L 57.1150060424814 -66.99599435424663 L 57.1150060424814 -70.09599435424664 L 57.915006042481394 -70.09599435424664 L 57.915006042481394 -71.09599435424664 L 71.9150060424814 -71.09599435424664 L 71.9150060424814 -70.09599435424664 L 72.71500604248139 -70.09599435424664 L 72.71500604248139 -66.99599435424663 L 71.9150060424814 -66.99599435424663 L 71.9150060424814 -61.195994354246636 L 72.71500604248139 -61.195994354246636 L 72.71500604248139 -58.09599435424664 L 71.9150060424814 -58.09599435424664 L 71.9150060424814 -57.09599435424664 L 57.915006042481394 -57.09599435424664 " stroke="#000000" stroke-width="0.35 px" style="stroke-width:0.35;stroke-miterlimit:4;stroke-dasharray:none;stroke-linecap:square;fill:none;fill-opacity:1;fill-rule: evenodd"/>
<path id="LinkGroup_w0014"  d="M 76.96500604248139 -57.09599435424664 L 76.96500604248139 -58.09599435424664 L 76.1650060424814 -58.09599435424664 L 76.1650060424814 -61.195994354246636 L 76.96500604248139 -61.195994354246636 L 76.96500604248139 -66.99599435424663 L 76.1650060424814 -66.99599435424663 L 76.1650060424814 -70.09599435424664 L 76.96500604248139 -70.09599435424664 L 76.96500604248139 -71.09599435424664 L 90.96500604248139 -71.09599435424664 L 90.96500604248139 -70.09599435424664 L 91.7640060424814 -70.09599435424664 L 91.7640060424814 -66.99599435424663 L 90.96500604248139 -66.99599435424663 L 90.96500604248139 -61.195994354246636 L 91.7640060424814 -61.195994354246636 L 91.7640060424814 -58.09599435424664 L 90.96500604248139 -58.09599435424664 L 90.96500604248139 -57.09599435424664 L 76.96500604248139 -57.09599435424664 " stroke="#000000" stroke-width="0.35 px" style="stroke-width:0.35;stroke-miterlimit:4;stroke-dasharray:none;stroke-linecap:square;fill:none;fill-opacity:1;fill-rule: evenodd"/>
<path id="LinkGroup_w0015"  d="M 96.0140060424814 -57.09599435424664 L 96.0140060424814 -58.09599435424664 L 95.21500604248139 -58.09599435424664 L 95.21500604248139 -61.195994354246636 L 96.0140060424814 -61.195994354246636 L 96.0140060424814 -66.99599435424663 L 95.21500604248139 -66.99599435424663 L 95.21500604248139 -70.09599435424664 L 96.0140060424814 -70.09599435424664 L 96.0140060424814 -71.09599435424664 L 110.0140060424814 -71.09599435424664 L 110.0140060424814 -70.09599435424664 L 110.8140060424814 -70.09599435424664 L 110.8140060424814 -66.99599435424663 L 110.0140060424814 -66.99599435424663 L 110.0140060424814 -61.195994354246636 L 110.8140060424814 -61.195994354246636 L 110.8140060424814 -58.09599435424664 L 110.0140060424814 -58.09599435424664 L 110.0140060424814 -57.09599435424664 L 96.0140060424814 -57.09599435424664 " stroke="#000000" stroke-width="0.35 px" style="stroke-width:0.35;stroke-miterlimit:4;stroke-dasharray:none;stroke-linecap:square;fill:none;fill-opacity:1;fill-rule: evenodd"/>
<path id="LinkGroup_w0016"  d="M 115.06400604248138 -57.09599435424664 L 115.06400604248138 -58.09599435424664 L 114.2640060424814 -58.09599435424664 L 114.2640060424814 -61.195994354246636 L 115.06400604248138 -61.195994354246636 L 115.06400604248138 -66.99599435424663 L 114.2640060424814 -66.99599435424663 L 114.2640060424814 -70.09599435424664 L 115.06400604248138 -70.09599435424664 L 115.06400604248138 -71.09599435424664 L 129.0650060424814 -71.09599435424664 L 129.0650060424814 -70.09599435424664 L 129.8650060424814 -70.09599435424664 L 129.8650060424814 -66.99599435424663 L 129.0650060424814 -66.99599435424663 L 129.0650060424814 -61.195994354246636 L 129.8650060424814 -61.195994354246636 L 129.8650060424814 -58.09599435424664 L 129.0650060424814 -58.09599435424664 L 129.0650060424814 -57.09599435424664 L 115.06400604248138 -57.09599435424664 " stroke="#000000" stroke-width="0.35 px" style="stroke-width:0.35;stroke-miterlimit:4;stroke-dasharray:none;stroke-linecap:square;fill:none;fill-opacity:1;fill-rule: evenodd"/>
<path id="LinkGroup_w0017"  d="M 134.1150060424814 -57.09599435424664 L 134.1150060424814 -58.09599435424664 L 133.3150060424814 -58.09599435424664 L 133.3150060424814 -61.195994354246636 L 134.1150060424814 -61.195994354246636 L 134.1150060424814 -66.99599435424663 L 133.3150060424814 -66.99599435424663 L 133.3150060424814 -70.09599435424664 L 134.1150060424814 -70.09599435424664 L 134.1150060424814 -71.09599435424664 L 148.1150060424814 -71.09599435424664 L 148.1150060424814 -70.09599435424664 L 148.91500604248137 -70.09599435424664 L 148.91500604248137 -66.99599435424663 L 148.1150060424814 -66.99599435424663 L 148.1150060424814 -61.195994354246636 L 148.91500604248137 -61.195994354246636 L 148.91500604248137 -58.09599435424664 L 148.1150060424814 -58.09599435424664 L 148.1150060424814 -57.09599435424664 L 134.1150060424814 -57.09599435424664 " stroke="#000000" stroke-width="0.35 px" style="stroke-width:0.35;stroke-miterlimit:4;stroke-dasharray:none;stroke-linecap:square;fill:none;fill-opacity:1;fill-rule: evenodd"/>
<path id="LinkGroup_w0018"  d="M 153.16500604248137 -57.09599435424664 L 153.16500604248137 -58.09599435424664 L 152.3650060424814 -58.09599435424664 L 152.3650060424814 -61.195994354246636 L 153.16500604248137 -61.195994354246636 L 153.16500604248137 -66.99599435424663 L 152.3650060424814 -66.99599435424663 L 152.3650060424814 -70.09599435424664 L 153.16500604248137 -70.09599435424664 L 153.16500604248137 -71.09599435424664 L 167.16500604248137 -71.09599435424664 L 167.16500604248137 -70.09599435424664 L 167.96500604248138 -70.09599435424664 L 167.96500604248138 -66.99599435424663 L 167.16500604248137 -66.99599435424663 L 167.16500604248137 -61.195994354246636 L 167.96500604248138 -61.195994354246636 L 167.96500604248138 -58.09599435424664 L 167.16500604248137 -58.09599435424664 L 167.16500604248137 -57.09599435424664 L 153.16500604248137 -57.09599435424664 " stroke="#000000" stroke-width="0.35 px" style="stroke-width:0.35;stroke-miterlimit:4;stroke-dasharray:none;stroke-linecap:square;fill:none;fill-opacity:1;fill-rule: evenodd"/>
<path id="LinkGroup_w0019"  d="M 0.7640060424813928 -28.52099435424664 L 0.7640060424813928 -29.52099435424664 L -0.0359939575186079 -29.52099435424664 L -0.0359939575186079 -32.62099435424664 L 0.7640060424813928 -32.62099435424664 L 0.7640060424813928 -38.42099435424664 L -0.0359939575186079 -38.42099435424664 L -0.0359939575186079 -41.52099435424664 L 0.7640060424813928 -41.52099435424664 L 0.7640060424813928 -42.52099435424664 L 14.765006042481392 -42.52099435424664 L 14.765006042481392 -41.52099435424664 L 15.565006042481393 -41.52099435424664 L 15.565006042481393 -38.42099435424664 L 14.765006042481392 -38.42099435424664 L 14.765006042481392 -32.62099435424664 L 15.565006042481393 -32.62099435424664 L 15.565006042481393 -29.52099435424664 L 14.765006042481392 -29.52099435424664 L 14.765006042481392 -28.52099435424664 L 0.7640060424813928 -28.52099435424664 " stroke="#000000" stroke-width="0.35 px" style="stroke-width:0.35;stroke-miterlimit:4;stroke-dasharray:none;stroke-linecap:square;fill:none;fill-opacity:1;fill-rule: evenodd"/>
<path id="LinkGroup_w0020"  d="M 19.815006042481393 -28.52099435424664 L 19.815006042481393 -29.52099435424664 L 19.015006042481396 -29.52099435424664 L 19.015006042481396 -32.62099435424664 L 19.815006042481393 -32.62099435424664 L 19.815006042481393 -38.42099435424664 L 19.015006042481396 -38.42099435424664 L 19.015006042481396 -41.52099435424664 L 19.815006042481393 -41.52099435424664 L 19.815006042481393 -42.52099435424664 L 33.81500604248139 -42.52099435424664 L 33.81500604248139 -41.52099435424664 L 34.61500604248139 -41.52099435424664 L 34.61500604248139 -38.42099435424664 L 33.81500604248139 -38.42099435424664 L 33.81500604248139 -32.62099435424664 L 34.61500604248139 -32.62099435424664 L 34.61500604248139 -29.52099435424664 L 33.81500604248139 -29.52099435424664 L 33.81500604248139 -28.52099435424664 L 19.815006042481393 -28.52099435424664 " stroke="#000000" stroke-width="0.35 px" style="stroke-width:0.35;stroke-miterlimit:4;stroke-dasharray:none;stroke-linecap:square;fill:none;fill-opacity:1;fill-rule: evenodd"/>
<path id="LinkGroup_w0021"  d="M 38.86500604248139 -28.52099435424664 L 38.86500604248139 -29.52099435424664 L 38.06500604248139 -29.52099435424664 L 38.06500604248139 -32.62099435424664 L 38.86500604248139 -32.62099435424664 L 38.86500604248139 -38.42099435424664 L 38.06500604248139 -38.42099435424664 L 38.06500604248139 -41.52099435424664 L 38.86500604248139 -41.52099435424664 L 38.86500604248139 -42.52099435424664 L 52.8650060424814 -42.52099435424664 L 52.8650060424814 -41.52099435424664 L 53.665006042481394 -41.52099435424664 L 53.665006042481394 -38.42099435424664 L 52.8650060424814 -38.42099435424664 L 52.8650060424814 -32.62099435424664 L 53.665006042481394 -32.62099435424664 L 53.665006042481394 -29.52099435424664 L 52.8650060424814 -29.52099435424664 L 52.8650060424814 -28.52099435424664 L 38.86500604248139 -28.52099435424664 " stroke="#000000" stroke-width="0.35 px" style="stroke-width:0.35;stroke-miterlimit:4;stroke-dasharray:none;stroke-linecap:square;fill:none;fill-opacity:1;fill-rule: evenodd"/>
<path id="LinkGroup_w0022"  d="M 57.915006042481394 -28.52099435424664 L 57.915006042481394 -29.52099435424664 L 57.1150060424814 -29.52099435424664 L 57.1150060424814 -32.62099435424664 L 57.915006042481394 -32.62099435424664 L 57.915006042481394 -38.42099435424664 L 57.1150060424814 -38.42099435424664 L 57.1150060424814 -41.52099435424664 L 57.915006042481394 -41.52099435424664 L 57.915006042481394 -42.52099435424664 L 71.9150060424814 -42.52099435424664 L 71.9150060424814 -41.52099435424664 L 72.71500604248139 -41.52099435424664 L 72.71500604248139 -38.42099435424664 L 71.9150060424814 -38.42099435424664 L 71.9150060424814 -32.62099435424664 L 72.71500604248139 -32.62099435424664 L 72.71500604248139 -29.52099435424664 L 71.9150060424814 -29.52099435424664 L 71.9150060424814 -28.52099435424664 L 57.915006042481394 -28.52099435424664 " stroke="#000000" stroke-width="0.35 px" style="stroke-width:0.35;stroke-miterlimit:4;stroke-dasharray:none;stroke-linecap:square;fill:none;fill-opacity:1;fill-rule: evenodd"/>
<path id="LinkGroup_w0023"  d="M 76.96500604248139 -28.52099435424664 L 76.96500604248139 -29.52099435424664 L 76.1650060424814 -29.52099435424664 L 76.1650060424814 -32.62099435424664 L 76.96500604248139 -32.62099435424664 L 76.96500604248139 -38.42099435424664 L 76.1650060424814 -38.42099435424664 L 76.1650060424814 -41.52099435424664 L 76.96500604248139 -41.52099435424664 L 76.96500604248139 -42.52099435424664 L 90.96500604248139 -42.52099435424664 L 90.96500604248139 -41.52099435424664 L 91.7640060424814 -41.52099435424664 L 91.7640060424814 -38.42099435424664 L 90.96500604248139 -38.42099435424664 L 90.96500604248139 -32.62099435424664 L 91.7640060424814 -32.62099435424664 L 91.7640060424814 -29.52099435424664 L 90.96500604248139 -29.52099435424664 L 90.96500604248139 -28.52099435424664 L 76.96500604248139 -28.52099435424664 " stroke="#000000" stroke-width="0.35 px" style="stroke-width:0.35;stroke-miterlimit:4;stroke-dasharray:none;stroke-linecap:square;fill:none;fill-opacity:1;fill-rule: evenodd"/>
<path id="LinkGroup_w0024"  d="M 96.0140060424814 -28.52099435424664 L 96.0140060424814 -29.52099435424664 L 95.21500604248139 -29.52099435424664 L 95.21500604248139 -32.62099435424664 L 96.0140060424814 -32.62099435424664 L 96.0140060424814 -38.42099435424664 L 95.21500604248139 -38.42099435424664 L 95.21500604248139 -41.52099435424664 L 96.0140060424814 -41.52099435424664 L 96.0140060424814 -42.52099435424664 L 110.0140060424814 -42.52099435424664 L 110.0140060424814 -41.52099435424664 L 110.8140060424814 -41.52099435424664 L 110.8140060424814 -38.42099435424664 L 110.0140060424814 -38.42099435424664 L 110.0140060424814 -32.62099435424664 L 110.8140060424814 -32.62099435424664 L 110.8140060424814 -29.52099435424664 L 110.0140060424814 -29.52099435424664 L 110.0140060424814 -28.52099435424664 L 96.0140060424814 -28.52099435424664 " stroke="#000000" stroke-width="0.35 px" style="stroke-width:0.35;stroke-miterlimit:4;stroke-dasharray:none;stroke-linecap:square;fill:none;fill-opacity:1;fill-rule: evenodd"/>
<path id="LinkGroup_w0025"  d="M 115.06400604248138 -28.52099435424664 L 115.06400604248138 -29.52099435424664 L 114.2640060424814 -29.52099435424664 L 114.2640060424814 -32.62099435424664 L 115.06400604248138 -32.62099435424664 L 115.06400604248138 -38.42099435424664 L 114.2640060424814 -38.42099435424664 L 114.2640060424814 -41.52099435424664 L 115.06400604248138 -41.52099435424664 L 115.06400604248138 -42.52099435424664 L 129.0650060424814 -42.52099435424664 L 129.0650060424814 -41.52099435424664 L 129.8650060424814 -41.52099435424664 L 129.8650060424814 -38.42099435424664 L 129.0650060424814 -38.42099435424664 L 129.0650060424814 -32.62099435424664 L 129.8650060424814 -32.62099435424664 L 129.8650060424814 -29.52099435424664 L 129.0650060424814 -29.52099435424664 L 129.0650060424814 -28.52099435424664 L 115.06400604248138 -28.52099435424664 " stroke="#000000" stroke-width="0.35 px" style="stroke-width:0.35;stroke-miterlimit:4;stroke-dasharray:none;stroke-linecap:square;fill:none;fill-opacity:1;fill-rule: evenodd"/>
<path id="LinkGroup_w0026"  d="M 134.1150060424814 -28.52099435424664 L 134.1150060424814 -29.52099435424664 L 133.3150060424814 -29.52099435424664 L 133.3150060424814 -32.62099435424664 L 134.1150060424814 -32.62099435424664 L 134.1150060424814 -38.42099435424664 L 133.3150060424814 -38.42099435424664 L 133.3150060424814 -41.52099435424664 L 134.1150060424814 -41.52099435424664 L 134.1150060424814 -42.52099435424664 L 148.1150060424814 -42.52099435424664 L 148.1150060424814 -41.52099435424664 L 148.91500604248137 -41.52099435424664 L 148.91500604248137 -38.42099435424664 L 148.1150060424814 -38.42099435424664 L 148.1150060424814 -32.62099435424664 L 148.91500604248137 -32.62099435424664 L 148.91500604248137 -29.52099435424664 L 148.1150060424814 -29.52099435424664 L 148.1150060424814 -28.52099435424664 L 134.1150060424814 -28.52099435424664 " stroke="#000000" stroke-width="0.35 px" style="stroke-width:0.35;stroke-miterlimit:4;stroke-dasharray:none;stroke-linecap:square;fill:none;fill-opacity:1;fill-rule: evenodd"/>
<path id="LinkGroup_w0027"  d="M 153.16500604248137 -28.52099435424664 L 153.16500604248137 -29.52099435424664 L 152.3650060424814 -29.52099435424664 L 152.3650060424814 -32.62099435424664 L 153.16500604248137 -32.62099435424664 L 153.16500604248137 -38.42099435424664 L 152.3650060424814 -38.42099435424664 L 152.3650060424814 -41.52099435424664 L 153.16500604248137 -41.52099435424664 L 153.16500604248137 -42.52099435424664 L 167.16500604248137 -42.52099435424664 L 167.16500604248137 -41.52099435424664 L 167.96500604248138 -41.52099435424664 L 167.96500604248138 -38.42099435424664 L 167.16500604248137 -38.42099435424664 L 167.16500604248137 -32.62099435424664 L 167.96500604248138 -32.62099435424664 L 167.96500604248138 -29.52099435424664 L 167.16500604248137 -29.52099435424664 L 167.16500604248137 -28.52099435424664 L 153.16500604248137 -28.52099435424664 " stroke="#000000" stroke-width="0.35 px" style="stroke-width:0.35;stroke-miterlimit:4;stroke-dasharray:none;stroke-linecap:square;fill:none;fill-opacity:1;fill-rule: evenodd"/>
<path id="LinkGroup_w0028"  d="M 0.7640060424813928 0.055005645753359644 L 0.7640060424813928 -0.9459943542466398 L -0.0359939575186079 -0.9459943542466398 L -0.0359939575186079 -4.045994354246641 L 0.7640060424813928 -4.045994354246641 L 0.7640060424813928 -9.84499435424664 L -0.0359939575186079 -9.84499435424664 L -0.0359939575186079 -12.94599435424664 L 0.7640060424813928 -12.94599435424664 L 0.7640060424813928 -13.94599435424664 L 14.765006042481392 -13.94599435424664 L 14.765006042481392 -12.94599435424664 L 15.565006042481393 -12.94599435424664 L 15.565006042481393 -9.84499435424664 L 14.765006042481392 -9.84499435424664 L 14.765006042481392 -4.045994354246641 L 15.565006042481393 -4.045994354246641 L 15.565006042481393 -0.9459943542466398 L 14.765006042481392 -0.9459943542466398 L 14.765006042481392 0.055005645753359644 L 0.7640060424813928 0.055005645753359644 " stroke="#000000" stroke-width="0.35 px" style="stroke-width:0.35;stroke-miterlimit:4;stroke-dasharray:none;stroke-linecap:square;fill:none;fill-opacity:1;fill-rule: evenodd"/>
<path id="LinkGroup_w0029"  d="M 19.815006042481393 0.055005645753359644 L 19.815006042481393 -0.9459943542466398 L 19.015006042481396 -0.9459943542466398 L 19.015006042481396 -4.045994354246641 L 19.815006042481393 -4.045994354246641 L 19.815006042481393 -9.84499435424664 L 19.015006042481396 -9.84499435424664 L 19.015006042481396 -12.94599435424664 L 19.815006042481393 -12.94599435424664 L 19.815006042481393 -13.94599435424664 L 33.81500604248139 -13.94599435424664 L 33.81500604248139 -12.94599435424664 L 34.61500604248139 -12.94599435424664 L 34.61500604248139 -9.84499435424664 L 33.81500604248139 -9.84499435424664 L 33.81500604248139 -4.045994354246641 L 34.61500604248139 -4.045994354246641 L 34.61500604248139 -0.9459943542466398 L 33.81500604248139 -0.9459943542466398 L 33.81500604248139 0.055005645753359644 L 19.815006042481393 0.055005645753359644 " stroke="#000000" stroke-width="0.35 px" style="stroke-width:0.35;stroke-miterlimit:4;stroke-dasharray:none;stroke-linecap:square;fill:none;fill-opacity:1;fill-rule: evenodd"/>
<path id="LinkGroup_w0030"  d="M 38.86500604248139 0.055005645753359644 L 38.86500604248139 -0.9459943542466398 L 38.06500604248139 -0.9459943542466398 L 38.06500604248139 -4.045994354246641 L 38.86500604248139 -4.045994354246641 L 38.86500604248139 -9.84499435424664 L 38.06500604248139 -9.84499435424664 L 38.06500604248139 -12.94599435424664 L 38.86500604248139 -12.94599435424664 L 38.86500604248139 -13.94599435424664 L 52.8650060424814 -13.94599435424664 L 52.8650060424814 -12.94599435424664 L 53.665006042481394 -12.94599435424664 L 53.665006042481394 -9.84499435424664 L 52.8650060424814 -9.84499435424664 L 52.8650060424814 -4.045994354246641 L 53.665006042481394 -4.045994354246641 L 53.665006042481394 -0.9459943542466398 L 52.8650060424814 -0.9459943542466398 L 52.8650060424814 0.055005645753359644 L 38.86500604248139 0.055005645753359644 " stroke="#000000" stroke-width="0.35 px" style="stroke-width:0.35;stroke-miterlimit:4;stroke-dasharray:none;stroke-linecap:square;fill:none;fill-opacity:1;fill-rule: evenodd"/>
<path id="LinkGroup_w0031"  d="M 57.915006042481394 0.055005645753359644 L 57.915006042481394 -0.9459943542466398 L 57.1150060424814 -0.9459943542466398 L 57.1150060424814 -4.045994354246641 L 57.915006042481394 -4.045994354246641 L 57.915006042481394 -9.84499435424664 L 57.1150060424814 -9.84499435424664 L 57.1150060424814 -12.94599435424664 L 57.915006042481394 -12.94599435424664 L 57.915006042481394 -13.94599435424664 L 71.9150060424814 -13.94599435424664 L 71.9150060424814 -12.94599435424664 L 72.71500604248139 -12.94599435424664 L 72.71500604248139 -9.84499435424664 L 71.9150060424814 -9.84499435424664 L 71.9150060424814 -4.045994354246641 L 72.71500604248139 -4.045994354246641 L 72.71500604248139 -0.9459943542466398 L 71.9150060424814 -0.9459943542466398 L 71.9150060424814 0.055005645753359644 L 57.915006042481394 0.055005645753359644 " stroke="#000000" stroke-width="0.35 px" style="stroke-width:0.35;stroke-miterlimit:4;stroke-dasharray:none;stroke-linecap:square;fill:none;fill-opacity:1;fill-rule: evenodd"/>
<path id="LinkGroup_w0032"  d="M 76.96500604248139 0.055005645753359644 L 76.96500604248139 -0.9459943542466398 L 76.1650060424814 -0.9459943542466398 L 76.1650060424814 -4.045994354246641 L 76.96500604248139 -4.045994354246641 L 76.96500604248139 -9.84499435424664 L 76.1650060424814 -9.84499435424664 L 76.1650060424814 -12.94599435424664 L 76.96500604248139 -12.94599435424664 L 76.96500604248139 -13.94599435424664 L 90.96500604248139 -13.94599435424664 L 90.96500604248139 -12.94599435424664 L 91.7640060424814 -12.94599435424664 L 91.7640060424814 -9.84499435424664 L 90.96500604248139 -9.84499435424664 L 90.96500604248139 -4.045994354246641 L 91.7640060424814 -4.045994354246641 L 91.7640060424814 -0.9459943542466398 L 90.96500604248139 -0.9459943542466398 L 90.96500604248139 0.055005645753359644 L 76.96500604248139 0.055005645753359644 " stroke="#000000" stroke-width="0.35 px" style="stroke-width:0.35;stroke-miterlimit:4;stroke-dasharray:none;stroke-linecap:square;fill:none;fill-opacity:1;fill-rule: evenodd"/>
<path id="LinkGroup_w0033"  d="M 96.0140060424814 0.055005645753359644 L 96.0140060424814 -0.9459943542466398 L 95.21500604248139 -0.9459943542466398 L 95.21500604248139 -4.045994354246641 L 96.0140060424814 -4.045994354246641 L 96.0140060424814 -9.84499435424664 L 95.21500604248139 -9.84499435424664 L 95.21500604248139 -12.94599435424664 L 96.0140060424814 -12.94599435424664 L 96.0140060424814 -13.94599435424664 L 110.0140060424814 -13.94599435424664 L 110.0140060424814 -12.94599435424664 L 110.8140060424814 -12.94599435424664 L 110.8140060424814 -9.84499435424664 L 110.0140060424814 -9.84499435424664 L 110.0140060424814 -4.045994354246641 L 110.8140060424814 -4.045994354246641 L 110.8140060424814 -0.9459943542466398 L 110.0140060424814 -0.9459943542466398 L 110.0140060424814 0.055005645753359644 L 96.0140060424814 0.055005645753359644 " stroke="#000000" stroke-width="0.35 px" style="stroke-width:0.35;stroke-miterlimit:4;stroke-dasharray:none;stroke-linecap:square;fill:none;fill-opacity:1;fill-rule: evenodd"/>
<path id="LinkGroup_w0034"  d="M 115.06400604248138 0.055005645753359644 L 115.06400604248138 -0.9459943542466398 L 114.2640060424814 -0.9459943542466398 L 114.2640060424814 -4.045994354246641 L 115.06400604248138 -4.045994354246641 L 115.06400604248138 -9.84499435424664 L 114.2640060424814 -9.84499435424664 L 114.2640060424814 -12.94599435424664 L 115.06400604248138 -12.94599435424664 L 115.06400604248138 -13.94599435424664 L 129.0650060424814 -13.94599435424664 L 129.0650060424814 -12.94599435424664 L 129.8650060424814 -12.94599435424664 L 129.8650060424814 -9.84499435424664 L 129.0650060424814 -9.84499435424664 L 129.0650060424814 -4.045994354246641 L 129.8650060424814 -4.045994354246641 L 129.8650060424814 -0.9459943542466398 L 129.0650060424814 -0.9459943542466398 L 129.0650060424814 0.055005645753359644 L 115.06400604248138 0.055005645753359644 " stroke="#000000" stroke-width="0.35 px" style="stroke-width:0.35;stroke-miterlimit:4;stroke-dasharray:none;stroke-linecap:square;fill:none;fill-opacity:1;fill-rule: evenodd"/>
<path id="LinkGroup_w0035"  d="M 134.1150060424814 0.055005645753359644 L 134.1150060424814 -0.9459943542466398 L 133.3150060424814 -0.9459943542466398 L 133.3150060424814 -4.045994354246641 L 134.1150060424814 -4.045994354246641 L 134.1150060424814 -9.84499435424664 L 133.3150060424814 -9.84499435424664 L 133.3150060424814 -12.94599435424664 L 134.1150060424814 -12.94599435424664 L 134.1150060424814 -13.94599435424664 L 148.1150060424814 -13.94599435424664 L 148.1150060424814 -12.94599435424664 L 148.91500604248137 -12.94599435424664 L 148.91500604248137 -9.84499435424664 L 148.1150060424814 -9.84499435424664 L 148.1150060424814 -4.045994354246641 L 148.91500604248137 -4.045994354246641 L 148.91500604248137 -0.9459943542466398 L 148.1150060424814 -0.9459943542466398 L 148.1150060424814 0.055005645753359644 L 134.1150060424814 0.055005645753359644 " stroke="#000000" stroke-width="0.35 px" style="stroke-width:0.35;stroke-miterlimit:4;stroke-dasharray:none;stroke-linecap:square;fill:none;fill-opacity:1;fill-rule: evenodd"/>
<path id="LinkGroup_w0036"  d="M 153.16500604248137 0.055005645753359644 L 153.16500604248137 -0.9459943542466398 L 152.3650060424814 -0.9459943542466398 L 152.3650060424814 -4.045994354246641 L 153.16500604248137 -4.045994354246641 L 153.16500604248137 -9.84499435424664 L 152.3650060424814 -9.84499435424664 L 152.3650060424814 -12.94599435424664 L 153.16500604248137 -12.94599435424664 L 153.16500604248137 -13.94599435424664 L 167.16500604248137 -13.94599435424664 L 167.16500604248137 -12.94599435424664 L 167.96500604248138 -12.94599435424664 L 167.96500604248138 -9.84499435424664 L 167.16500604248137 -9.84499435424664 L 167.16500604248137 -4.045994354246641 L 167.96500604248138 -4.045994354246641 L 167.96500604248138 -0.9459943542466398 L 167.16500604248137 -0.9459943542466398 L 167.16500604248137 0.055005645753359644 L 153.16500604248137 0.055005645753359644 " stroke="#000000" stroke-width="0.35 px" style="stroke-width:0.35;stroke-miterlimit:4;stroke-dasharray:none;stroke-linecap:square;fill:none;fill-opacity:1;fill-rule: evenodd"/>
<title>b'LinkGroup'</title>
</g>
<g id="Sketch" transform="translate(11.783124,12.602136) scale(1,-1)">
<circle cx="8.003079" cy="-21.059404" r="2.119122" stroke="#000000" stroke-width="0.35 px" style="stroke-width:0.35;stroke-miterlimit:4;stroke-dasharray:none;stroke-linecap:square;fill:none"/>
<circle cx="26.982751999999998" cy="-21.059404" r="2.119122" stroke="#000000" stroke-width="0.35 px" style="stroke-width:0.35;stroke-miterlimit:4;stroke-dasharray:none;stroke-linecap:square;fill:none"/>
<circle cx="46.227261" cy="-21.059404" r="2.119122" stroke="#000000" stroke-width="0.35 px" style="stroke-width:0.35;stroke-miterlimit:4;stroke-dasharray:none;stroke-linecap:square;fill:none"/>
<circle cx="65.295204" cy="-21.059404" r="2.119122" stroke="#000000" stroke-width="0.35 px" style="stroke-width:0.35;stroke-miterlimit:4;stroke-dasharray:none;stroke-linecap:square;fill:none"/>
<circle cx="84.428551" cy="-21.056374" r="2.119122" stroke="#000000" stroke-width="0.35 px" style="stroke-width:0.35;stroke-miterlimit:4;stroke-dasharray:none;stroke-linecap:square;fill:none"/>
<circle cx="103.540634" cy="-21.056374" r="2.119122" stroke="#000000" stroke-width="0.35 px" style="stroke-width:0.35;stroke-miterlimit:4;stroke-dasharray:none;stroke-linecap:square;fill:none"/>
<circle cx="122.678505" cy="-21.054035000000002" r="2.119122" stroke="#000000" stroke-width="0.35 px" style="stroke-width:0.35;stroke-miterlimit:4;stroke-dasharray:none;stroke-linecap:square;fill:none"/>
<circle cx="141.74646" cy="-21.054035000000002" r="2.119122" stroke="#000000" stroke-width="0.35 px" style="stroke-width:0.35;stroke-miterlimit:4;stroke-dasharray:none;stroke-linecap:square;fill:none"/>
<circle cx="160.858551" cy="-21.054035000000002" r="2.119122" stroke="#000000" stroke-width="0.35 px" style="stroke-width:0.35;stroke-miterlimit:4;stroke-dasharray:none;stroke-linecap:square;fill:none"/>
<circle cx="8.015759" cy="-49.570505" r="2.119122" stroke="#000000" stroke-width="0.35 px" style="stroke-width:0.35;stroke-miterlimit:4;stroke-dasharray:none;stroke-linecap:square;fill:none"/>
<circle cx="26.995431999999997" cy="-49.570505" r="2.119122" stroke="#000000" stroke-width="0.35 px" style="stroke-width:0.35;stroke-miterlimit:4;stroke-dasharray:none;stroke-linecap:square;fill:none"/>
<circle cx="46.239941" cy="-49.570505" r="2.119122" stroke="#000000" stroke-width="0.35 px" style="stroke-width:0.35;stroke-miterlimit:4;stroke-dasharray:none;stroke-linecap:square;fill:none"/>
<circle cx="65.307884" cy="-49.570505" r="2.119122" stroke="#000000" stroke-width="0.35 px" style="stroke-width:0.35;stroke-miterlimit:4;stroke-dasharray:none;stroke-linecap:square;fill:none"/>
<circle cx="84.441231" cy="-49.567475" r="2.119122" stroke="#000000" stroke-width="0.35 px" style="stroke-width:0.35;stroke-miterlimit:4;stroke-dasharray:none;stroke-linecap:square;fill:none"/>
<circle cx="103.553314" cy="-49.567475" r="2.119122" stroke="#000000" stroke-width="0.35 px" style="stroke-width:0.35;stroke-miterlimit:4;stroke-dasharray:none;stroke-linecap:square;fill:none"/>
<circle cx="122.691185" cy="-49.565136" r="2.119122" stroke="#000000" stroke-width="0.35 px" style="stroke-width:0.35;stroke-miterlimit:4;stroke-dasharray:none;stroke-linecap:square;fill:none"/>
<circle cx="141.75914" cy="-49.565136" r="2.119122" stroke="#000000" stroke-width="0.35 px" style="stroke-width:0.35;stroke-miterlimit:4;stroke-dasharray:none;stroke-linecap:square;fill:none"/>
<circle cx="160.871231" cy="-49.565136" r="2.119122" stroke="#000000" stroke-width="0.35 px" style="stroke-width:0.35;stroke-miterlimit:4;stroke-dasharray:none;stroke-linecap:square;fill:none"/>
<circle cx="7.992183999999999" cy="-78.075407" r="2.119122" stroke="#000000" stroke-width="0.35 px" style="stroke-width:0.35;stroke-miterlimit:4;stroke-dasharray:none;stroke-linecap:square;fill:none"/>
<circle cx="26.971856999999996" cy="-78.075407" r="2.119122" stroke="#000000" stroke-width="0.35 px" style="stroke-width:0.35;stroke-miterlimit:4;stroke-dasharray:none;stroke-linecap:square;fill:none"/>
<circle cx="46.216366" cy="-78.075407" r="2.119122" stroke="#000000" stroke-width="0.35 px" style="stroke-width:0.35;stroke-miterlimit:4;stroke-dasharray:none;stroke-linecap:square;fill:none"/>
<circle cx="65.28430900000001" cy="-78.075407" r="2.119122" stroke="#000000" stroke-width="0.35 px" style="stroke-width:0.35;stroke-miterlimit:4;stroke-dasharray:none;stroke-linecap:square;fill:none"/>
<circle cx="84.41765600000001" cy="-78.072377" r="2.119122" stroke="#000000" stroke-width="0.35 px" style="stroke-width:0.35;stroke-miterlimit:4;stroke-dasharray:none;stroke-linecap:square;fill:none"/>
<circle cx="103.529739" cy="-78.072377" r="2.119122" stroke="#000000" stroke-width="0.35 px" style="stroke-width:0.35;stroke-miterlimit:4;stroke-dasharray:none;stroke-linecap:square;fill:none"/>
<circle cx="122.66761000000001" cy="-78.07003800000001" r="2.119122" stroke="#000000" stroke-width="0.35 px" style="stroke-width:0.35;stroke-miterlimit:4;stroke-dasharray:none;stroke-linecap:square;fill:none"/>
<circle cx="141.735565" cy="-78.07003800000001" r="2.119122" stroke="#000000" stroke-width="0.35 px" style="stroke-width:0.35;stroke-miterlimit:4;stroke-dasharray:none;stroke-linecap:square;fill:none"/>
<circle cx="160.847656" cy="-78.07003800000001" r="2.119122" stroke="#000000" stroke-width="0.35 px" style="stroke-width:0.35;stroke-miterlimit:4;stroke-dasharray:none;stroke-linecap:square;fill:none"/>
<circle cx="8.029964999999999" cy="4.568286999999998" r="2.119122" stroke="#000000" stroke-width="0.35 px" style="stroke-width:0.35;stroke-miterlimit:4;stroke-dasharray:none;stroke-linecap:square;fill:none"/>
<circle cx="27.009638" cy="4.568286999999998" r="2.119122" stroke="#000000" stroke-width="0.35 px" style="stroke-width:0.35;stroke-miterlimit:4;stroke-dasharray:none;stroke-linecap:square;fill:none"/>
<circle cx="46.254146999999996" cy="4.568286999999998" r="2.119122" stroke="#000000" stroke-width="0.35 px" style="stroke-width:0.35;stroke-miterlimit:4;stroke-dasharray:none;stroke-linecap:square;fill:none"/>
<circle cx="65.32209" cy="4.568286999999998" r="2.119122" stroke="#000000" stroke-width="0.35 px" style="stroke-width:0.35;stroke-miterlimit:4;stroke-dasharray:none;stroke-linecap:square;fill:none"/>
<circle cx="84.455437" cy="4.571316999999997" r="2.119122" stroke="#000000" stroke-width="0.35 px" style="stroke-width:0.35;stroke-miterlimit:4;stroke-dasharray:none;stroke-linecap:square;fill:none"/>
<circle cx="103.56752" cy="4.571316999999997" r="2.119122" stroke="#000000" stroke-width="0.35 px" style="stroke-width:0.35;stroke-miterlimit:4;stroke-dasharray:none;stroke-linecap:square;fill:none"/>
<circle cx="122.705391" cy="4.573655999999996" r="2.119122" stroke="#000000" stroke-width="0.35 px" style="stroke-width:0.35;stroke-miterlimit:4;stroke-dasharray:none;stroke-linecap:square;fill:none"/>
<circle cx="141.773346" cy="4.573655999999996" r="2.119122" stroke="#000000" stroke-width="0.35 px" style="stroke-width:0.35;stroke-miterlimit:4;stroke-dasharray:none;stroke-linecap:square;fill:none"/>
<circle cx="160.885437" cy="4.573655999999996" r="2.119122" stroke="#000000" stroke-width="0.35 px" style="stroke-width:0.35;stroke-miterlimit:4;stroke-dasharray:none;stroke-linecap:square;fill:none"/>
<title>b'Sketch'</title>
</g>
<g id="Sketch_proj" transform="translate(11.783124,12.602136) scale(1,-1)">
<circle cx="8.003079" cy="-21.059404" r="2.119122" stroke="#191919" stroke-width="0.35 px" style="stroke-width:0.35;stroke-miterlimit:4;stroke-dasharray:none;stroke-linecap:square;fill:none"/>
<circle cx="26.982751999999998" cy="-21.059404" r="2.119122" stroke="#191919" stroke-width="0.35 px" style="stroke-width:0.35;stroke-miterlimit:4;stroke-dasharray:none;stroke-linecap:square;fill:none"/>
<circle cx="46.227261" cy="-21.059404" r="2.119122" stroke="#191919" stroke-width="0.35 px" style="stroke-width:0.35;stroke-miterlimit:4;stroke-dasharray:none;stroke-linecap:square;fill:none"/>
<circle cx="65.295204" cy="-21.059404" r="2.119122" stroke="#191919" stroke-width="0.35 px" style="stroke-width:0.35;stroke-miterlimit:4;stroke-dasharray:none;stroke-linecap:square;fill:none"/>
<circle cx="84.428551" cy="-21.056374" r="2.119122" stroke="#191919" stroke-width="0.35 px" style="stroke-width:0.35;stroke-miterlimit:4;stroke-dasharray:none;stroke-linecap:square;fill:none"/>
<circle cx="103.540634" cy="-21.056374" r="2.119122" stroke="#191919" stroke-width="0.35 px" style="stroke-width:0.35;stroke-miterlimit:4;stroke-dasharray:none;stroke-linecap:square;fill:none"/>
<circle cx="122.678505" cy="-21.054035000000002" r="2.119122" stroke="#191919" stroke-width="0.35 px" style="stroke-width:0.35;stroke-miterlimit:4;stroke-dasharray:none;stroke-linecap:square;fill:none"/>
<circle cx="141.74646" cy="-21.054035000000002" r="2.119122" stroke="#191919" stroke-width="0.35 px" style="stroke-width:0.35;stroke-miterlimit:4;stroke-dasharray:none;stroke-linecap:square;fill:none"/>
<circle cx="160.858551" cy="-21.054035000000002" r="2.119122" stroke="#191919" stroke-width="0.35 px" style="stroke-width:0.35;stroke-miterlimit:4;stroke-dasharray:none;stroke-linecap:square;fill:none"/>
<circle cx="8.015759" cy="-49.570505" r="2.119122" stroke="#191919" stroke-width="0.35 px" style="stroke-width:0.35;stroke-miterlimit:4;stroke-dasharray:none;stroke-linecap:square;fill:none"/>
<circle cx="26.995431999999997" cy="-49.570505" r="2.119122" stroke="#191919" stroke-width="0.35 px" style="stroke-width:0.35;stroke-miterlimit:4;stroke-dasharray:none;stroke-linecap:square;fill:none"/>
<circle cx="46.239941" cy="-49.570505" r="2.119122" stroke="#191919" stroke-width="0.35 px" style="stroke-width:0.35;stroke-miterlimit:4;stroke-dasharray:none;stroke-linecap:square;fill:none"/>
<circle cx="65.307884" cy="-49.570505" r="2.119122" stroke="#191919" stroke-width="0.35 px" style="stroke-width:0.35;stroke-miterlimit:4;stroke-dasharray:none;stroke-linecap:square;fill:none"/>
<circle cx="84.441231" cy="-49.567475" r="2.119122" stroke="#191919" stroke-width="0.35 px" style="stroke-width:0.35;stroke-miterlimit:4;stroke-dasharray:none;stroke-linecap:square;fill:none"/>
<circle cx="103.553314" cy="-49.567475" r="2.119122" stroke="#191919" stroke-width="0.35 px" style="stroke-width:0.35;stroke-miterlimit:4;stroke-dasharray:none;stroke-linecap:square;fill:none"/>
<circle cx="122.691185" cy="-49.565136" r="2.119122" stroke="#191919" stroke-width="0.35 px" style="stroke-width:0.35;stroke-miterlimit:4;stroke-dasharray:none;stroke-linecap:square;fill:none"/>
<circle cx="141.75914" cy="-49.565136" r="2.119122" stroke="#191919" stroke-width="0.35 px" style="stroke-width:0.35;stroke-miterlimit:4;stroke-dasharray:none;stroke-linecap:square;fill:none"/>
<circle cx="160.871231" cy="-49.565136" r="2.119122" stroke="#191919" stroke-width="0.35 px" style="stroke-width:0.35;stroke-miterlimit:4;stroke-dasharray:none;stroke-linecap:square;fill:none"/>
<circle cx="7.992183999999999" cy="-78.075407" r="2.119122" stroke="#191919" stroke-width="0.35 px" style="stroke-width:0.35;stroke-miterlimit:4;stroke-dasharray:none;stroke-linecap:square;fill:none"/>
<circle cx="26.971856999999996" cy="-78.075407" r="2.119122" stroke="#191919" stroke-width="0.35 px" style="stroke-width:0.35;stroke-miterlimit:4;stroke-dasharray:none;stroke-linecap:square;fill:none"/>
<circle cx="46.216366" cy="-78.075407" r="2.119122" stroke="#191919" stroke-width="0.35 px" style="stroke-width:0.35;stroke-miterlimit:4;stroke-dasharray:none;stroke-linecap:square;fill:none"/>
<circle cx="65.28430900000001" cy="-78.075407" r="2.119122" stroke="#191919" stroke-width="0.35 px" style="stroke-width:0.35;stroke-miterlimit:4;stroke-dasharray:none;stroke-linecap:square;fill:none"/>
<circle cx="84.41765600000001" cy="-78.072377" r="2.119122" stroke="#191919" stroke-width="0.35 px" style="stroke-width:0.35;stroke-miterlimit:4;stroke-dasharray:none;stroke-linecap:square;fill:none"/>
<circle cx="103.529739" cy="-78.072377" r="2.119122" stroke="#191919" stroke-width="0.35 px" style="stroke-width:0.35;stroke-miterlimit:4;stroke-dasharray:none;stroke-linecap:square;fill:none"/>
<circle cx="122.66761000000001" cy="-78.07003800000001" r="2.119122" stroke="#191919" stroke-width="0.35 px" style="stroke-width:0.35;stroke-miterlimit:4;stroke-dasharray:none;stroke-linecap:square;fill:none"/>
<circle cx="141.735565" cy="-78.07003800000001" r="2.119122" stroke="#191919" stroke-width="0.35 px" style="stroke-width:0.35;stroke-miterlimit:4;stroke-dasharray:none;stroke-linecap:square;fill:none"/>
<circle cx="160.847656" cy="-78.07003800000001" r="2.119122" stroke="#191919" stroke-width="0.35 px" style="stroke-width:0.35;stroke-miterlimit:4;stroke-dasharray:none;stroke-linecap:square;fill:none"/>
<circle cx="8.029964999999999" cy="4.568286999999998" r="2.119122" stroke="#191919" stroke-width="0.35 px" style="stroke-width:0.35;stroke-miterlimit:4;stroke-dasharray:none;stroke-linecap:square;fill:none"/>
<circle cx="27.009638" cy="4.568286999999998" r="2.119122" stroke="#191919" stroke-width="0.35 px" style="stroke-width:0.35;stroke-miterlimit:4;stroke-dasharray:none;stroke-linecap:square;fill:none"/>
<circle cx="46.254146999999996" cy="4.568286999999998" r="2.119122" stroke="#191919" stroke-width="0.35 px" style="stroke-width:0.35;stroke-miterlimit:4;stroke-dasharray:none;stroke-linecap:square;fill:none"/>
<circle cx="65.32209" cy="4.568286999999998" r="2.119122" stroke="#191919" stroke-width="0.35 px" style="stroke-width:0.35;stroke-miterlimit:4;stroke-dasharray:none;stroke-linecap:square;fill:none"/>
<circle cx="84.455437" cy="4.571316999999997" r="2.119122" stroke="#191919" stroke-width="0.35 px" style="stroke-width:0.35;stroke-miterlimit:4;stroke-dasharray:none;stroke-linecap:square;fill:none"/>
<circle cx="103.56752" cy="4.571316999999997" r="2.119122" stroke="#191919" stroke-width="0.35 px" style="stroke-width:0.35;stroke-miterlimit:4;stroke-dasharray:none;stroke-linecap:square;fill:none"/>
<circle cx="122.705391" cy="4.573655999999996" r="2.119122" stroke="#191919" stroke-width="0.35 px" style="stroke-width:0.35;stroke-miterlimit:4;stroke-dasharray:none;stroke-linecap:square;fill:none"/>
<circle cx="141.773346" cy="4.573655999999996" r="2.119122" stroke="#191919" stroke-width="0.35 px" style="stroke-width:0.35;stroke-miterlimit:4;stroke-dasharray:none;stroke-linecap:square;fill:none"/>
<circle cx="160.885437" cy="4.573655999999996" r="2.119122" stroke="#191919" stroke-width="0.35 px" style="stroke-width:0.35;stroke-miterlimit:4;stroke-dasharray:none;stroke-linecap:square;fill:none"/>
<title>b'Sketch_proj'</title>
</g>
</svg>